<?xml version="1.0" encoding="UTF-8" standalone="no"?>
<!-- Created with Inkscape (http://www.inkscape.org/) -->

<svg
   width="240mm"
   height="120mm"
   viewBox="0 0 240 120"
   version="1.1"
   id="svg8"
   inkscape:version="1.3 (0e150ed6c4, 2023-07-21)"
   sodipodi:docname="corollario_72.svg"
   inkscape:export-filename="w_sottospazio_vettoriale.pdf"
   inkscape:export-xdpi="96"
   inkscape:export-ydpi="96"
   xmlns:inkscape="http://www.inkscape.org/namespaces/inkscape"
   xmlns:sodipodi="http://sodipodi.sourceforge.net/DTD/sodipodi-0.dtd"
   xmlns="http://www.w3.org/2000/svg"
   xmlns:svg="http://www.w3.org/2000/svg"
   xmlns:rdf="http://www.w3.org/1999/02/22-rdf-syntax-ns#"
   xmlns:cc="http://creativecommons.org/ns#"
   xmlns:dc="http://purl.org/dc/elements/1.1/">
  <sodipodi:namedview
     id="base"
     pagecolor="#ffffff"
     bordercolor="#666666"
     borderopacity="1.0"
     inkscape:pageopacity="0.0"
     inkscape:pageshadow="2"
     inkscape:zoom="1.9720138"
     inkscape:cx="416.07213"
     inkscape:cy="208.92348"
     inkscape:document-units="mm"
     inkscape:current-layer="layer1"
     showgrid="false"
     showborder="true"
     width="200mm"
     showguides="true"
     inkscape:guide-bbox="true"
     inkscape:window-width="1920"
     inkscape:window-height="1028"
     inkscape:window-x="1920"
     inkscape:window-y="0"
     inkscape:window-maximized="1"
     inkscape:showpageshadow="0"
     inkscape:pagecheckerboard="0"
     inkscape:deskcolor="#505050"
     inkscape:connector-spacing="0">
    <inkscape:grid
       type="xygrid"
       id="grid815"
       units="mm"
       spacingx="10"
       spacingy="10"
       empspacing="4"
       dotted="false"
       originx="0"
       originy="0"
       visible="false" />
  </sodipodi:namedview>
  <defs
     id="defs2">
    <marker
       style="overflow:visible"
       id="marker45"
       refX="0"
       refY="0"
       orient="auto-start-reverse"
       inkscape:stockid="Wide arrow"
       markerWidth="1"
       markerHeight="1"
       viewBox="0 0 1 1"
       inkscape:isstock="true"
       inkscape:collect="always"
       preserveAspectRatio="xMidYMid">
      <path
         style="fill:none;stroke:context-stroke;stroke-width:1;stroke-linecap:butt"
         d="M 3,-3 0,0 3,3"
         transform="rotate(180,0.125,0)"
         sodipodi:nodetypes="ccc"
         id="path45" />
    </marker>
    <marker
       style="overflow:visible"
       id="ArrowWide"
       refX="0"
       refY="0"
       orient="auto-start-reverse"
       inkscape:stockid="Wide arrow"
       markerWidth="1"
       markerHeight="1"
       viewBox="0 0 1 1"
       inkscape:isstock="true"
       inkscape:collect="always"
       preserveAspectRatio="xMidYMid">
      <path
         style="fill:none;stroke:context-stroke;stroke-width:1;stroke-linecap:butt"
         d="M 3,-3 0,0 3,3"
         transform="rotate(180,0.125,0)"
         sodipodi:nodetypes="ccc"
         id="path1" />
    </marker>
    <inkscape:path-effect
       effect="construct_grid"
       id="path-effect43"
       is_visible="true"
       lpeversion="1"
       nr_x="10"
       nr_y="10" />
    <inkscape:perspective
       sodipodi:type="inkscape:persp3d"
       inkscape:vp_x="0 : 60 : 1"
       inkscape:vp_y="0 : 1000 : 0"
       inkscape:vp_z="240 : 60 : 1"
       inkscape:persp3d-origin="120 : 40 : 1"
       id="perspective27" />
    <linearGradient
       id="swatch16"
       inkscape:swatch="solid">
      <stop
         style="stop-color:#1a1a1a;stop-opacity:1;"
         offset="0"
         id="stop16" />
    </linearGradient>
  </defs>
  <metadata
     id="metadata5">
    <rdf:RDF>
      <cc:Work
         rdf:about="">
        <dc:format>image/svg+xml</dc:format>
        <dc:type
           rdf:resource="http://purl.org/dc/dcmitype/StillImage" />
      </cc:Work>
    </rdf:RDF>
  </metadata>
  <g
     inkscape:label="Layer 1"
     inkscape:groupmode="layer"
     id="layer1"
     transform="translate(0, -177)">
    <path
       style="fill:#7a7a7a;fill-opacity:0.889202;stroke:#000000;stroke-width:0.735155;stroke-linecap:butt;stroke-linejoin:bevel;stroke-dasharray:2.20546, 2.20546;stroke-dashoffset:0;stroke-opacity:0.999243"
       id="rect43"
       width="141.36426"
       height="81.748222"
       x="32.736721"
       y="197.95432"
       inkscape:path-effect="#path-effect43"
       sodipodi:type="rect"
       d="M 174.10098,197.95432 H -1239.5416 M 174.10098,279.70254 H -1239.5416 M 174.10098,361.45076 H -1239.5416 M 174.10098,443.19898 H -1239.5416 M 174.10098,524.9472 H -1239.5416 M 174.10098,606.69543 H -1239.5416 M 174.10098,688.44365 H -1239.5416 M 174.10098,770.19187 H -1239.5416 M 174.10098,851.94009 H -1239.5416 M 174.10098,933.68832 H -1239.5416 M 174.10098,1015.4365 H -1239.5416 M 174.10098,197.95432 V 1015.4365 M 32.736721,197.95432 V 1015.4365 M -108.62754,197.95432 V 1015.4365 M -249.99179,197.95432 V 1015.4365 M -391.35605,197.95432 V 1015.4365 M -532.72031,197.95432 V 1015.4365 M -674.08457,197.95432 V 1015.4365 M -815.44883,197.95432 V 1015.4365 M -956.81308,197.95432 V 1015.4365 M -1098.1773,197.95432 v 817.48218 m -141.3643,-817.48218 v 817.48218"
       transform="matrix(0.08228217,0,0,0.13332711,164.43476,156.5205)" />
    <path
       style="display:inline;fill:none;fill-rule:evenodd;stroke:#000000;stroke-width:0.264583px;stroke-linecap:butt;stroke-linejoin:miter;stroke-opacity:1;marker-end:url(#ArrowWide)"
       d="M 73.99939,292.02702 74.201367,182.84465"
       id="path43"
       inkscape:connector-type="polyline"
       inkscape:connector-curvature="0" />
    <path
       style="fill:none;fill-rule:evenodd;stroke:#000000;stroke-width:0.264583px;stroke-linecap:butt;stroke-linejoin:miter;stroke-opacity:1;marker-end:url(#marker45)"
       d="m 62.67729,237.52584 115.70444,-0.25905"
       id="path44"
       inkscape:connector-type="polyline"
       inkscape:connector-curvature="0" />
    <g
       inkscape:label=""
       transform="translate(175.01575,233.92252)"
       id="g10">
      <g
         id="g9"
         transform="matrix(0.352778,0,0,0.352778,-0.807817,-0.661723)">
        <g
           style="fill:#000000;fill-opacity:1"
           id="g8">
          <g
             id="g7"
             transform="translate(1.993,6.2820001)">
            <path
               style="stroke:none"
               d="M 3.328125,-3.015625 C 3.390625,-3.265625 3.625,-4.1875 4.3125,-4.1875 c 0.046875,0 0.296875,0 0.5,0.125 C 4.53125,-4 4.34375,-3.765625 4.34375,-3.515625 c 0,0.15625 0.109375,0.34375 0.375,0.34375 0.21875,0 0.53125,-0.171875 0.53125,-0.578125 0,-0.515625 -0.578125,-0.65625 -0.921875,-0.65625 -0.578125,0 -0.921875,0.53125 -1.046875,0.75 -0.25,-0.65625 -0.78125,-0.75 -1.078125,-0.75 -1.03125,0 -1.609375,1.28125 -1.609375,1.53125 0,0.109375 0.109375,0.109375 0.125,0.109375 0.078125,0 0.109375,-0.03125 0.125,-0.109375 0.34375,-1.0625 1,-1.3125 1.34375,-1.3125 0.1875,0 0.53125,0.09375 0.53125,0.671875 0,0.3125 -0.171875,0.96875 -0.53125,2.375 -0.15625,0.609375 -0.515625,1.03125 -0.953125,1.03125 -0.0625,0 -0.28125,0 -0.5,-0.125 0.25,-0.0625 0.46875,-0.265625 0.46875,-0.546875 0,-0.265625 -0.21875,-0.34375 -0.359375,-0.34375 -0.3125,0 -0.546875,0.25 -0.546875,0.578125 0,0.453125 0.484375,0.65625 0.921875,0.65625 0.671875,0 1.03125,-0.703125 1.046875,-0.75 0.125,0.359375 0.484375,0.75 1.078125,0.75 1.03125,0 1.59375,-1.28125 1.59375,-1.53125 0,-0.109375 -0.078125,-0.109375 -0.109375,-0.109375 -0.09375,0 -0.109375,0.046875 -0.140625,0.109375 -0.328125,1.078125 -1,1.3125 -1.3125,1.3125 -0.390625,0 -0.546875,-0.3125 -0.546875,-0.65625 0,-0.21875 0.046875,-0.4375 0.15625,-0.875 z m 0,0"
               id="path6" />
          </g>
        </g>
      </g>
    </g>
    <g
       inkscape:label=""
       transform="translate(75.563931,184.02419)"
       id="g14">
      <g
         id="g13"
         transform="matrix(0.352778,0,0,0.352778,-0.807817,-0.661723)">
        <g
           style="fill:#000000;fill-opacity:1"
           id="g12">
          <g
             id="g11"
             transform="translate(1.993,6.2820001)">
            <path
               style="stroke:none"
               d="m 4.84375,-3.796875 c 0.046875,-0.140625 0.046875,-0.15625 0.046875,-0.234375 0,-0.171875 -0.140625,-0.265625 -0.296875,-0.265625 -0.09375,0 -0.25,0.0625 -0.34375,0.203125 -0.015625,0.0625 -0.109375,0.359375 -0.140625,0.546875 -0.078125,0.25 -0.140625,0.53125 -0.203125,0.796875 l -0.453125,1.796875 c -0.03125,0.140625 -0.46875,0.84375 -1.125,0.84375 -0.5,0 -0.609375,-0.4375 -0.609375,-0.8125 C 1.71875,-1.375 1.890625,-2 2.21875,-2.875 2.375,-3.28125 2.421875,-3.390625 2.421875,-3.59375 c 0,-0.4375 -0.3125,-0.8125 -0.8125,-0.8125 -0.953125,0 -1.3125,1.453125 -1.3125,1.53125 0,0.109375 0.09375,0.109375 0.109375,0.109375 0.109375,0 0.109375,-0.03125 0.15625,-0.1875 0.28125,-0.9375 0.671875,-1.234375 1.015625,-1.234375 0.078125,0 0.25,0 0.25,0.3125 0,0.25 -0.109375,0.515625 -0.171875,0.703125 -0.40625,1.0625 -0.578125,1.625 -0.578125,2.09375 0,0.890625 0.625,1.1875 1.21875,1.1875 0.390625,0 0.71875,-0.171875 1,-0.453125 -0.125,0.515625 -0.25,1.015625 -0.640625,1.546875 -0.265625,0.328125 -0.640625,0.625 -1.09375,0.625 -0.140625,0 -0.59375,-0.03125 -0.765625,-0.421875 0.15625,0 0.296875,0 0.421875,-0.125 C 1.328125,1.203125 1.421875,1.0625 1.421875,0.875 1.421875,0.5625 1.15625,0.53125 1.0625,0.53125 0.828125,0.53125 0.5,0.6875 0.5,1.171875 c 0,0.5 0.4375,0.875 1.0625,0.875 1.015625,0 2.046875,-0.90625 2.328125,-2.03125 z m 0,0"
               id="path10" />
          </g>
        </g>
      </g>
    </g>
    <circle
       style="fill:#ff0000;fill-opacity:1;stroke:#ff0000;stroke-width:0.409741;stroke-opacity:1"
       id="path14"
       cx="97.200142"
       cy="259.47137"
       r="0.93066382" />
    <circle
       style="fill:#ff0000;fill-opacity:1;stroke:#ff0000;stroke-width:0.409741;stroke-opacity:1"
       id="path14-3"
       cx="155.56105"
       cy="215.79263"
       r="0.93066382" />
    <circle
       style="fill:#00c2ff;fill-opacity:1;stroke:#00c2ff;stroke-width:0.409741;stroke-opacity:1"
       id="path14-3-7"
       cx="155.53041"
       cy="193.67821"
       r="0.93066382" />
    <circle
       style="fill:#00c2ff;fill-opacity:1;stroke:#00c2ff;stroke-width:0.409741;stroke-opacity:1"
       id="path14-3-5"
       cx="97.428452"
       cy="270.2182"
       r="0.93066382" />
    <path
       style="display:inline;fill:#00c2ff;fill-opacity:0;stroke:#ff0000;stroke-width:0.336794;stroke-dasharray:none;stroke-opacity:1"
       d="m 97.393558,259.27522 c 5.800592,-15.99739 4.300622,-38.87079 13.331312,-30.65441 3.72726,3.39116 13.26215,25.06172 22.80681,16.46611 6.77349,-6.1 11.71893,-38.33424 12.59407,-40.69564 1.52857,-4.12454 7.97827,2.42 9.47305,11.42547"
       id="path1-3"
       sodipodi:nodetypes="csssc" />
    <path
       style="display:inline;fill:#00c2ff;fill-opacity:0;stroke:#00c2ff;stroke-width:0.336794;stroke-dasharray:none;stroke-opacity:1"
       d="m 97.301233,270.26365 c 5.800587,-15.99739 22.621187,-32.83596 32.055467,-27.71896 10.58841,5.74297 5.19804,-43.25562 10.66449,-44.26193 5.72261,-1.05347 11.1784,4.1281 15.31856,-4.43574"
       id="path1-3-6"
       sodipodi:nodetypes="cssc" />
    <g
       inkscape:label=""
       transform="translate(103.2431,223.82479)"
       id="g1">
      <g
         id="surface1"
         transform="matrix(0.352778,0,0,0.352778,-0.907036,-0.663399)">
        <g
           style="fill:#000000;fill-opacity:1"
           id="g3">
          <g
             id="use2"
             transform="translate(1.993,9.5679998)">
            <path
               style="stroke:none"
               d="m 4,-4.359375 h 0.9375 c 0.21875,0 0.328125,0 0.328125,-0.21875 0,-0.125 -0.109375,-0.125 -0.296875,-0.125 H 4.0625 L 4.296875,-5.9375 C 4.34375,-6.171875 4.5,-6.953125 4.5625,-7.078125 c 0.09375,-0.203125 0.28125,-0.375 0.515625,-0.375 0.03125,0 0.328125,0 0.53125,0.203125 -0.484375,0.046875 -0.59375,0.421875 -0.59375,0.59375 0,0.25 0.203125,0.375 0.40625,0.375 0.28125,0 0.59375,-0.234375 0.59375,-0.65625 0,-0.5 -0.5,-0.75 -0.9375,-0.75 -0.375,0 -1.0625,0.1875 -1.390625,1.28125 -0.0625,0.21875 -0.09375,0.328125 -0.359375,1.703125 h -0.75 c -0.21875,0 -0.328125,0 -0.328125,0.203125 0,0.140625 0.09375,0.140625 0.296875,0.140625 h 0.71875 l -0.8125,4.3125 C 2.25,1 2.078125,2 1.5,2 1.46875,2 1.1875,2 0.984375,1.796875 c 0.5,-0.03125 0.59375,-0.421875 0.59375,-0.59375 0,-0.25 -0.1875,-0.375 -0.40625,-0.375 -0.28125,0 -0.59375,0.234375 -0.59375,0.65625 0,0.484375 0.484375,0.75 0.921875,0.75 0.609375,0 1.046875,-0.640625 1.234375,-1.0625 0.359375,-0.6875 0.609375,-2 0.609375,-2.078125 z m 0,0"
               id="path3" />
          </g>
        </g>
      </g>
    </g>
    <g
       inkscape:label=""
       transform="translate(136.11452,195.78344)"
       id="g6">
      <g
         id="g5"
         transform="matrix(0.352778,0,0,0.352778,-0.758208,-0.656475)">
        <g
           style="fill:#000000;fill-opacity:1"
           id="g4">
          <g
             id="g2"
             transform="translate(1.993,6.6890001)">
            <path
               style="stroke:none"
               d="m 5.140625,-4.109375 c 0,-0.0625 0.03125,-0.125 0.03125,-0.203125 0,-0.1875 -0.140625,-0.296875 -0.3125,-0.296875 -0.109375,0 -0.40625,0.078125 -0.453125,0.46875 -0.203125,-0.390625 -0.578125,-0.6875 -1.015625,-0.6875 -1.234375,0 -2.59375,1.53125 -2.59375,3.109375 C 0.796875,-0.640625 1.46875,0 2.25,0 2.890625,0 3.40625,-0.515625 3.515625,-0.625 3.296875,0.34375 3.15625,0.796875 3.15625,0.8125 3.125,0.921875 2.75,2 1.59375,2 1.390625,2 1.03125,1.984375 0.71875,1.890625 1.046875,1.78125 1.171875,1.5 1.171875,1.3125 c 0,-0.171875 -0.125,-0.375 -0.421875,-0.375 -0.234375,0 -0.59375,0.203125 -0.59375,0.640625 0,0.4375 0.40625,0.65625 1.453125,0.65625 1.375,0 2.15625,-0.84375 2.3125,-1.5 z m -1.421875,2.71875 c -0.0625,0.28125 -0.3125,0.546875 -0.5625,0.765625 -0.21875,0.1875 -0.5625,0.390625 -0.875,0.390625 -0.546875,0 -0.703125,-0.578125 -0.703125,-1.015625 0,-0.515625 0.3125,-1.796875 0.609375,-2.359375 0.28125,-0.53125 0.75,-0.96875 1.21875,-0.96875 0.71875,0 0.875,0.875 0.875,0.9375 0,0.046875 -0.03125,0.125 -0.03125,0.15625 z m 0,0"
               id="path2" />
          </g>
        </g>
      </g>
    </g>
    <g
       inkscape:label=""
       transform="translate(97.615505,235.09499)"
       id="g18">
      <g
         id="g17"
         transform="matrix(0.352778,0,0,0.352778,-0.857426,-0.656475)">
        <g
           style="fill:#000000;fill-opacity:1"
           id="g16">
          <g
             id="g15"
             transform="translate(1.993,6.6890001)">
            <path
               style="stroke:none"
               d="m 4.0625,-4.125 c -0.1875,-0.40625 -0.5,-0.703125 -1,-0.703125 -1.28125,0 -2.625,1.609375 -2.625,3.203125 0,1.03125 0.59375,1.75 1.453125,1.75 0.21875,0 0.765625,-0.046875 1.40625,-0.828125 0.09375,0.46875 0.484375,0.828125 1,0.828125 0.375,0 0.625,-0.25 0.8125,-0.609375 C 5.296875,-0.875 5.4375,-1.53125 5.4375,-1.5625 5.4375,-1.671875 5.328125,-1.671875 5.296875,-1.671875 5.1875,-1.671875 5.1875,-1.625 5.140625,-1.46875 4.96875,-0.765625 4.765625,-0.125 4.3125,-0.125 c -0.28125,0 -0.328125,-0.28125 -0.328125,-0.5 0,-0.234375 0.03125,-0.328125 0.15625,-0.796875 C 4.25,-1.890625 4.28125,-2 4.375,-2.40625 L 4.765625,-3.9375 C 4.84375,-4.25 4.84375,-4.265625 4.84375,-4.3125 c 0,-0.1875 -0.125,-0.296875 -0.3125,-0.296875 -0.265625,0 -0.4375,0.25 -0.46875,0.484375 z m -0.703125,2.828125 c -0.0625,0.203125 -0.0625,0.21875 -0.21875,0.40625 C 2.65625,-0.296875 2.21875,-0.125 1.90625,-0.125 c -0.546875,0 -0.703125,-0.59375 -0.703125,-1.015625 0,-0.546875 0.359375,-1.890625 0.609375,-2.390625 0.34375,-0.640625 0.828125,-1.046875 1.265625,-1.046875 0.703125,0 0.859375,0.890625 0.859375,0.953125 0,0.0625 -0.015625,0.140625 -0.03125,0.1875 z m 0,0"
               id="path7" />
          </g>
        </g>
      </g>
    </g>
    <g
       inkscape:label=""
       transform="translate(155.97156,234.02164)"
       id="g22">
      <g
         id="g21"
         transform="matrix(0.352778,0,0,0.352778,-0.884987,-0.707496)">
        <g
           style="fill:#000000;fill-opacity:1"
           id="g20">
          <g
             id="g19"
             transform="translate(1.993,9.5679998)">
            <path
               style="stroke:none"
               d="m 2.609375,-7.453125 c 0,0 0,-0.109375 -0.140625,-0.109375 -0.25,0 -1.046875,0.078125 -1.328125,0.109375 -0.09375,0 -0.21875,0.015625 -0.21875,0.21875 0,0.125 0.109375,0.125 0.265625,0.125 0.53125,0 0.546875,0.078125 0.546875,0.1875 0,0.078125 -0.09375,0.4375 -0.15625,0.671875 L 0.6875,-2.6875 c -0.125,0.53125 -0.171875,0.71875 -0.171875,1.09375 0,1.03125 0.578125,1.71875 1.375,1.71875 1.296875,0 2.640625,-1.625 2.640625,-3.203125 0,-0.984375 -0.578125,-1.75 -1.453125,-1.75 -0.5,0 -0.953125,0.328125 -1.28125,0.65625 z m -1.03125,4.125 c 0.0625,-0.234375 0.0625,-0.265625 0.171875,-0.375 0.53125,-0.71875 1.015625,-0.875 1.296875,-0.875 0.40625,0 0.6875,0.328125 0.6875,1.015625 0,0.65625 -0.359375,1.90625 -0.546875,2.3125 -0.359375,0.734375 -0.859375,1.125 -1.296875,1.125 -0.359375,0 -0.71875,-0.296875 -0.71875,-1.09375 0,-0.203125 0,-0.421875 0.171875,-1.109375 z m 0,0"
               id="path18" />
          </g>
        </g>
      </g>
    </g>
    <g
       inkscape:label=""
       transform="translate(66.219934,267.96642)"
       id="g28">
      <g
         id="g27"
         transform="matrix(0.352778,0,0,0.352778,-0.907036,-0.706305)">
        <g
           style="fill:#000000;fill-opacity:1"
           id="g23">
          <g
             id="use6"
             transform="translate(1.993,10.174)">
            <path
               style="stroke:none"
               d="m 4,-4.359375 h 0.9375 c 0.21875,0 0.328125,0 0.328125,-0.21875 0,-0.125 -0.109375,-0.125 -0.296875,-0.125 H 4.0625 L 4.296875,-5.9375 C 4.34375,-6.171875 4.5,-6.953125 4.5625,-7.078125 c 0.09375,-0.203125 0.28125,-0.375 0.515625,-0.375 0.03125,0 0.328125,0 0.53125,0.203125 -0.484375,0.046875 -0.59375,0.421875 -0.59375,0.59375 0,0.25 0.203125,0.375 0.40625,0.375 0.28125,0 0.59375,-0.234375 0.59375,-0.65625 0,-0.5 -0.5,-0.75 -0.9375,-0.75 -0.375,0 -1.0625,0.1875 -1.390625,1.28125 -0.0625,0.21875 -0.09375,0.328125 -0.359375,1.703125 h -0.75 c -0.21875,0 -0.328125,0 -0.328125,0.203125 0,0.140625 0.09375,0.140625 0.296875,0.140625 h 0.71875 l -0.8125,4.3125 C 2.25,1 2.078125,2 1.5,2 1.46875,2 1.1875,2 0.984375,1.796875 c 0.5,-0.03125 0.59375,-0.421875 0.59375,-0.59375 0,-0.25 -0.1875,-0.375 -0.40625,-0.375 -0.28125,0 -0.59375,0.234375 -0.59375,0.65625 0,0.484375 0.484375,0.75 0.921875,0.75 0.609375,0 1.046875,-0.640625 1.234375,-1.0625 0.359375,-0.6875 0.609375,-2 0.609375,-2.078125 z m 0,0"
               id="path22" />
          </g>
        </g>
        <g
           style="fill:#000000;fill-opacity:1"
           id="g24">
          <g
             id="use7"
             transform="translate(8.5080004,10.174)">
            <path
               style="stroke:none"
               d="m 3.609375,2.625 c 0,-0.046875 0,-0.0625 -0.1875,-0.25 C 2.0625,1 1.71875,-1.0625 1.71875,-2.71875 c 0,-1.90625 0.40625,-3.796875 1.75,-5.171875 0.140625,-0.125 0.140625,-0.140625 0.140625,-0.1875 0,-0.0625 -0.046875,-0.09375 -0.109375,-0.09375 -0.109375,0 -1.09375,0.734375 -1.734375,2.125 -0.5625,1.1875 -0.6875,2.40625 -0.6875,3.328125 0,0.84375 0.125,2.15625 0.71875,3.390625 C 2.453125,2.015625 3.390625,2.71875 3.5,2.71875 3.5625,2.71875 3.609375,2.6875 3.609375,2.625 Z m 0,0"
               id="path11" />
          </g>
        </g>
        <g
           style="fill:#000000;fill-opacity:1"
           id="g25">
          <g
             id="use8"
             transform="translate(12.75,10.174)">
            <path
               style="stroke:none"
               d="m 4.0625,-4.125 c -0.1875,-0.40625 -0.5,-0.703125 -1,-0.703125 -1.28125,0 -2.625,1.609375 -2.625,3.203125 0,1.03125 0.59375,1.75 1.453125,1.75 0.21875,0 0.765625,-0.046875 1.40625,-0.828125 0.09375,0.46875 0.484375,0.828125 1,0.828125 0.375,0 0.625,-0.25 0.8125,-0.609375 C 5.296875,-0.875 5.4375,-1.53125 5.4375,-1.5625 5.4375,-1.671875 5.328125,-1.671875 5.296875,-1.671875 5.1875,-1.671875 5.1875,-1.625 5.140625,-1.46875 4.96875,-0.765625 4.765625,-0.125 4.3125,-0.125 c -0.28125,0 -0.328125,-0.28125 -0.328125,-0.5 0,-0.234375 0.03125,-0.328125 0.15625,-0.796875 C 4.25,-1.890625 4.28125,-2 4.375,-2.40625 L 4.765625,-3.9375 C 4.84375,-4.25 4.84375,-4.265625 4.84375,-4.3125 c 0,-0.1875 -0.125,-0.296875 -0.3125,-0.296875 -0.265625,0 -0.4375,0.25 -0.46875,0.484375 z m -0.703125,2.828125 c -0.0625,0.203125 -0.0625,0.21875 -0.21875,0.40625 C 2.65625,-0.296875 2.21875,-0.125 1.90625,-0.125 c -0.546875,0 -0.703125,-0.59375 -0.703125,-1.015625 0,-0.546875 0.359375,-1.890625 0.609375,-2.390625 0.34375,-0.640625 0.828125,-1.046875 1.265625,-1.046875 0.703125,0 0.859375,0.890625 0.859375,0.953125 0,0.0625 -0.015625,0.140625 -0.03125,0.1875 z m 0,0"
               id="path12" />
          </g>
        </g>
        <g
           style="fill:#000000;fill-opacity:1"
           id="g26">
          <g
             id="use9"
             transform="translate(18.517,10.174)">
            <path
               style="stroke:none"
               d="m 3.15625,-2.71875 c 0,-0.859375 -0.125,-2.171875 -0.71875,-3.40625 -0.65625,-1.34375 -1.59375,-2.046875 -1.703125,-2.046875 -0.0625,0 -0.109375,0.03125 -0.109375,0.09375 0,0.046875 0,0.0625 0.203125,0.265625 1.0625,1.078125 1.6875,2.8125 1.6875,5.09375 0,1.859375 -0.40625,3.78125 -1.75,5.15625 C 0.625,2.5625 0.625,2.578125 0.625,2.625 c 0,0.0625 0.046875,0.09375 0.109375,0.09375 0.109375,0 1.09375,-0.734375 1.734375,-2.125 0.546875,-1.1875 0.6875,-2.40625 0.6875,-3.3125 z m 0,0"
               id="path13" />
          </g>
        </g>
      </g>
    </g>
    <g
       inkscape:label=""
       transform="translate(66.488271,257.36707)"
       id="g38">
      <g
         id="g37"
         transform="matrix(0.352778,0,0,0.352778,-0.758208,-0.706305)">
        <g
           style="fill:#000000;fill-opacity:1"
           id="g30">
          <g
             id="g29"
             transform="translate(1.993,10.174)">
            <path
               style="stroke:none"
               d="m 5.140625,-4.109375 c 0,-0.0625 0.03125,-0.125 0.03125,-0.203125 0,-0.1875 -0.140625,-0.296875 -0.3125,-0.296875 -0.109375,0 -0.40625,0.078125 -0.453125,0.46875 -0.203125,-0.390625 -0.578125,-0.6875 -1.015625,-0.6875 -1.234375,0 -2.59375,1.53125 -2.59375,3.109375 C 0.796875,-0.640625 1.46875,0 2.25,0 2.890625,0 3.40625,-0.515625 3.515625,-0.625 3.296875,0.34375 3.15625,0.796875 3.15625,0.8125 3.125,0.921875 2.75,2 1.59375,2 1.390625,2 1.03125,1.984375 0.71875,1.890625 1.046875,1.78125 1.171875,1.5 1.171875,1.3125 c 0,-0.171875 -0.125,-0.375 -0.421875,-0.375 -0.234375,0 -0.59375,0.203125 -0.59375,0.640625 0,0.4375 0.40625,0.65625 1.453125,0.65625 1.375,0 2.15625,-0.84375 2.3125,-1.5 z m -1.421875,2.71875 c -0.0625,0.28125 -0.3125,0.546875 -0.5625,0.765625 -0.21875,0.1875 -0.5625,0.390625 -0.875,0.390625 -0.546875,0 -0.703125,-0.578125 -0.703125,-1.015625 0,-0.515625 0.3125,-1.796875 0.609375,-2.359375 0.28125,-0.53125 0.75,-0.96875 1.21875,-0.96875 0.71875,0 0.875,0.875 0.875,0.9375 0,0.046875 -0.03125,0.125 -0.03125,0.15625 z m 0,0"
               id="path28" />
          </g>
        </g>
        <g
           style="fill:#000000;fill-opacity:1"
           id="g32">
          <g
             id="g31"
             transform="translate(7.5869999,10.174)">
            <path
               style="stroke:none"
               d="m 3.609375,2.625 c 0,-0.046875 0,-0.0625 -0.1875,-0.25 C 2.0625,1 1.71875,-1.0625 1.71875,-2.71875 c 0,-1.90625 0.40625,-3.796875 1.75,-5.171875 0.140625,-0.125 0.140625,-0.140625 0.140625,-0.1875 0,-0.0625 -0.046875,-0.09375 -0.109375,-0.09375 -0.109375,0 -1.09375,0.734375 -1.734375,2.125 -0.5625,1.1875 -0.6875,2.40625 -0.6875,3.328125 0,0.84375 0.125,2.15625 0.71875,3.390625 C 2.453125,2.015625 3.390625,2.71875 3.5,2.71875 3.5625,2.71875 3.609375,2.6875 3.609375,2.625 Z m 0,0"
               id="path30" />
          </g>
        </g>
        <g
           style="fill:#000000;fill-opacity:1"
           id="g34">
          <g
             id="g33"
             transform="translate(11.83,10.174)">
            <path
               style="stroke:none"
               d="m 4.0625,-4.125 c -0.1875,-0.40625 -0.5,-0.703125 -1,-0.703125 -1.28125,0 -2.625,1.609375 -2.625,3.203125 0,1.03125 0.59375,1.75 1.453125,1.75 0.21875,0 0.765625,-0.046875 1.40625,-0.828125 0.09375,0.46875 0.484375,0.828125 1,0.828125 0.375,0 0.625,-0.25 0.8125,-0.609375 C 5.296875,-0.875 5.4375,-1.53125 5.4375,-1.5625 5.4375,-1.671875 5.328125,-1.671875 5.296875,-1.671875 5.1875,-1.671875 5.1875,-1.625 5.140625,-1.46875 4.96875,-0.765625 4.765625,-0.125 4.3125,-0.125 c -0.28125,0 -0.328125,-0.28125 -0.328125,-0.5 0,-0.234375 0.03125,-0.328125 0.15625,-0.796875 C 4.25,-1.890625 4.28125,-2 4.375,-2.40625 L 4.765625,-3.9375 C 4.84375,-4.25 4.84375,-4.265625 4.84375,-4.3125 c 0,-0.1875 -0.125,-0.296875 -0.3125,-0.296875 -0.265625,0 -0.4375,0.25 -0.46875,0.484375 z m -0.703125,2.828125 c -0.0625,0.203125 -0.0625,0.21875 -0.21875,0.40625 C 2.65625,-0.296875 2.21875,-0.125 1.90625,-0.125 c -0.546875,0 -0.703125,-0.59375 -0.703125,-1.015625 0,-0.546875 0.359375,-1.890625 0.609375,-2.390625 0.34375,-0.640625 0.828125,-1.046875 1.265625,-1.046875 0.703125,0 0.859375,0.890625 0.859375,0.953125 0,0.0625 -0.015625,0.140625 -0.03125,0.1875 z m 0,0"
               id="path32" />
          </g>
        </g>
        <g
           style="fill:#000000;fill-opacity:1"
           id="g36">
          <g
             id="g35"
             transform="translate(17.596001,10.174)">
            <path
               style="stroke:none"
               d="m 3.15625,-2.71875 c 0,-0.859375 -0.125,-2.171875 -0.71875,-3.40625 -0.65625,-1.34375 -1.59375,-2.046875 -1.703125,-2.046875 -0.0625,0 -0.109375,0.03125 -0.109375,0.09375 0,0.046875 0,0.0625 0.203125,0.265625 1.0625,1.078125 1.6875,2.8125 1.6875,5.09375 0,1.859375 -0.40625,3.78125 -1.75,5.15625 C 0.625,2.5625 0.625,2.578125 0.625,2.625 c 0,0.0625 0.046875,0.09375 0.109375,0.09375 0.109375,0 1.09375,-0.734375 1.734375,-2.125 0.546875,-1.1875 0.6875,-2.40625 0.6875,-3.3125 z m 0,0"
               id="path34" />
          </g>
        </g>
      </g>
    </g>
    <g
       inkscape:label=""
       transform="translate(66.741598,213.62794)"
       id="g49">
      <g
         id="g48"
         transform="matrix(0.352778,0,0,0.352778,-0.907036,-0.706305)">
        <g
           style="fill:#000000;fill-opacity:1"
           id="g40">
          <g
             id="g39"
             transform="translate(1.993,10.174)">
            <path
               style="stroke:none"
               d="m 4,-4.359375 h 0.9375 c 0.21875,0 0.328125,0 0.328125,-0.21875 0,-0.125 -0.109375,-0.125 -0.296875,-0.125 H 4.0625 L 4.296875,-5.9375 C 4.34375,-6.171875 4.5,-6.953125 4.5625,-7.078125 c 0.09375,-0.203125 0.28125,-0.375 0.515625,-0.375 0.03125,0 0.328125,0 0.53125,0.203125 -0.484375,0.046875 -0.59375,0.421875 -0.59375,0.59375 0,0.25 0.203125,0.375 0.40625,0.375 0.28125,0 0.59375,-0.234375 0.59375,-0.65625 0,-0.5 -0.5,-0.75 -0.9375,-0.75 -0.375,0 -1.0625,0.1875 -1.390625,1.28125 -0.0625,0.21875 -0.09375,0.328125 -0.359375,1.703125 h -0.75 c -0.21875,0 -0.328125,0 -0.328125,0.203125 0,0.140625 0.09375,0.140625 0.296875,0.140625 h 0.71875 l -0.8125,4.3125 C 2.25,1 2.078125,2 1.5,2 1.46875,2 1.1875,2 0.984375,1.796875 c 0.5,-0.03125 0.59375,-0.421875 0.59375,-0.59375 0,-0.25 -0.1875,-0.375 -0.40625,-0.375 -0.28125,0 -0.59375,0.234375 -0.59375,0.65625 0,0.484375 0.484375,0.75 0.921875,0.75 0.609375,0 1.046875,-0.640625 1.234375,-1.0625 0.359375,-0.6875 0.609375,-2 0.609375,-2.078125 z m 0,0"
               id="path38" />
          </g>
        </g>
        <g
           style="fill:#000000;fill-opacity:1"
           id="g42">
          <g
             id="g41"
             transform="translate(8.5080004,10.174)">
            <path
               style="stroke:none"
               d="m 3.609375,2.625 c 0,-0.046875 0,-0.0625 -0.1875,-0.25 C 2.0625,1 1.71875,-1.0625 1.71875,-2.71875 c 0,-1.90625 0.40625,-3.796875 1.75,-5.171875 0.140625,-0.125 0.140625,-0.140625 0.140625,-0.1875 0,-0.0625 -0.046875,-0.09375 -0.109375,-0.09375 -0.109375,0 -1.09375,0.734375 -1.734375,2.125 -0.5625,1.1875 -0.6875,2.40625 -0.6875,3.328125 0,0.84375 0.125,2.15625 0.71875,3.390625 C 2.453125,2.015625 3.390625,2.71875 3.5,2.71875 3.5625,2.71875 3.609375,2.6875 3.609375,2.625 Z m 0,0"
               id="path40" />
          </g>
        </g>
        <g
           style="fill:#000000;fill-opacity:1"
           id="g44">
          <g
             id="g43"
             transform="translate(12.75,10.174)">
            <path
               style="stroke:none"
               d="m 2.609375,-7.453125 c 0,0 0,-0.109375 -0.140625,-0.109375 -0.25,0 -1.046875,0.078125 -1.328125,0.109375 -0.09375,0 -0.21875,0.015625 -0.21875,0.21875 0,0.125 0.109375,0.125 0.265625,0.125 0.53125,0 0.546875,0.078125 0.546875,0.1875 0,0.078125 -0.09375,0.4375 -0.15625,0.671875 L 0.6875,-2.6875 c -0.125,0.53125 -0.171875,0.71875 -0.171875,1.09375 0,1.03125 0.578125,1.71875 1.375,1.71875 1.296875,0 2.640625,-1.625 2.640625,-3.203125 0,-0.984375 -0.578125,-1.75 -1.453125,-1.75 -0.5,0 -0.953125,0.328125 -1.28125,0.65625 z m -1.03125,4.125 c 0.0625,-0.234375 0.0625,-0.265625 0.171875,-0.375 0.53125,-0.71875 1.015625,-0.875 1.296875,-0.875 0.40625,0 0.6875,0.328125 0.6875,1.015625 0,0.65625 -0.359375,1.90625 -0.546875,2.3125 -0.359375,0.734375 -0.859375,1.125 -1.296875,1.125 -0.359375,0 -0.71875,-0.296875 -0.71875,-1.09375 0,-0.203125 0,-0.421875 0.171875,-1.109375 z m 0,0"
               id="path42" />
          </g>
        </g>
        <g
           style="fill:#000000;fill-opacity:1"
           id="g47">
          <g
             id="g46"
             transform="translate(17.431999,10.174)">
            <path
               style="stroke:none"
               d="m 3.15625,-2.71875 c 0,-0.859375 -0.125,-2.171875 -0.71875,-3.40625 -0.65625,-1.34375 -1.59375,-2.046875 -1.703125,-2.046875 -0.0625,0 -0.109375,0.03125 -0.109375,0.09375 0,0.046875 0,0.0625 0.203125,0.265625 1.0625,1.078125 1.6875,2.8125 1.6875,5.09375 0,1.859375 -0.40625,3.78125 -1.75,5.15625 C 0.625,2.5625 0.625,2.578125 0.625,2.625 c 0,0.0625 0.046875,0.09375 0.109375,0.09375 0.109375,0 1.09375,-0.734375 1.734375,-2.125 0.546875,-1.1875 0.6875,-2.40625 0.6875,-3.3125 z m 0,0"
               id="path46" />
          </g>
        </g>
      </g>
    </g>
    <g
       inkscape:label=""
       transform="translate(67.419946,191.6242)"
       id="g59">
      <g
         id="g58"
         transform="matrix(0.352778,0,0,0.352778,-1.2873747,-0.706305)">
        <g
           style="fill:#000000;fill-opacity:1"
           id="g51">
          <g
             id="g50"
             transform="translate(1.993,10.174)">
            <path
               style="stroke:none"
               d="m 5.140625,-4.109375 c 0,-0.0625 0.03125,-0.125 0.03125,-0.203125 0,-0.1875 -0.140625,-0.296875 -0.3125,-0.296875 -0.109375,0 -0.40625,0.078125 -0.453125,0.46875 -0.203125,-0.390625 -0.578125,-0.6875 -1.015625,-0.6875 -1.234375,0 -2.59375,1.53125 -2.59375,3.109375 C 0.796875,-0.640625 1.46875,0 2.25,0 2.890625,0 3.40625,-0.515625 3.515625,-0.625 3.296875,0.34375 3.15625,0.796875 3.15625,0.8125 3.125,0.921875 2.75,2 1.59375,2 1.390625,2 1.03125,1.984375 0.71875,1.890625 1.046875,1.78125 1.171875,1.5 1.171875,1.3125 c 0,-0.171875 -0.125,-0.375 -0.421875,-0.375 -0.234375,0 -0.59375,0.203125 -0.59375,0.640625 0,0.4375 0.40625,0.65625 1.453125,0.65625 1.375,0 2.15625,-0.84375 2.3125,-1.5 z m -1.421875,2.71875 c -0.0625,0.28125 -0.3125,0.546875 -0.5625,0.765625 -0.21875,0.1875 -0.5625,0.390625 -0.875,0.390625 -0.546875,0 -0.703125,-0.578125 -0.703125,-1.015625 0,-0.515625 0.3125,-1.796875 0.609375,-2.359375 0.28125,-0.53125 0.75,-0.96875 1.21875,-0.96875 0.71875,0 0.875,0.875 0.875,0.9375 0,0.046875 -0.03125,0.125 -0.03125,0.15625 z m 0,0"
               id="path49" />
          </g>
        </g>
        <g
           style="fill:#000000;fill-opacity:1"
           id="g53">
          <g
             id="g52"
             transform="translate(7.5869999,10.174)">
            <path
               style="stroke:none"
               d="m 3.609375,2.625 c 0,-0.046875 0,-0.0625 -0.1875,-0.25 C 2.0625,1 1.71875,-1.0625 1.71875,-2.71875 c 0,-1.90625 0.40625,-3.796875 1.75,-5.171875 0.140625,-0.125 0.140625,-0.140625 0.140625,-0.1875 0,-0.0625 -0.046875,-0.09375 -0.109375,-0.09375 -0.109375,0 -1.09375,0.734375 -1.734375,2.125 -0.5625,1.1875 -0.6875,2.40625 -0.6875,3.328125 0,0.84375 0.125,2.15625 0.71875,3.390625 C 2.453125,2.015625 3.390625,2.71875 3.5,2.71875 3.5625,2.71875 3.609375,2.6875 3.609375,2.625 Z m 0,0"
               id="path51" />
          </g>
        </g>
        <g
           style="fill:#000000;fill-opacity:1"
           id="g55">
          <g
             id="g54"
             transform="translate(11.83,10.174)">
            <path
               style="stroke:none"
               d="m 2.609375,-7.453125 c 0,0 0,-0.109375 -0.140625,-0.109375 -0.25,0 -1.046875,0.078125 -1.328125,0.109375 -0.09375,0 -0.21875,0.015625 -0.21875,0.21875 0,0.125 0.109375,0.125 0.265625,0.125 0.53125,0 0.546875,0.078125 0.546875,0.1875 0,0.078125 -0.09375,0.4375 -0.15625,0.671875 L 0.6875,-2.6875 c -0.125,0.53125 -0.171875,0.71875 -0.171875,1.09375 0,1.03125 0.578125,1.71875 1.375,1.71875 1.296875,0 2.640625,-1.625 2.640625,-3.203125 0,-0.984375 -0.578125,-1.75 -1.453125,-1.75 -0.5,0 -0.953125,0.328125 -1.28125,0.65625 z m -1.03125,4.125 c 0.0625,-0.234375 0.0625,-0.265625 0.171875,-0.375 0.53125,-0.71875 1.015625,-0.875 1.296875,-0.875 0.40625,0 0.6875,0.328125 0.6875,1.015625 0,0.65625 -0.359375,1.90625 -0.546875,2.3125 -0.359375,0.734375 -0.859375,1.125 -1.296875,1.125 -0.359375,0 -0.71875,-0.296875 -0.71875,-1.09375 0,-0.203125 0,-0.421875 0.171875,-1.109375 z m 0,0"
               id="path53" />
          </g>
        </g>
        <g
           style="fill:#000000;fill-opacity:1"
           id="g57">
          <g
             id="g56"
             transform="translate(16.511,10.174)">
            <path
               style="stroke:none"
               d="m 3.15625,-2.71875 c 0,-0.859375 -0.125,-2.171875 -0.71875,-3.40625 -0.65625,-1.34375 -1.59375,-2.046875 -1.703125,-2.046875 -0.0625,0 -0.109375,0.03125 -0.109375,0.09375 0,0.046875 0,0.0625 0.203125,0.265625 1.0625,1.078125 1.6875,2.8125 1.6875,5.09375 0,1.859375 -0.40625,3.78125 -1.75,5.15625 C 0.625,2.5625 0.625,2.578125 0.625,2.625 c 0,0.0625 0.046875,0.09375 0.109375,0.09375 0.109375,0 1.09375,-0.734375 1.734375,-2.125 0.546875,-1.1875 0.6875,-2.40625 0.6875,-3.3125 z m 0,0"
               id="path55" />
          </g>
        </g>
      </g>
    </g>
    <g
       inkscape:label=""
       transform="translate(121.22176,233.88747)"
       id="g63">
      <g
         id="g62"
         transform="matrix(0.352778,0,0,0.352778,-0.813329,-0.656475)">
        <g
           style="fill:#000000;fill-opacity:1"
           id="g60">
          <g
             id="use4"
             transform="translate(1.993,6.6890001)">
            <path
               style="stroke:none"
               d="m 3.640625,-3.296875 c 0.0625,-0.28125 0.3125,-1.28125 1.078125,-1.28125 0.0625,0 0.3125,0 0.546875,0.140625 C 4.96875,-4.390625 4.75,-4.109375 4.75,-3.84375 c 0,0.171875 0.109375,0.375 0.40625,0.375 0.25,0 0.59375,-0.203125 0.59375,-0.625 0,-0.578125 -0.640625,-0.734375 -1.015625,-0.734375 -0.640625,0 -1.015625,0.578125 -1.140625,0.84375 -0.28125,-0.734375 -0.875,-0.84375 -1.1875,-0.84375 -1.125,0 -1.75,1.421875 -1.75,1.6875 0,0.109375 0.109375,0.109375 0.125,0.109375 0.09375,0 0.125,-0.015625 0.140625,-0.125 0.375,-1.15625 1.09375,-1.421875 1.46875,-1.421875 0.203125,0 0.59375,0.09375 0.59375,0.734375 0,0.328125 -0.1875,1.0625 -0.59375,2.59375 -0.171875,0.671875 -0.5625,1.125 -1.03125,1.125 -0.078125,0 -0.328125,0 -0.546875,-0.140625 0.265625,-0.046875 0.5,-0.28125 0.5,-0.578125 0,-0.296875 -0.234375,-0.390625 -0.390625,-0.390625 -0.328125,0 -0.609375,0.28125 -0.609375,0.640625 0,0.5 0.546875,0.71875 1.03125,0.71875 0.71875,0 1.109375,-0.765625 1.140625,-0.828125 C 2.625,-0.3125 3.015625,0.125 3.671875,0.125 c 1.109375,0 1.734375,-1.40625 1.734375,-1.6875 0,-0.109375 -0.09375,-0.109375 -0.125,-0.109375 -0.09375,0 -0.125,0.046875 -0.140625,0.125 C 4.78125,-0.375 4.03125,-0.125 3.6875,-0.125 c -0.421875,0 -0.59375,-0.34375 -0.59375,-0.71875 0,-0.234375 0.0625,-0.46875 0.171875,-0.953125 z m 0,0"
               id="path59" />
          </g>
        </g>
        <g
           style="fill:#000000;fill-opacity:1"
           id="g61">
          <g
             id="use5"
             transform="translate(8.2270002,8.3249998)">
            <path
               style="stroke:none"
               d="m 3.890625,-2.546875 c 0,-0.84375 -0.078125,-1.359375 -0.34375,-1.875 -0.34375,-0.703125 -1,-0.875 -1.4375,-0.875 -1,0 -1.375,0.75 -1.484375,0.96875 -0.28125,0.578125 -0.296875,1.375 -0.296875,1.78125 0,0.53125 0.015625,1.328125 0.40625,1.96875 0.359375,0.59375 0.953125,0.75 1.375,0.75 0.390625,0 1.0625,-0.125 1.46875,-0.90625 0.296875,-0.578125 0.3125,-1.296875 0.3125,-1.8125 z M 2.109375,-0.0625 C 1.84375,-0.0625 1.296875,-0.1875 1.125,-1.015625 1.03125,-1.46875 1.03125,-2.21875 1.03125,-2.640625 1.03125,-3.1875 1.03125,-3.75 1.125,-4.1875 1.296875,-5 1.90625,-5.078125 2.109375,-5.078125 c 0.265625,0 0.828125,0.140625 0.984375,0.859375 0.09375,0.4375 0.09375,1.046875 0.09375,1.578125 0,0.46875 0,1.1875 -0.09375,1.640625 -0.171875,0.828125 -0.71875,0.9375 -0.984375,0.9375 z m 0,0"
               id="path60" />
          </g>
        </g>
      </g>
    </g>
    <g
       inkscape:label=""
       transform="matrix(0.74548133,0,0,0.82714527,74.609504,238.77657)"
       id="g72">
      <g
         id="g71"
         transform="matrix(0.352778,0,0,0.352778,-0.907036,-0.706305)">
        <g
           style="fill:#000000;fill-opacity:1"
           id="g65">
          <g
             id="g64"
             transform="translate(1.993,10.174)">
            <path
               style="stroke:none"
               d="m 4,-4.359375 h 0.9375 c 0.21875,0 0.328125,0 0.328125,-0.21875 0,-0.125 -0.109375,-0.125 -0.296875,-0.125 H 4.0625 L 4.296875,-5.9375 C 4.34375,-6.171875 4.5,-6.953125 4.5625,-7.078125 c 0.09375,-0.203125 0.28125,-0.375 0.515625,-0.375 0.03125,0 0.328125,0 0.53125,0.203125 -0.484375,0.046875 -0.59375,0.421875 -0.59375,0.59375 0,0.25 0.203125,0.375 0.40625,0.375 0.28125,0 0.59375,-0.234375 0.59375,-0.65625 0,-0.5 -0.5,-0.75 -0.9375,-0.75 -0.375,0 -1.0625,0.1875 -1.390625,1.28125 -0.0625,0.21875 -0.09375,0.328125 -0.359375,1.703125 h -0.75 c -0.21875,0 -0.328125,0 -0.328125,0.203125 0,0.140625 0.09375,0.140625 0.296875,0.140625 h 0.71875 l -0.8125,4.3125 C 2.25,1 2.078125,2 1.5,2 1.46875,2 1.1875,2 0.984375,1.796875 c 0.5,-0.03125 0.59375,-0.421875 0.59375,-0.59375 0,-0.25 -0.1875,-0.375 -0.40625,-0.375 -0.28125,0 -0.59375,0.234375 -0.59375,0.65625 0,0.484375 0.484375,0.75 0.921875,0.75 0.609375,0 1.046875,-0.640625 1.234375,-1.0625 0.359375,-0.6875 0.609375,-2 0.609375,-2.078125 z m 0,0"
               id="path63" />
          </g>
        </g>
        <g
           style="fill:#000000;fill-opacity:1"
           id="g67">
          <g
             id="g66"
             transform="translate(8.5080004,10.174)">
            <path
               style="stroke:none"
               d="m 3.609375,2.625 c 0,-0.046875 0,-0.0625 -0.1875,-0.25 C 2.0625,1 1.71875,-1.0625 1.71875,-2.71875 c 0,-1.90625 0.40625,-3.796875 1.75,-5.171875 0.140625,-0.125 0.140625,-0.140625 0.140625,-0.1875 0,-0.0625 -0.046875,-0.09375 -0.109375,-0.09375 -0.109375,0 -1.09375,0.734375 -1.734375,2.125 -0.5625,1.1875 -0.6875,2.40625 -0.6875,3.328125 0,0.84375 0.125,2.15625 0.71875,3.390625 C 2.453125,2.015625 3.390625,2.71875 3.5,2.71875 3.5625,2.71875 3.609375,2.6875 3.609375,2.625 Z m 0,0"
               id="path65" />
          </g>
        </g>
        <g
           style="fill:#000000;fill-opacity:1"
           id="g68">
          <g
             id="use10"
             transform="translate(12.75,10.174)">
            <path
               style="stroke:none"
               d="m 3.640625,-3.296875 c 0.0625,-0.28125 0.3125,-1.28125 1.078125,-1.28125 0.0625,0 0.3125,0 0.546875,0.140625 C 4.96875,-4.390625 4.75,-4.109375 4.75,-3.84375 c 0,0.171875 0.109375,0.375 0.40625,0.375 0.25,0 0.59375,-0.203125 0.59375,-0.625 0,-0.578125 -0.640625,-0.734375 -1.015625,-0.734375 -0.640625,0 -1.015625,0.578125 -1.140625,0.84375 -0.28125,-0.734375 -0.875,-0.84375 -1.1875,-0.84375 -1.125,0 -1.75,1.421875 -1.75,1.6875 0,0.109375 0.109375,0.109375 0.125,0.109375 0.09375,0 0.125,-0.015625 0.140625,-0.125 0.375,-1.15625 1.09375,-1.421875 1.46875,-1.421875 0.203125,0 0.59375,0.09375 0.59375,0.734375 0,0.328125 -0.1875,1.0625 -0.59375,2.59375 -0.171875,0.671875 -0.5625,1.125 -1.03125,1.125 -0.078125,0 -0.328125,0 -0.546875,-0.140625 0.265625,-0.046875 0.5,-0.28125 0.5,-0.578125 0,-0.296875 -0.234375,-0.390625 -0.390625,-0.390625 -0.328125,0 -0.609375,0.28125 -0.609375,0.640625 0,0.5 0.546875,0.71875 1.03125,0.71875 0.71875,0 1.109375,-0.765625 1.140625,-0.828125 C 2.625,-0.3125 3.015625,0.125 3.671875,0.125 c 1.109375,0 1.734375,-1.40625 1.734375,-1.6875 0,-0.109375 -0.09375,-0.109375 -0.125,-0.109375 -0.09375,0 -0.125,0.046875 -0.140625,0.125 C 4.78125,-0.375 4.03125,-0.125 3.6875,-0.125 c -0.421875,0 -0.59375,-0.34375 -0.59375,-0.71875 0,-0.234375 0.0625,-0.46875 0.171875,-0.953125 z m 0,0"
               id="path15" />
          </g>
        </g>
        <g
           style="fill:#000000;fill-opacity:1"
           id="g69">
          <g
             id="use11"
             transform="translate(18.985001,11.811)">
            <path
               style="stroke:none"
               d="m 3.890625,-2.546875 c 0,-0.84375 -0.078125,-1.359375 -0.34375,-1.875 -0.34375,-0.703125 -1,-0.875 -1.4375,-0.875 -1,0 -1.375,0.75 -1.484375,0.96875 -0.28125,0.578125 -0.296875,1.375 -0.296875,1.78125 0,0.53125 0.015625,1.328125 0.40625,1.96875 0.359375,0.59375 0.953125,0.75 1.375,0.75 0.390625,0 1.0625,-0.125 1.46875,-0.90625 0.296875,-0.578125 0.3125,-1.296875 0.3125,-1.8125 z M 2.109375,-0.0625 C 1.84375,-0.0625 1.296875,-0.1875 1.125,-1.015625 1.03125,-1.46875 1.03125,-2.21875 1.03125,-2.640625 1.03125,-3.1875 1.03125,-3.75 1.125,-4.1875 1.296875,-5 1.90625,-5.078125 2.109375,-5.078125 c 0.265625,0 0.828125,0.140625 0.984375,0.859375 0.09375,0.4375 0.09375,1.046875 0.09375,1.578125 0,0.46875 0,1.1875 -0.09375,1.640625 -0.171875,0.828125 -0.71875,0.9375 -0.984375,0.9375 z m 0,0"
               id="path16" />
          </g>
        </g>
        <g
           style="fill:#000000;fill-opacity:1"
           id="g70">
          <g
             id="use12"
             transform="translate(23.716999,10.174)">
            <path
               style="stroke:none"
               d="m 3.15625,-2.71875 c 0,-0.859375 -0.125,-2.171875 -0.71875,-3.40625 -0.65625,-1.34375 -1.59375,-2.046875 -1.703125,-2.046875 -0.0625,0 -0.109375,0.03125 -0.109375,0.09375 0,0.046875 0,0.0625 0.203125,0.265625 1.0625,1.078125 1.6875,2.8125 1.6875,5.09375 0,1.859375 -0.40625,3.78125 -1.75,5.15625 C 0.625,2.5625 0.625,2.578125 0.625,2.625 c 0,0.0625 0.046875,0.09375 0.109375,0.09375 0.109375,0 1.09375,-0.734375 1.734375,-2.125 0.546875,-1.1875 0.6875,-2.40625 0.6875,-3.3125 z m 0,0"
               id="path17" />
          </g>
        </g>
      </g>
    </g>
    <g
       inkscape:label=""
       transform="matrix(0.77404806,0,0,0.72837114,66.840789,239.07748)"
       id="g84">
      <g
         id="g83"
         transform="matrix(0.352778,0,0,0.352778,-0.758208,-0.706305)">
        <g
           style="fill:#000000;fill-opacity:1"
           id="g74">
          <g
             id="g73"
             transform="translate(1.993,10.174)">
            <path
               style="stroke:none"
               d="m 5.140625,-4.109375 c 0,-0.0625 0.03125,-0.125 0.03125,-0.203125 0,-0.1875 -0.140625,-0.296875 -0.3125,-0.296875 -0.109375,0 -0.40625,0.078125 -0.453125,0.46875 -0.203125,-0.390625 -0.578125,-0.6875 -1.015625,-0.6875 -1.234375,0 -2.59375,1.53125 -2.59375,3.109375 C 0.796875,-0.640625 1.46875,0 2.25,0 2.890625,0 3.40625,-0.515625 3.515625,-0.625 3.296875,0.34375 3.15625,0.796875 3.15625,0.8125 3.125,0.921875 2.75,2 1.59375,2 1.390625,2 1.03125,1.984375 0.71875,1.890625 1.046875,1.78125 1.171875,1.5 1.171875,1.3125 c 0,-0.171875 -0.125,-0.375 -0.421875,-0.375 -0.234375,0 -0.59375,0.203125 -0.59375,0.640625 0,0.4375 0.40625,0.65625 1.453125,0.65625 1.375,0 2.15625,-0.84375 2.3125,-1.5 z m -1.421875,2.71875 c -0.0625,0.28125 -0.3125,0.546875 -0.5625,0.765625 -0.21875,0.1875 -0.5625,0.390625 -0.875,0.390625 -0.546875,0 -0.703125,-0.578125 -0.703125,-1.015625 0,-0.515625 0.3125,-1.796875 0.609375,-2.359375 0.28125,-0.53125 0.75,-0.96875 1.21875,-0.96875 0.71875,0 0.875,0.875 0.875,0.9375 0,0.046875 -0.03125,0.125 -0.03125,0.15625 z m 0,0"
               id="path72" />
          </g>
        </g>
        <g
           style="fill:#000000;fill-opacity:1"
           id="g76">
          <g
             id="g75"
             transform="translate(7.5869999,10.174)">
            <path
               style="stroke:none"
               d="m 3.609375,2.625 c 0,-0.046875 0,-0.0625 -0.1875,-0.25 C 2.0625,1 1.71875,-1.0625 1.71875,-2.71875 c 0,-1.90625 0.40625,-3.796875 1.75,-5.171875 0.140625,-0.125 0.140625,-0.140625 0.140625,-0.1875 0,-0.0625 -0.046875,-0.09375 -0.109375,-0.09375 -0.109375,0 -1.09375,0.734375 -1.734375,2.125 -0.5625,1.1875 -0.6875,2.40625 -0.6875,3.328125 0,0.84375 0.125,2.15625 0.71875,3.390625 C 2.453125,2.015625 3.390625,2.71875 3.5,2.71875 3.5625,2.71875 3.609375,2.6875 3.609375,2.625 Z m 0,0"
               id="path74" />
          </g>
        </g>
        <g
           style="fill:#000000;fill-opacity:1"
           id="g78">
          <g
             id="g77"
             transform="translate(11.83,10.174)">
            <path
               style="stroke:none"
               d="m 3.640625,-3.296875 c 0.0625,-0.28125 0.3125,-1.28125 1.078125,-1.28125 0.0625,0 0.3125,0 0.546875,0.140625 C 4.96875,-4.390625 4.75,-4.109375 4.75,-3.84375 c 0,0.171875 0.109375,0.375 0.40625,0.375 0.25,0 0.59375,-0.203125 0.59375,-0.625 0,-0.578125 -0.640625,-0.734375 -1.015625,-0.734375 -0.640625,0 -1.015625,0.578125 -1.140625,0.84375 -0.28125,-0.734375 -0.875,-0.84375 -1.1875,-0.84375 -1.125,0 -1.75,1.421875 -1.75,1.6875 0,0.109375 0.109375,0.109375 0.125,0.109375 0.09375,0 0.125,-0.015625 0.140625,-0.125 0.375,-1.15625 1.09375,-1.421875 1.46875,-1.421875 0.203125,0 0.59375,0.09375 0.59375,0.734375 0,0.328125 -0.1875,1.0625 -0.59375,2.59375 -0.171875,0.671875 -0.5625,1.125 -1.03125,1.125 -0.078125,0 -0.328125,0 -0.546875,-0.140625 0.265625,-0.046875 0.5,-0.28125 0.5,-0.578125 0,-0.296875 -0.234375,-0.390625 -0.390625,-0.390625 -0.328125,0 -0.609375,0.28125 -0.609375,0.640625 0,0.5 0.546875,0.71875 1.03125,0.71875 0.71875,0 1.109375,-0.765625 1.140625,-0.828125 C 2.625,-0.3125 3.015625,0.125 3.671875,0.125 c 1.109375,0 1.734375,-1.40625 1.734375,-1.6875 0,-0.109375 -0.09375,-0.109375 -0.125,-0.109375 -0.09375,0 -0.125,0.046875 -0.140625,0.125 C 4.78125,-0.375 4.03125,-0.125 3.6875,-0.125 c -0.421875,0 -0.59375,-0.34375 -0.59375,-0.71875 0,-0.234375 0.0625,-0.46875 0.171875,-0.953125 z m 0,0"
               id="path76" />
          </g>
        </g>
        <g
           style="fill:#000000;fill-opacity:1"
           id="g80">
          <g
             id="g79"
             transform="translate(18.063999,11.811)">
            <path
               style="stroke:none"
               d="m 3.890625,-2.546875 c 0,-0.84375 -0.078125,-1.359375 -0.34375,-1.875 -0.34375,-0.703125 -1,-0.875 -1.4375,-0.875 -1,0 -1.375,0.75 -1.484375,0.96875 -0.28125,0.578125 -0.296875,1.375 -0.296875,1.78125 0,0.53125 0.015625,1.328125 0.40625,1.96875 0.359375,0.59375 0.953125,0.75 1.375,0.75 0.390625,0 1.0625,-0.125 1.46875,-0.90625 0.296875,-0.578125 0.3125,-1.296875 0.3125,-1.8125 z M 2.109375,-0.0625 C 1.84375,-0.0625 1.296875,-0.1875 1.125,-1.015625 1.03125,-1.46875 1.03125,-2.21875 1.03125,-2.640625 1.03125,-3.1875 1.03125,-3.75 1.125,-4.1875 1.296875,-5 1.90625,-5.078125 2.109375,-5.078125 c 0.265625,0 0.828125,0.140625 0.984375,0.859375 0.09375,0.4375 0.09375,1.046875 0.09375,1.578125 0,0.46875 0,1.1875 -0.09375,1.640625 -0.171875,0.828125 -0.71875,0.9375 -0.984375,0.9375 z m 0,0"
               id="path78" />
          </g>
        </g>
        <g
           style="fill:#000000;fill-opacity:1"
           id="g82">
          <g
             id="g81"
             transform="translate(22.797001,10.174)">
            <path
               style="stroke:none"
               d="m 3.15625,-2.71875 c 0,-0.859375 -0.125,-2.171875 -0.71875,-3.40625 -0.65625,-1.34375 -1.59375,-2.046875 -1.703125,-2.046875 -0.0625,0 -0.109375,0.03125 -0.109375,0.09375 0,0.046875 0,0.0625 0.203125,0.265625 1.0625,1.078125 1.6875,2.8125 1.6875,5.09375 0,1.859375 -0.40625,3.78125 -1.75,5.15625 C 0.625,2.5625 0.625,2.578125 0.625,2.625 c 0,0.0625 0.046875,0.09375 0.109375,0.09375 0.109375,0 1.09375,-0.734375 1.734375,-2.125 0.546875,-1.1875 0.6875,-2.40625 0.6875,-3.3125 z m 0,0"
               id="path80" />
          </g>
        </g>
      </g>
    </g>
    <path
       style="fill:#ff0000;fill-opacity:1;stroke:#000000;stroke-width:0.275;stroke-dasharray:none;stroke-dashoffset:0;stroke-opacity:1"
       d="m 97.338552,236.57955 c 0,1.61282 0,1.56539 0,1.56539"
       id="path84" />
    <path
       style="fill:#ff0000;fill-opacity:1;stroke:#000000;stroke-width:0.275;stroke-dasharray:none;stroke-dashoffset:0;stroke-opacity:1"
       d="m 121.03655,236.45849 c 0,1.61282 0,1.56539 0,1.56539"
       id="path84-5" />
    <path
       style="fill:#ff0000;fill-opacity:1;stroke:#000000;stroke-width:0.275;stroke-dasharray:none;stroke-dashoffset:0;stroke-opacity:1"
       d="m 155.58831,236.43846 c 0,1.61282 0,1.56539 0,1.56539"
       id="path84-5-2" />
    <path
       style="fill:#ff0000;fill-opacity:1;stroke:#000000;stroke-width:0.275;stroke-dasharray:none;stroke-dashoffset:0;stroke-opacity:1"
       d="m 73.574983,193.70405 h 1.140436"
       id="path85" />
    <path
       style="fill:#ff0000;fill-opacity:1;stroke:#000000;stroke-width:0.275;stroke-dasharray:none;stroke-dashoffset:0;stroke-opacity:1"
       d="m 73.567182,215.61948 h 1.140436"
       id="path85-6" />
    <path
       style="fill:#ff0000;fill-opacity:1;stroke:#000000;stroke-width:0.275;stroke-dasharray:none;stroke-dashoffset:0;stroke-opacity:1"
       d="M 73.520624,242.26228 H 74.66106"
       id="path85-61" />
    <path
       style="fill:#ff0000;fill-opacity:1;stroke:#000000;stroke-width:0.275;stroke-dasharray:none;stroke-dashoffset:0;stroke-opacity:1"
       d="m 73.554166,259.15833 h 1.140436"
       id="path85-7" />
    <path
       style="fill:#ff0000;fill-opacity:1;stroke:#000000;stroke-width:0.275;stroke-dasharray:none;stroke-dashoffset:0;stroke-opacity:1"
       d="m 73.487081,270.10312 h 1.140436"
       id="path85-2" />
    <path
       style="display:inline;fill:#000000;fill-opacity:0.996536;stroke:#000000;stroke-width:0.172733;stroke-dasharray:0.690936, 0.690936;stroke-dashoffset:0;stroke-opacity:1"
       d="m 74.429101,242.24389 47.000009,0.0587"
       id="path4-9" />
    <path
       style="display:inline;fill:#000000;fill-opacity:0.996536;stroke:#000000;stroke-width:0.118169;stroke-dasharray:0.472678, 0.472678;stroke-dashoffset:0;stroke-opacity:1"
       d="m 75.002071,270.05659 21.789362,0.0593"
       id="path4-9-3" />
    <path
       style="display:inline;fill:#000000;fill-opacity:0.996536;stroke:#000000;stroke-width:0.117265;stroke-dasharray:0.469062, 0.469062;stroke-dashoffset:0;stroke-opacity:1"
       d="m 74.920584,259.24003 21.453923,0.0593"
       id="path4-9-5" />
    <path
       style="display:inline;fill:#000000;fill-opacity:0.996536;stroke:#000000;stroke-width:0.224367;stroke-dasharray:0.897471, 0.897471;stroke-dashoffset:0;stroke-opacity:1"
       d="m 74.238778,193.69575 80.018152,0.0582"
       id="path4-9-2" />
    <path
       style="display:inline;fill:#000000;fill-opacity:0.996536;stroke:#000000;stroke-width:0.222533;stroke-dasharray:0.890135, 0.890135;stroke-dashoffset:0;stroke-opacity:1"
       d="m 75.797644,215.5488 78.689816,0.0582"
       id="path4-9-8" />
    <path
       style="display:inline;fill:#000000;fill-opacity:0.996536;stroke:#000000;stroke-width:0.115112;stroke-dasharray:0.460446, 0.460446;stroke-dashoffset:0;stroke-opacity:1"
       d="m 121.03181,237.47146 v 4.86118"
       id="path6-5-1" />
  </g>
</svg>
