<?xml version="1.0" encoding="UTF-8" standalone="no"?>
<!-- Created with Inkscape (http://www.inkscape.org/) -->

<svg
   width="240mm"
   height="120mm"
   viewBox="0 0 240 120"
   version="1.1"
   id="svg8"
   inkscape:version="1.3 (0e150ed6c4, 2023-07-21)"
   sodipodi:docname="zeri_func.svg"
   inkscape:export-filename="w_sottospazio_vettoriale.pdf"
   inkscape:export-xdpi="96"
   inkscape:export-ydpi="96"
   xmlns:inkscape="http://www.inkscape.org/namespaces/inkscape"
   xmlns:sodipodi="http://sodipodi.sourceforge.net/DTD/sodipodi-0.dtd"
   xmlns="http://www.w3.org/2000/svg"
   xmlns:svg="http://www.w3.org/2000/svg"
   xmlns:rdf="http://www.w3.org/1999/02/22-rdf-syntax-ns#"
   xmlns:cc="http://creativecommons.org/ns#"
   xmlns:dc="http://purl.org/dc/elements/1.1/">
  <sodipodi:namedview
     id="base"
     pagecolor="#ffffff"
     bordercolor="#666666"
     borderopacity="1.0"
     inkscape:pageopacity="0.0"
     inkscape:pageshadow="2"
     inkscape:zoom="0.9860069"
     inkscape:cx="576.56797"
     inkscape:cy="289.04463"
     inkscape:document-units="mm"
     inkscape:current-layer="layer1"
     showgrid="false"
     showborder="true"
     width="200mm"
     showguides="true"
     inkscape:guide-bbox="true"
     inkscape:window-width="1920"
     inkscape:window-height="1011"
     inkscape:window-x="0"
     inkscape:window-y="0"
     inkscape:window-maximized="1"
     inkscape:showpageshadow="0"
     inkscape:pagecheckerboard="0"
     inkscape:deskcolor="#505050"
     inkscape:connector-spacing="0">
    <inkscape:grid
       type="xygrid"
       id="grid815"
       units="mm"
       spacingx="10"
       spacingy="10"
       empspacing="4"
       dotted="false"
       originx="0"
       originy="0"
       visible="false" />
  </sodipodi:namedview>
  <defs
     id="defs2">
    <marker
       style="overflow:visible"
       id="marker45"
       refX="0"
       refY="0"
       orient="auto-start-reverse"
       inkscape:stockid="Wide arrow"
       markerWidth="1"
       markerHeight="1"
       viewBox="0 0 1 1"
       inkscape:isstock="true"
       inkscape:collect="always"
       preserveAspectRatio="xMidYMid">
      <path
         style="fill:none;stroke:context-stroke;stroke-width:1;stroke-linecap:butt"
         d="M 3,-3 0,0 3,3"
         transform="rotate(180,0.125,0)"
         sodipodi:nodetypes="ccc"
         id="path45" />
    </marker>
    <inkscape:path-effect
       effect="construct_grid"
       id="path-effect43"
       is_visible="true"
       lpeversion="1"
       nr_x="10"
       nr_y="10" />
    <inkscape:perspective
       sodipodi:type="inkscape:persp3d"
       inkscape:vp_x="0 : 60 : 1"
       inkscape:vp_y="0 : 1000 : 0"
       inkscape:vp_z="240 : 60 : 1"
       inkscape:persp3d-origin="120 : 40 : 1"
       id="perspective27" />
    <linearGradient
       id="swatch16"
       inkscape:swatch="solid">
      <stop
         style="stop-color:#1a1a1a;stop-opacity:1;"
         offset="0"
         id="stop16" />
    </linearGradient>
  </defs>
  <metadata
     id="metadata5">
    <rdf:RDF>
      <cc:Work
         rdf:about="">
        <dc:format>image/svg+xml</dc:format>
        <dc:type
           rdf:resource="http://purl.org/dc/dcmitype/StillImage" />
      </cc:Work>
    </rdf:RDF>
  </metadata>
  <g
     inkscape:label="Layer 1"
     inkscape:groupmode="layer"
     id="layer1"
     transform="translate(0, -177)">
    <path
       style="fill:#7a7a7a;fill-opacity:0.889202;stroke:#000000;stroke-width:0.735155;stroke-linecap:butt;stroke-linejoin:bevel;stroke-dasharray:2.20546, 2.20546;stroke-dashoffset:0;stroke-opacity:0.999243"
       id="rect43"
       width="141.36426"
       height="81.748222"
       x="32.736721"
       y="197.95432"
       sodipodi:type="rect"
       transform="matrix(0.08228217,0,0,0.13332711,164.43476,156.5205)"
       d="M 174.10098,197.95432 H -1239.5416 M 174.10098,279.70254 H -1239.5416 M 174.10098,361.45076 H -1239.5416 M 174.10098,443.19898 H -1239.5416 M 174.10098,524.9472 H -1239.5416 M 174.10098,606.69543 H -1239.5416 M 174.10098,688.44365 H -1239.5416 M 174.10098,770.19187 H -1239.5416 M 174.10098,851.94009 H -1239.5416 M 174.10098,933.68832 H -1239.5416 M 174.10098,1015.4365 H -1239.5416 M 174.10098,197.95432 V 1015.4365 M 32.736721,197.95432 V 1015.4365 M -108.62754,197.95432 V 1015.4365 M -249.99179,197.95432 V 1015.4365 M -391.35605,197.95432 V 1015.4365 M -532.72031,197.95432 V 1015.4365 M -674.08457,197.95432 V 1015.4365 M -815.44883,197.95432 V 1015.4365 M -956.81308,197.95432 V 1015.4365 M -1098.1773,197.95432 v 817.48218 m -141.3643,-817.48218 v 817.48218"
       inkscape:path-effect="#path-effect43" />
    <path
       style="fill:none;fill-rule:evenodd;stroke:#000000;stroke-width:0.264583px;stroke-linecap:butt;stroke-linejoin:miter;stroke-opacity:1;marker-end:url(#marker45)"
       d="m 62.67729,237.52584 115.70444,-0.25905"
       id="path44"
       inkscape:connector-type="polyline"
       inkscape:connector-curvature="0" />
    <path
       style="fill:#00c2ff;fill-opacity:0;stroke:#00c2ff;stroke-width:0.387;stroke-opacity:1;stroke-dasharray:none"
       d="m 74.133219,277.17952 c 10.080878,-20.16176 11.258159,-16.40519 24.68077,-21.55222 8.519641,-3.26693 5.909491,-32.32834 12.166581,-42.40922 6.2571,-10.08088 14.94751,10.08088 23.63792,15.29513 8.69042,5.21425 11.81896,3.12855 19.81414,-0.69523 7.99518,-3.82378 12.86182,-22.94344 12.86182,-22.94344"
       id="path1"
       sodipodi:nodetypes="cssssc" />
    <circle
       style="fill:#00c2ff;fill-opacity:1;stroke:#00c2ff;stroke-width:0.409741;stroke-opacity:1"
       id="path14"
       cx="73.994965"
       cy="277.40964"
       r="0.93066382" />
    <circle
       style="fill:#00c2ff;fill-opacity:1;stroke:#00c2ff;stroke-width:0.409741;stroke-opacity:1"
       id="path14-2"
       cx="105.76885"
       cy="237.29807"
       r="0.93066382" />
    <circle
       style="fill:#00c2ff;fill-opacity:1;stroke:#00c2ff;stroke-width:0.409741;stroke-opacity:1"
       id="path14-3"
       cx="167.147"
       cy="204.67583"
       r="0.93066382" />
    <path
       style="fill:#00c2ff;fill-opacity:0;stroke:#000001;stroke-width:0.230955;stroke-dasharray:none;stroke-dashoffset:0;stroke-opacity:1"
       d="m 74.105158,236.97079 v 0.99857"
       id="path3" />
    <path
       style="fill:#00c2ff;fill-opacity:0;stroke:#000001;stroke-width:0.230955;stroke-dasharray:none;stroke-dashoffset:0;stroke-opacity:1"
       d="m 167.17382,236.76104 v 0.99857"
       id="path3-6" />
    <g
       inkscape:label=""
       transform="translate(103.10772,234.94946)"
       id="g4">
      <g
         id="surface2"
         transform="matrix(0.352778,0,0,0.352778,-0.846402,-0.661723)">
        <g
           style="fill:#000000;fill-opacity:1"
           id="g3">
          <g
             id="use2"
             transform="translate(1.993,6.2820001)">
            <path
               style="stroke:none"
               d="m 3.953125,-3.78125 c -0.171875,0 -0.296875,0 -0.4375,0.125 -0.171875,0.15625 -0.1875,0.328125 -0.1875,0.390625 0,0.25 0.1875,0.359375 0.375,0.359375 0.28125,0 0.546875,-0.25 0.546875,-0.640625 0,-0.484375 -0.46875,-0.859375 -1.171875,-0.859375 -1.34375,0 -2.671875,1.421875 -2.671875,2.828125 0,0.90625 0.578125,1.6875 1.625,1.6875 1.421875,0 2.25,-1.0625 2.25,-1.171875 0,-0.0625 -0.046875,-0.140625 -0.109375,-0.140625 -0.0625,0 -0.078125,0.03125 -0.140625,0.109375 -0.78125,0.984375 -1.875,0.984375 -1.984375,0.984375 -0.625,0 -0.90625,-0.484375 -0.90625,-1.09375 0,-0.40625 0.203125,-1.375 0.546875,-1.984375 0.3125,-0.578125 0.859375,-1 1.40625,-1 0.328125,0 0.71875,0.125 0.859375,0.40625 z m 0,0"
               id="path4" />
          </g>
        </g>
      </g>
    </g>
    <g
       inkscape:label=""
       transform="translate(74.285811,235.14841)"
       id="g8">
      <g
         id="g7"
         transform="matrix(0.352778,0,0,0.352778,-0.846402,-0.661723)">
        <g
           style="fill:#000000;fill-opacity:1"
           id="g6">
          <g
             id="g5"
             transform="translate(1.993,6.2820001)">
            <path
               style="stroke:none"
               d="M 3.71875,-3.765625 C 3.53125,-4.140625 3.25,-4.40625 2.796875,-4.40625 c -1.15625,0 -2.390625,1.46875 -2.390625,2.921875 0,0.9375 0.546875,1.59375 1.3125,1.59375 0.203125,0 0.703125,-0.046875 1.296875,-0.75 0.078125,0.421875 0.4375,0.75 0.90625,0.75 0.359375,0 0.578125,-0.234375 0.75,-0.546875 0.15625,-0.359375 0.296875,-0.96875 0.296875,-0.984375 0,-0.109375 -0.09375,-0.109375 -0.125,-0.109375 -0.09375,0 -0.109375,0.046875 -0.140625,0.1875 -0.171875,0.640625 -0.34375,1.234375 -0.75,1.234375 -0.28125,0 -0.296875,-0.265625 -0.296875,-0.453125 0,-0.21875 0.015625,-0.3125 0.125,-0.75 C 3.890625,-1.71875 3.90625,-1.828125 4,-2.203125 L 4.359375,-3.59375 c 0.0625,-0.28125 0.0625,-0.296875 0.0625,-0.34375 0,-0.171875 -0.109375,-0.265625 -0.28125,-0.265625 -0.25,0 -0.390625,0.21875 -0.421875,0.4375 z M 3.078125,-1.1875 C 3.015625,-1 3.015625,-0.984375 2.875,-0.8125 2.4375,-0.265625 2.03125,-0.109375 1.75,-0.109375 c -0.5,0 -0.640625,-0.546875 -0.640625,-0.9375 0,-0.5 0.3125,-1.71875 0.546875,-2.1875 0.3125,-0.578125 0.75,-0.953125 1.15625,-0.953125 0.640625,0 0.78125,0.8125 0.78125,0.875 0,0.0625 -0.015625,0.125 -0.03125,0.171875 z m 0,0"
               id="path5" />
          </g>
        </g>
      </g>
    </g>
    <g
       inkscape:label=""
       transform="translate(167.88893,234.25039)"
       id="g12">
      <g
         id="g11"
         transform="matrix(0.352778,0,0,0.352778,-0.868451,-0.701719)">
        <g
           style="fill:#000000;fill-opacity:1"
           id="g10">
          <g
             id="g9"
             transform="translate(1.993,8.9110003)">
            <path
               style="stroke:none"
               d="m 2.375,-6.8125 c 0,0 0,-0.109375 -0.125,-0.109375 -0.21875,0 -0.953125,0.078125 -1.21875,0.109375 -0.078125,0 -0.1875,0.015625 -0.1875,0.1875 0,0.125 0.09375,0.125 0.25,0.125 0.46875,0 0.484375,0.0625 0.484375,0.171875 0,0.0625 -0.078125,0.40625 -0.125,0.609375 l -0.828125,3.25 c -0.109375,0.5 -0.15625,0.671875 -0.15625,1.015625 0,0.9375 0.53125,1.5625 1.265625,1.5625 1.171875,0 2.40625,-1.484375 2.40625,-2.921875 0,-0.90625 -0.53125,-1.59375 -1.328125,-1.59375 -0.453125,0 -0.875,0.296875 -1.171875,0.59375 z M 1.453125,-3.046875 C 1.5,-3.265625 1.5,-3.28125 1.59375,-3.390625 2.078125,-4.03125 2.53125,-4.1875 2.796875,-4.1875 c 0.359375,0 0.625,0.296875 0.625,0.9375 0,0.59375 -0.328125,1.734375 -0.515625,2.109375 -0.328125,0.671875 -0.78125,1.03125 -1.171875,1.03125 -0.34375,0 -0.671875,-0.265625 -0.671875,-1 0,-0.203125 0,-0.390625 0.15625,-1.015625 z m 0,0"
               id="path8" />
          </g>
        </g>
      </g>
    </g>
    <g
       inkscape:label=""
       transform="translate(121.24055,208.9106)"
       id="g16">
      <g
         id="g15"
         transform="matrix(0.352778,0,0,0.352778,-0.890499,-0.663134)">
        <g
           style="fill:#000000;fill-opacity:1"
           id="g14">
          <g
             id="g13"
             transform="translate(1.993,8.9110003)">
            <path
               style="stroke:none"
               d="m 3.65625,-3.984375 h 0.859375 c 0.203125,0 0.296875,0 0.296875,-0.203125 0,-0.109375 -0.09375,-0.109375 -0.265625,-0.109375 H 3.71875 L 3.921875,-5.4375 c 0.046875,-0.203125 0.1875,-0.90625 0.25,-1.03125 0.078125,-0.1875 0.25,-0.34375 0.46875,-0.34375 0.03125,0 0.296875,0 0.484375,0.1875 -0.4375,0.03125 -0.546875,0.390625 -0.546875,0.53125 0,0.234375 0.1875,0.359375 0.375,0.359375 C 5.21875,-5.734375 5.5,-5.96875 5.5,-6.34375 c 0,-0.453125 -0.453125,-0.6875 -0.859375,-0.6875 -0.34375,0 -0.96875,0.1875 -1.265625,1.171875 -0.0625,0.203125 -0.09375,0.3125 -0.328125,1.5625 h -0.6875 c -0.203125,0 -0.3125,0 -0.3125,0.1875 0,0.125 0.09375,0.125 0.28125,0.125 h 0.65625 L 2.25,-0.046875 c -0.1875,0.96875 -0.359375,1.875 -0.875,1.875 -0.046875,0 -0.28125,0 -0.484375,-0.1875 C 1.359375,1.609375 1.453125,1.25 1.453125,1.109375 1.453125,0.875 1.265625,0.75 1.078125,0.75 0.8125,0.75 0.53125,0.984375 0.53125,1.359375 c 0,0.4375 0.4375,0.6875 0.84375,0.6875 0.546875,0 0.953125,-0.59375 1.125,-0.96875 0.328125,-0.625 0.546875,-1.828125 0.5625,-1.90625 z m 0,0"
               id="path12" />
          </g>
        </g>
      </g>
    </g>
  </g>
</svg>
