<?xml version="1.0" encoding="UTF-8" standalone="no"?>
<!-- Created with Inkscape (http://www.inkscape.org/) -->

<svg
   width="240mm"
   height="120mm"
   viewBox="0 0 240 120"
   version="1.1"
   id="svg8"
   inkscape:version="1.3 (0e150ed6c4, 2023-07-21)"
   sodipodi:docname="berrore.svg"
   inkscape:export-filename="w_sottospazio_vettoriale.pdf"
   inkscape:export-xdpi="96"
   inkscape:export-ydpi="96"
   xmlns:inkscape="http://www.inkscape.org/namespaces/inkscape"
   xmlns:sodipodi="http://sodipodi.sourceforge.net/DTD/sodipodi-0.dtd"
   xmlns="http://www.w3.org/2000/svg"
   xmlns:svg="http://www.w3.org/2000/svg"
   xmlns:rdf="http://www.w3.org/1999/02/22-rdf-syntax-ns#"
   xmlns:cc="http://creativecommons.org/ns#"
   xmlns:dc="http://purl.org/dc/elements/1.1/">
  <sodipodi:namedview
     id="base"
     pagecolor="#ffffff"
     bordercolor="#666666"
     borderopacity="1.0"
     inkscape:pageopacity="0.0"
     inkscape:pageshadow="2"
     inkscape:zoom="2.3066831"
     inkscape:cx="417.04905"
     inkscape:cy="163.6549"
     inkscape:document-units="mm"
     inkscape:current-layer="layer1"
     showgrid="false"
     showborder="true"
     width="200mm"
     showguides="true"
     inkscape:guide-bbox="true"
     inkscape:window-width="1920"
     inkscape:window-height="1011"
     inkscape:window-x="0"
     inkscape:window-y="0"
     inkscape:window-maximized="1"
     inkscape:showpageshadow="0"
     inkscape:pagecheckerboard="0"
     inkscape:deskcolor="#505050"
     inkscape:connector-spacing="0">
    <inkscape:grid
       type="xygrid"
       id="grid815"
       units="mm"
       spacingx="10"
       spacingy="10"
       empspacing="4"
       dotted="false"
       originx="0"
       originy="0"
       visible="false" />
  </sodipodi:namedview>
  <defs
     id="defs2">
    <marker
       style="overflow:visible"
       id="marker45"
       refX="0"
       refY="0"
       orient="auto-start-reverse"
       inkscape:stockid="Wide arrow"
       markerWidth="1"
       markerHeight="1"
       viewBox="0 0 1 1"
       inkscape:isstock="true"
       inkscape:collect="always"
       preserveAspectRatio="xMidYMid">
      <path
         style="fill:none;stroke:context-stroke;stroke-width:1;stroke-linecap:butt"
         d="M 3,-3 0,0 3,3"
         transform="rotate(180,0.125,0)"
         sodipodi:nodetypes="ccc"
         id="path45" />
    </marker>
    <marker
       style="overflow:visible"
       id="ArrowWide"
       refX="0"
       refY="0"
       orient="auto-start-reverse"
       inkscape:stockid="Wide arrow"
       markerWidth="1"
       markerHeight="1"
       viewBox="0 0 1 1"
       inkscape:isstock="true"
       inkscape:collect="always"
       preserveAspectRatio="xMidYMid">
      <path
         style="fill:none;stroke:context-stroke;stroke-width:1;stroke-linecap:butt"
         d="M 3,-3 0,0 3,3"
         transform="rotate(180,0.125,0)"
         sodipodi:nodetypes="ccc"
         id="path1" />
    </marker>
    <inkscape:path-effect
       effect="construct_grid"
       id="path-effect43"
       is_visible="true"
       lpeversion="1"
       nr_x="10"
       nr_y="10" />
    <inkscape:perspective
       sodipodi:type="inkscape:persp3d"
       inkscape:vp_x="0 : 60 : 1"
       inkscape:vp_y="0 : 1000 : 0"
       inkscape:vp_z="240 : 60 : 1"
       inkscape:persp3d-origin="120 : 40 : 1"
       id="perspective27" />
    <linearGradient
       id="swatch16"
       inkscape:swatch="solid">
      <stop
         style="stop-color:#1a1a1a;stop-opacity:1;"
         offset="0"
         id="stop16" />
    </linearGradient>
    <marker
       style="overflow:visible"
       id="marker4-7"
       refX="0"
       refY="0"
       orient="auto"
       inkscape:stockid="Stop"
       markerWidth="1"
       markerHeight="1"
       viewBox="0 0 1 1"
       inkscape:isstock="true"
       inkscape:collect="always"
       preserveAspectRatio="xMidYMid">
      <path
         style="fill:none;stroke:context-stroke;stroke-width:1"
         d="M 0,4 V -4"
         id="path4-5" />
    </marker>
    <marker
       style="overflow:visible"
       id="Stop-3"
       refX="0"
       refY="0"
       orient="auto"
       inkscape:stockid="Stop"
       markerWidth="1"
       markerHeight="1"
       viewBox="0 0 1 1"
       inkscape:isstock="true"
       inkscape:collect="always"
       preserveAspectRatio="xMidYMid">
      <path
         style="fill:none;stroke:context-stroke;stroke-width:1"
         d="M 0,4 V -4"
         id="path23-5" />
    </marker>
    <marker
       style="overflow:visible"
       id="marker4-7-2"
       refX="0"
       refY="0"
       orient="auto"
       inkscape:stockid="Stop"
       markerWidth="1"
       markerHeight="1"
       viewBox="0 0 1 1"
       inkscape:isstock="true"
       inkscape:collect="always"
       preserveAspectRatio="xMidYMid">
      <path
         style="fill:none;stroke:context-stroke;stroke-width:1"
         d="M 0,4 V -4"
         id="path4-5-7" />
    </marker>
    <marker
       style="overflow:visible"
       id="Stop-3-0"
       refX="0"
       refY="0"
       orient="auto"
       inkscape:stockid="Stop"
       markerWidth="1"
       markerHeight="1"
       viewBox="0 0 1 1"
       inkscape:isstock="true"
       inkscape:collect="always"
       preserveAspectRatio="xMidYMid">
      <path
         style="fill:none;stroke:context-stroke;stroke-width:1"
         d="M 0,4 V -4"
         id="path23-5-9" />
    </marker>
    <marker
       style="overflow:visible"
       id="marker4-7-26"
       refX="0"
       refY="0"
       orient="auto"
       inkscape:stockid="Stop"
       markerWidth="1"
       markerHeight="1"
       viewBox="0 0 1 1"
       inkscape:isstock="true"
       inkscape:collect="always"
       preserveAspectRatio="xMidYMid">
      <path
         style="fill:none;stroke:context-stroke;stroke-width:1"
         d="M 0,4 V -4"
         id="path4-5-1" />
    </marker>
    <marker
       style="overflow:visible"
       id="Stop-3-8"
       refX="0"
       refY="0"
       orient="auto"
       inkscape:stockid="Stop"
       markerWidth="1"
       markerHeight="1"
       viewBox="0 0 1 1"
       inkscape:isstock="true"
       inkscape:collect="always"
       preserveAspectRatio="xMidYMid">
      <path
         style="fill:none;stroke:context-stroke;stroke-width:1"
         d="M 0,4 V -4"
         id="path23-5-7" />
    </marker>
    <marker
       style="overflow:visible"
       id="marker4-7-7"
       refX="0"
       refY="0"
       orient="auto"
       inkscape:stockid="Stop"
       markerWidth="1"
       markerHeight="1"
       viewBox="0 0 1 1"
       inkscape:isstock="true"
       inkscape:collect="always"
       preserveAspectRatio="xMidYMid">
      <path
         style="fill:none;stroke:context-stroke;stroke-width:1"
         d="M 0,4 V -4"
         id="path4-5-5" />
    </marker>
    <marker
       style="overflow:visible"
       id="Stop-3-9"
       refX="0"
       refY="0"
       orient="auto"
       inkscape:stockid="Stop"
       markerWidth="1"
       markerHeight="1"
       viewBox="0 0 1 1"
       inkscape:isstock="true"
       inkscape:collect="always"
       preserveAspectRatio="xMidYMid">
      <path
         style="fill:none;stroke:context-stroke;stroke-width:1"
         d="M 0,4 V -4"
         id="path23-5-2" />
    </marker>
    <marker
       style="overflow:visible"
       id="marker4-7-3"
       refX="0"
       refY="0"
       orient="auto"
       inkscape:stockid="Stop"
       markerWidth="1"
       markerHeight="1"
       viewBox="0 0 1 1"
       inkscape:isstock="true"
       inkscape:collect="always"
       preserveAspectRatio="xMidYMid">
      <path
         style="fill:none;stroke:context-stroke;stroke-width:1"
         d="M 0,4 V -4"
         id="path4-5-6" />
    </marker>
    <marker
       style="overflow:visible"
       id="Stop-3-1"
       refX="0"
       refY="0"
       orient="auto"
       inkscape:stockid="Stop"
       markerWidth="1"
       markerHeight="1"
       viewBox="0 0 1 1"
       inkscape:isstock="true"
       inkscape:collect="always"
       preserveAspectRatio="xMidYMid">
      <path
         style="fill:none;stroke:context-stroke;stroke-width:1"
         d="M 0,4 V -4"
         id="path23-5-29" />
    </marker>
    <marker
       style="overflow:visible"
       id="marker4-7-2-1"
       refX="0"
       refY="0"
       orient="auto"
       inkscape:stockid="Stop"
       markerWidth="1"
       markerHeight="1"
       viewBox="0 0 1 1"
       inkscape:isstock="true"
       inkscape:collect="always"
       preserveAspectRatio="xMidYMid">
      <path
         style="fill:none;stroke:context-stroke;stroke-width:1"
         d="M 0,4 V -4"
         id="path4-5-7-9" />
    </marker>
    <marker
       style="overflow:visible"
       id="Stop-3-0-4"
       refX="0"
       refY="0"
       orient="auto"
       inkscape:stockid="Stop"
       markerWidth="1"
       markerHeight="1"
       viewBox="0 0 1 1"
       inkscape:isstock="true"
       inkscape:collect="always"
       preserveAspectRatio="xMidYMid">
      <path
         style="fill:none;stroke:context-stroke;stroke-width:1"
         d="M 0,4 V -4"
         id="path23-5-9-7" />
    </marker>
    <marker
       style="overflow:visible"
       id="marker4-7-26-4"
       refX="0"
       refY="0"
       orient="auto"
       inkscape:stockid="Stop"
       markerWidth="1"
       markerHeight="1"
       viewBox="0 0 1 1"
       inkscape:isstock="true"
       inkscape:collect="always"
       preserveAspectRatio="xMidYMid">
      <path
         style="fill:none;stroke:context-stroke;stroke-width:1"
         d="M 0,4 V -4"
         id="path4-5-1-5" />
    </marker>
    <marker
       style="overflow:visible"
       id="Stop-3-8-0"
       refX="0"
       refY="0"
       orient="auto"
       inkscape:stockid="Stop"
       markerWidth="1"
       markerHeight="1"
       viewBox="0 0 1 1"
       inkscape:isstock="true"
       inkscape:collect="always"
       preserveAspectRatio="xMidYMid">
      <path
         style="fill:none;stroke:context-stroke;stroke-width:1"
         d="M 0,4 V -4"
         id="path23-5-7-3" />
    </marker>
    <marker
       style="overflow:visible"
       id="marker4-7-7-6"
       refX="0"
       refY="0"
       orient="auto"
       inkscape:stockid="Stop"
       markerWidth="1"
       markerHeight="1"
       viewBox="0 0 1 1"
       inkscape:isstock="true"
       inkscape:collect="always"
       preserveAspectRatio="xMidYMid">
      <path
         style="fill:none;stroke:context-stroke;stroke-width:1"
         d="M 0,4 V -4"
         id="path4-5-5-3" />
    </marker>
    <marker
       style="overflow:visible"
       id="Stop-3-9-2"
       refX="0"
       refY="0"
       orient="auto"
       inkscape:stockid="Stop"
       markerWidth="1"
       markerHeight="1"
       viewBox="0 0 1 1"
       inkscape:isstock="true"
       inkscape:collect="always"
       preserveAspectRatio="xMidYMid">
      <path
         style="fill:none;stroke:context-stroke;stroke-width:1"
         d="M 0,4 V -4"
         id="path23-5-2-0" />
    </marker>
  </defs>
  <metadata
     id="metadata5">
    <rdf:RDF>
      <cc:Work
         rdf:about="">
        <dc:format>image/svg+xml</dc:format>
        <dc:type
           rdf:resource="http://purl.org/dc/dcmitype/StillImage" />
      </cc:Work>
    </rdf:RDF>
  </metadata>
  <g
     inkscape:label="Layer 1"
     inkscape:groupmode="layer"
     id="layer1"
     transform="translate(0, -177)">
    <path
       style="display:inline;fill:none;fill-rule:evenodd;stroke:#000000;stroke-width:0.264583px;stroke-linecap:butt;stroke-linejoin:miter;stroke-opacity:1;marker-end:url(#ArrowWide)"
       d="M 73.99939,292.02702 74.201367,182.84465"
       id="path43"
       inkscape:connector-type="polyline"
       inkscape:connector-curvature="0" />
    <path
       style="fill:none;fill-rule:evenodd;stroke:#000000;stroke-width:0.264583px;stroke-linecap:butt;stroke-linejoin:miter;stroke-opacity:1;marker-end:url(#marker45)"
       d="m 62.67729,280.91778 115.70444,-0.25905"
       id="path44"
       inkscape:connector-type="polyline"
       inkscape:connector-curvature="0" />
    <circle
       style="fill:#00c2ff;fill-opacity:1;stroke:#00c2ff;stroke-width:0.238151;stroke-opacity:1"
       id="path14-9"
       cx="84.525749"
       cy="267.63602"
       r="0.54092312" />
    <path
       style="opacity:0.99;fill:#000000;fill-opacity:1;stroke:#00c2ff;stroke-width:0.161201;stroke-dasharray:none;stroke-dashoffset:0;stroke-opacity:1;marker-start:url(#marker4-7);marker-end:url(#Stop-3)"
       d="m 84.49255,265.31601 -0.0471,4.95009"
       id="path3-1" />
    <path
       style="opacity:0.99;fill:#000000;fill-opacity:1;stroke:#00c2ff;stroke-width:0.161201;stroke-dasharray:none;stroke-dashoffset:0;stroke-opacity:1;marker-start:url(#marker4-7);marker-end:url(#Stop-3)"
       d="m 82.08766,267.58734 4.72268,0.0431 v 0"
       id="path5" />
    <circle
       style="fill:#00c2ff;fill-opacity:1;stroke:#00c2ff;stroke-width:0.238151;stroke-opacity:1"
       id="path14-9-6"
       cx="98.292633"
       cy="259.42749"
       r="0.54092312" />
    <path
       style="opacity:0.99;fill:#000000;fill-opacity:1;stroke:#00c2ff;stroke-width:0.161201;stroke-dasharray:none;stroke-dashoffset:0;stroke-opacity:1;marker-start:url(#marker4-7-2);marker-end:url(#Stop-3-0)"
       d="m 98.259437,257.10772 -0.0471,4.95009"
       id="path3-1-0" />
    <path
       style="opacity:0.99;fill:#000000;fill-opacity:1;stroke:#00c2ff;stroke-width:0.161201;stroke-dasharray:none;stroke-dashoffset:0;stroke-opacity:1;marker-start:url(#marker4-7-2);marker-end:url(#Stop-3-0)"
       d="m 95.854547,259.37905 4.722683,0.0431 v 0"
       id="path5-6" />
    <circle
       style="fill:#00c2ff;fill-opacity:1;stroke:#00c2ff;stroke-width:0.238151;stroke-opacity:1"
       id="path14-9-2"
       cx="108.27586"
       cy="245.035"
       r="0.54092312" />
    <path
       style="opacity:0.99;fill:#000000;fill-opacity:1;stroke:#00c2ff;stroke-width:0.161201;stroke-dasharray:none;stroke-dashoffset:0;stroke-opacity:1;marker-start:url(#marker4-7-26);marker-end:url(#Stop-3-8)"
       d="m 108.24265,242.71533 -0.0471,4.95009"
       id="path3-1-02" />
    <path
       style="opacity:0.99;fill:#000000;fill-opacity:1;stroke:#00c2ff;stroke-width:0.161201;stroke-dasharray:none;stroke-dashoffset:0;stroke-opacity:1;marker-start:url(#marker4-7-26);marker-end:url(#Stop-3-8)"
       d="m 105.83776,244.98666 4.72268,0.0431 v 0"
       id="path5-3" />
    <circle
       style="fill:#00c2ff;fill-opacity:1;stroke:#00c2ff;stroke-width:0.238151;stroke-opacity:1"
       id="path14-9-8"
       cx="121.73882"
       cy="237.67886"
       r="0.54092312" />
    <path
       style="opacity:0.99;fill:#000000;fill-opacity:1;stroke:#00c2ff;stroke-width:0.161201;stroke-dasharray:none;stroke-dashoffset:0;stroke-opacity:1;marker-start:url(#marker4-7-7);marker-end:url(#Stop-3-9)"
       d="m 121.70562,235.35918 -0.0471,4.95009"
       id="path3-1-9" />
    <path
       style="opacity:0.99;fill:#000000;fill-opacity:1;stroke:#00c2ff;stroke-width:0.161201;stroke-dasharray:none;stroke-dashoffset:0;stroke-opacity:1;marker-start:url(#marker4-7-7);marker-end:url(#Stop-3-9)"
       d="m 119.30073,237.63051 4.72268,0.0431 v 0"
       id="path5-7" />
    <circle
       style="fill:#00c2ff;fill-opacity:1;stroke:#00c2ff;stroke-width:0.238151;stroke-opacity:1"
       id="path14-9-1"
       cx="127.40788"
       cy="225.23878"
       r="0.54092312" />
    <path
       style="opacity:0.99;fill:#000000;fill-opacity:1;stroke:#00c2ff;stroke-width:0.161201;stroke-dasharray:none;stroke-dashoffset:0;stroke-opacity:1;marker-start:url(#marker4-7-3);marker-end:url(#Stop-3-1)"
       d="m 127.37488,222.91828 -0.0471,4.95009"
       id="path3-1-5" />
    <path
       style="opacity:0.99;fill:#000000;fill-opacity:1;stroke:#00c2ff;stroke-width:0.161201;stroke-dasharray:none;stroke-dashoffset:0;stroke-opacity:1;marker-start:url(#marker4-7-3);marker-end:url(#Stop-3-1)"
       d="m 124.96998,225.18961 4.7227,0.0431 v 0"
       id="path9" />
    <circle
       style="fill:#00c2ff;fill-opacity:1;stroke:#00c2ff;stroke-width:0.238151;stroke-opacity:1"
       id="path14-9-6-5"
       cx="141.17462"
       cy="217.03049"
       r="0.54092312" />
    <path
       style="opacity:0.99;fill:#000000;fill-opacity:1;stroke:#00c2ff;stroke-width:0.161201;stroke-dasharray:none;stroke-dashoffset:0;stroke-opacity:1;marker-start:url(#marker4-7-2-1);marker-end:url(#Stop-3-0-4)"
       d="m 141.14182,214.70999 -0.0471,4.95009"
       id="path3-1-0-4" />
    <path
       style="opacity:0.99;fill:#000000;fill-opacity:1;stroke:#00c2ff;stroke-width:0.161201;stroke-dasharray:none;stroke-dashoffset:0;stroke-opacity:1;marker-start:url(#marker4-7-2-1);marker-end:url(#Stop-3-0-4)"
       d="m 138.73693,216.98132 4.72268,0.0431 v 0"
       id="path5-6-7" />
    <circle
       style="fill:#00c2ff;fill-opacity:1;stroke:#00c2ff;stroke-width:0.238151;stroke-opacity:1"
       id="path14-9-2-6"
       cx="151.15768"
       cy="202.63815"
       r="0.54092312" />
    <path
       style="opacity:0.99;fill:#000000;fill-opacity:1;stroke:#00c2ff;stroke-width:0.161201;stroke-dasharray:none;stroke-dashoffset:0;stroke-opacity:1;marker-start:url(#marker4-7-26-4);marker-end:url(#Stop-3-8-0)"
       d="m 151.12503,200.3176 -0.0471,4.95009"
       id="path3-1-02-5" />
    <path
       style="opacity:0.99;fill:#000000;fill-opacity:1;stroke:#00c2ff;stroke-width:0.161201;stroke-dasharray:none;stroke-dashoffset:0;stroke-opacity:1;marker-start:url(#marker4-7-26-4);marker-end:url(#Stop-3-8-0)"
       d="m 148.72014,202.58893 4.72268,0.0431 v 0"
       id="path5-3-6" />
    <circle
       style="fill:#00c2ff;fill-opacity:1;stroke:#00c2ff;stroke-width:0.238151;stroke-opacity:1"
       id="path14-9-8-9"
       cx="164.6205"
       cy="195.28201"
       r="0.54092312" />
    <path
       style="opacity:0.99;fill:#000000;fill-opacity:1;stroke:#00c2ff;stroke-width:0.161201;stroke-dasharray:none;stroke-dashoffset:0;stroke-opacity:1;marker-start:url(#marker4-7-7-6);marker-end:url(#Stop-3-9-2)"
       d="m 164.588,192.96145 -0.0471,4.95009"
       id="path3-1-9-3" />
    <path
       style="opacity:0.99;fill:#000000;fill-opacity:1;stroke:#00c2ff;stroke-width:0.161201;stroke-dasharray:none;stroke-dashoffset:0;stroke-opacity:1;marker-start:url(#marker4-7-7-6);marker-end:url(#Stop-3-9-2)"
       d="m 162.18311,195.23278 4.72268,0.0431 v 0"
       id="path5-7-7" />
    <path
       style="opacity:0.99;fill:#000000;fill-opacity:1;stroke:#00c2ff;stroke-width:0.49387;stroke-dasharray:none;stroke-dashoffset:0;stroke-opacity:1"
       d="M 74.433108,280.27885 169.29872,190.28678"
       id="path4" />
    <g
       inkscape:label=""
       transform="translate(76.358903,184.22739)"
       id="g4">
      <g
         id="surface2"
         transform="matrix(0.352778,0,0,0.352778,-0.901524,-0.656475)">
        <g
           style="fill:#000000;fill-opacity:1"
           id="g3">
          <g
             id="use2"
             transform="translate(1.993,6.6890001)">
            <path
               style="stroke:none"
               d="m 4.265625,-4.078125 c -0.3125,0.015625 -0.53125,0.25 -0.53125,0.484375 0,0.15625 0.109375,0.328125 0.34375,0.328125 0.234375,0 0.5,-0.1875 0.5,-0.609375 0,-0.5 -0.46875,-0.953125 -1.296875,-0.953125 -1.4375,0 -1.84375,1.125 -1.84375,1.59375 0,0.859375 0.8125,1.015625 1.125,1.078125 0.5625,0.109375 1.140625,0.234375 1.140625,0.84375 0,0.28125 -0.25,1.1875 -1.5625,1.1875 -0.15625,0 -1,0 -1.25,-0.578125 0.421875,0.0625 0.6875,-0.265625 0.6875,-0.578125 0,-0.25 -0.171875,-0.375 -0.40625,-0.375 -0.28125,0 -0.609375,0.234375 -0.609375,0.71875 0,0.625 0.625,1.0625 1.5625,1.0625 1.765625,0 2.1875,-1.328125 2.1875,-1.8125 0,-0.390625 -0.203125,-0.671875 -0.328125,-0.796875 C 3.6875,-2.796875 3.375,-2.84375 2.890625,-2.9375 2.5,-3.03125 2.0625,-3.109375 2.0625,-3.59375 c 0,-0.328125 0.265625,-0.984375 1.21875,-0.984375 0.28125,0 0.8125,0.078125 0.984375,0.5 z m 0,0"
               id="path3" />
          </g>
        </g>
      </g>
    </g>
    <g
       inkscape:label=""
       transform="translate(173.94556,275.88758)"
       id="g9">
      <g
         id="g8"
         transform="matrix(0.352778,0,0,0.352778,-0.791281,-0.661061)">
        <g
           style="fill:#000000;fill-opacity:1"
           id="g7">
          <g
             id="g6"
             transform="translate(1.993,8.7019997)">
            <path
               style="stroke:none"
               d="m 2.25,-4.359375 h 1.015625 c 0.21875,0 0.328125,0 0.328125,-0.21875 0,-0.125 -0.109375,-0.125 -0.296875,-0.125 H 2.328125 C 2.71875,-6.25 2.78125,-6.46875 2.78125,-6.53125 c 0,-0.1875 -0.125,-0.296875 -0.3125,-0.296875 -0.03125,0 -0.34375,0.015625 -0.4375,0.390625 l -0.421875,1.734375 h -1.03125 c -0.21875,0 -0.328125,0 -0.328125,0.203125 0,0.140625 0.09375,0.140625 0.3125,0.140625 h 0.953125 c -0.78125,3.09375 -0.828125,3.28125 -0.828125,3.46875 0,0.59375 0.40625,1.015625 1,1.015625 1.109375,0 1.734375,-1.59375 1.734375,-1.6875 0,-0.109375 -0.078125,-0.109375 -0.125,-0.109375 -0.09375,0 -0.109375,0.03125 -0.171875,0.15625 C 2.65625,-0.375 2.078125,-0.125 1.71875,-0.125 c -0.234375,0 -0.34375,-0.140625 -0.34375,-0.5 0,-0.265625 0.015625,-0.328125 0.0625,-0.515625 z m 0,0"
               id="path6" />
          </g>
        </g>
      </g>
    </g>
    <g
       inkscape:label=""
       transform="translate(140.76871,233.67524)"
       id="g11"
       style="fill:#00c2ff;fill-opacity:1;stroke:#00c2ff;stroke-width:0.1;stroke-dasharray:none;stroke-opacity:1">
      <g
         id="g10"
         transform="matrix(0.352778,0,0,0.352778,-0.813329,-0.707496)"
         style="fill:#00c2ff;fill-opacity:1;stroke:#00c2ff;stroke-width:0.283464;stroke-dasharray:none;stroke-opacity:1">
        <g
           style="fill:#00c2ff;fill-opacity:1;stroke:#00c2ff;stroke-width:0.283464;stroke-dasharray:none;stroke-opacity:1"
           id="g12">
          <g
             id="use8"
             transform="translate(1.993,9.5679998)"
             style="fill:#00c2ff;fill-opacity:1;stroke:#00c2ff;stroke-width:0.283464;stroke-dasharray:none;stroke-opacity:1">
            <path
               style="fill:#00c2ff;fill-opacity:1;stroke:#00c2ff;stroke-width:0.283464;stroke-dasharray:none;stroke-opacity:1"
               d="M 1.875,-4.109375 V -7.5625 l -1.5625,0.109375 v 0.34375 c 0.75,0 0.84375,0.078125 0.84375,0.609375 V 0 H 1.421875 C 1.4375,-0.015625 1.53125,-0.15625 1.828125,-0.671875 1.984375,-0.421875 2.4375,0.125 3.25,0.125 c 1.296875,0 2.4375,-1.078125 2.4375,-2.484375 0,-1.375 -1.078125,-2.46875 -2.3125,-2.46875 -0.859375,0 -1.328125,0.515625 -1.5,0.71875 z M 1.90625,-1.25 v -2.234375 c 0,-0.21875 0,-0.21875 0.125,-0.390625 0.421875,-0.625 1.015625,-0.703125 1.28125,-0.703125 0.5,0 0.890625,0.28125 1.140625,0.703125 C 4.75,-3.4375 4.78125,-2.8125 4.78125,-2.359375 4.78125,-1.96875 4.75,-1.3125 4.4375,-0.8125 4.203125,-0.484375 3.796875,-0.125 3.203125,-0.125 2.71875,-0.125 2.328125,-0.375 2.0625,-0.78125 1.90625,-1.015625 1.90625,-1.046875 1.90625,-1.25 Z m 0,0"
               id="path20" />
          </g>
          <g
             id="use9"
             transform="translate(8.0540962,9.5679998)"
             style="fill:#00c2ff;fill-opacity:1;stroke:#00c2ff;stroke-width:0.283464;stroke-dasharray:none;stroke-opacity:1">
            <path
               style="fill:#00c2ff;fill-opacity:1;stroke:#00c2ff;stroke-width:0.283464;stroke-dasharray:none;stroke-opacity:1"
               d="M 3.625,-0.828125 C 3.671875,-0.390625 3.96875,0.0625 4.484375,0.0625 4.71875,0.0625 5.375,-0.09375 5.375,-0.96875 V -1.578125 H 5.109375 v 0.609375 c 0,0.625 -0.28125,0.703125 -0.390625,0.703125 -0.359375,0 -0.40625,-0.5 -0.40625,-0.546875 V -3 c 0,-0.453125 0,-0.875 -0.390625,-1.28125 -0.4375,-0.4375 -0.984375,-0.609375 -1.5,-0.609375 -0.890625,0 -1.640625,0.515625 -1.640625,1.234375 0,0.328125 0.21875,0.515625 0.5,0.515625 0.296875,0 0.5,-0.21875 0.5,-0.5 0,-0.140625 -0.0625,-0.5 -0.5625,-0.5 0.296875,-0.390625 0.828125,-0.5 1.1875,-0.5 0.53125,0 1.15625,0.421875 1.15625,1.390625 v 0.40625 C 3,-2.8125 2.234375,-2.78125 1.546875,-2.453125 c -0.8125,0.375 -1.09375,0.9375 -1.09375,1.421875 0,0.875 1.0625,1.15625 1.75,1.15625 0.71875,0 1.21875,-0.4375 1.421875,-0.953125 z M 3.5625,-2.625 v 1.09375 c 0,1.046875 -0.796875,1.40625 -1.28125,1.40625 -0.53125,0 -0.984375,-0.375 -0.984375,-0.921875 0,-0.59375 0.453125,-1.5 2.265625,-1.578125 z m 0,0"
               id="path21" />
          </g>
          <g
             id="use10"
             transform="translate(13.508646,9.5679998)"
             style="fill:#00c2ff;fill-opacity:1;stroke:#00c2ff;stroke-width:0.283464;stroke-dasharray:none;stroke-opacity:1">
            <path
               style="fill:#00c2ff;fill-opacity:1;stroke:#00c2ff;stroke-width:0.283464;stroke-dasharray:none;stroke-opacity:1"
               d="m 1.828125,-3.625 v -1.203125 l -1.515625,0.125 v 0.34375 c 0.75,0 0.84375,0.078125 0.84375,0.609375 v 2.921875 c 0,0.484375 -0.125,0.484375 -0.84375,0.484375 V 0 c 0.421875,-0.015625 0.9375,-0.03125 1.234375,-0.03125 0.4375,0 0.953125,0 1.390625,0.03125 V -0.34375 H 2.703125 c -0.8125,0 -0.828125,-0.109375 -0.828125,-0.5 v -1.6875 c 0,-1.078125 0.453125,-2.046875 1.28125,-2.046875 0.078125,0 0.109375,0 0.125,0.015625 -0.03125,0 -0.25,0.140625 -0.25,0.421875 0,0.296875 0.234375,0.46875 0.46875,0.46875 0.203125,0 0.46875,-0.140625 0.46875,-0.484375 0,-0.34375 -0.34375,-0.671875 -0.8125,-0.671875 -0.796875,0 -1.1875,0.734375 -1.328125,1.203125 z m 0,0"
               id="path22" />
          </g>
          <g
             id="use11"
             transform="translate(17.78174,9.5679998)"
             style="fill:#00c2ff;fill-opacity:1;stroke:#00c2ff;stroke-width:0.283464;stroke-dasharray:none;stroke-opacity:1">
            <path
               style="fill:#00c2ff;fill-opacity:1;stroke:#00c2ff;stroke-width:0.283464;stroke-dasharray:none;stroke-opacity:1"
               d="m 1.828125,-3.625 v -1.203125 l -1.515625,0.125 v 0.34375 c 0.75,0 0.84375,0.078125 0.84375,0.609375 v 2.921875 c 0,0.484375 -0.125,0.484375 -0.84375,0.484375 V 0 c 0.421875,-0.015625 0.9375,-0.03125 1.234375,-0.03125 0.4375,0 0.953125,0 1.390625,0.03125 V -0.34375 H 2.703125 c -0.8125,0 -0.828125,-0.109375 -0.828125,-0.5 v -1.6875 c 0,-1.078125 0.453125,-2.046875 1.28125,-2.046875 0.078125,0 0.109375,0 0.125,0.015625 -0.03125,0 -0.25,0.140625 -0.25,0.421875 0,0.296875 0.234375,0.46875 0.46875,0.46875 0.203125,0 0.46875,-0.140625 0.46875,-0.484375 0,-0.34375 -0.34375,-0.671875 -0.8125,-0.671875 -0.796875,0 -1.1875,0.734375 -1.328125,1.203125 z m 0,0"
               id="path23" />
          </g>
          <g
             id="use12"
             transform="translate(22.054834,9.5679998)"
             style="fill:#00c2ff;fill-opacity:1;stroke:#00c2ff;stroke-width:0.283464;stroke-dasharray:none;stroke-opacity:1">
            <path
               style="fill:#00c2ff;fill-opacity:1;stroke:#00c2ff;stroke-width:0.283464;stroke-dasharray:none;stroke-opacity:1"
               d="m 1.21875,-2.75 c 0.0625,-1.625 0.984375,-1.890625 1.359375,-1.890625 1.125,0 1.234375,1.46875 1.234375,1.890625 z M 1.203125,-2.515625 H 4.25 c 0.25,0 0.28125,0 0.28125,-0.234375 0,-1.078125 -0.59375,-2.140625 -1.953125,-2.140625 -1.265625,0 -2.265625,1.125 -2.265625,2.484375 0,1.46875 1.140625,2.53125 2.390625,2.53125 1.328125,0 1.828125,-1.21875 1.828125,-1.421875 0,-0.109375 -0.09375,-0.125 -0.140625,-0.125 -0.109375,0 -0.125,0.0625 -0.140625,0.140625 -0.390625,1.125 -1.375,1.125 -1.484375,1.125 -0.546875,0 -0.984375,-0.328125 -1.234375,-0.734375 C 1.203125,-1.40625 1.203125,-2.125 1.203125,-2.515625 Z m 0,0"
               id="path24" />
          </g>
        </g>
        <g
           style="fill:#00c2ff;fill-opacity:1;stroke:#00c2ff;stroke-width:0.283464;stroke-dasharray:none;stroke-opacity:1"
           id="g14">
          <g
             id="use13"
             transform="translate(30.535568,9.5679998)"
             style="fill:#00c2ff;fill-opacity:1;stroke:#00c2ff;stroke-width:0.283464;stroke-dasharray:none;stroke-opacity:1">
            <path
               style="fill:#00c2ff;fill-opacity:1;stroke:#00c2ff;stroke-width:0.283464;stroke-dasharray:none;stroke-opacity:1"
               d="M 4.140625,-0.59375 V 0.125 L 5.75,0 v -0.34375 c -0.765625,0 -0.859375,-0.078125 -0.859375,-0.609375 V -7.5625 l -1.5625,0.109375 v 0.34375 c 0.765625,0 0.84375,0.078125 0.84375,0.609375 v 2.359375 c -0.3125,-0.390625 -0.78125,-0.6875 -1.375,-0.6875 -1.28125,0 -2.421875,1.078125 -2.421875,2.484375 0,1.390625 1.0625,2.46875 2.3125,2.46875 0.6875,0 1.1875,-0.375 1.453125,-0.71875 z m 0,-2.921875 v 2.234375 c 0,0.1875 0,0.21875 -0.109375,0.390625 C 3.703125,-0.359375 3.203125,-0.125 2.734375,-0.125 2.25,-0.125 1.859375,-0.40625 1.59375,-0.8125 1.3125,-1.265625 1.28125,-1.890625 1.28125,-2.328125 c 0,-0.40625 0.015625,-1.0625 0.328125,-1.546875 C 1.84375,-4.21875 2.25,-4.578125 2.84375,-4.578125 c 0.390625,0 0.84375,0.15625 1.1875,0.65625 0.109375,0.1875 0.109375,0.203125 0.109375,0.40625 z m 0,0"
               id="path25" />
          </g>
          <g
             id="use14"
             transform="translate(36.596664,9.5679998)"
             style="fill:#00c2ff;fill-opacity:1;stroke:#00c2ff;stroke-width:0.283464;stroke-dasharray:none;stroke-opacity:1">
            <path
               style="fill:#00c2ff;fill-opacity:1;stroke:#00c2ff;stroke-width:0.283464;stroke-dasharray:none;stroke-opacity:1"
               d="m 1.9375,-4.828125 -1.53125,0.125 v 0.34375 c 0.703125,0 0.796875,0.0625 0.796875,0.59375 v 2.9375 c 0,0.484375 -0.109375,0.484375 -0.84375,0.484375 V 0 c 0.34375,-0.015625 0.9375,-0.03125 1.203125,-0.03125 0.375,0 0.765625,0.015625 1.125,0.03125 v -0.34375 c -0.71875,0 -0.75,-0.046875 -0.75,-0.46875 z M 1.96875,-6.71875 c 0,-0.34375 -0.265625,-0.578125 -0.578125,-0.578125 C 1.0625,-7.296875 0.8125,-7 0.8125,-6.71875 c 0,0.296875 0.25,0.578125 0.578125,0.578125 0.3125,0 0.578125,-0.234375 0.578125,-0.578125 z m 0,0"
               id="path26" />
          </g>
        </g>
        <g
           style="fill:#00c2ff;fill-opacity:1;stroke:#00c2ff;stroke-width:0.283464;stroke-dasharray:none;stroke-opacity:1"
           id="g15">
          <g
             id="use15"
             transform="translate(43.259941,9.5679998)"
             style="fill:#00c2ff;fill-opacity:1;stroke:#00c2ff;stroke-width:0.283464;stroke-dasharray:none;stroke-opacity:1">
            <path
               style="fill:#00c2ff;fill-opacity:1;stroke:#00c2ff;stroke-width:0.283464;stroke-dasharray:none;stroke-opacity:1"
               d="m 1.21875,-2.75 c 0.0625,-1.625 0.984375,-1.890625 1.359375,-1.890625 1.125,0 1.234375,1.46875 1.234375,1.890625 z M 1.203125,-2.515625 H 4.25 c 0.25,0 0.28125,0 0.28125,-0.234375 0,-1.078125 -0.59375,-2.140625 -1.953125,-2.140625 -1.265625,0 -2.265625,1.125 -2.265625,2.484375 0,1.46875 1.140625,2.53125 2.390625,2.53125 1.328125,0 1.828125,-1.21875 1.828125,-1.421875 0,-0.109375 -0.09375,-0.125 -0.140625,-0.125 -0.109375,0 -0.125,0.0625 -0.140625,0.140625 -0.390625,1.125 -1.375,1.125 -1.484375,1.125 -0.546875,0 -0.984375,-0.328125 -1.234375,-0.734375 C 1.203125,-1.40625 1.203125,-2.125 1.203125,-2.515625 Z m 0,0"
               id="path27" />
          </g>
        </g>
        <g
           style="fill:#00c2ff;fill-opacity:1;stroke:#00c2ff;stroke-width:0.283464;stroke-dasharray:none;stroke-opacity:1"
           id="g17">
          <g
             id="use16"
             transform="translate(48.118858,9.5679998)"
             style="fill:#00c2ff;fill-opacity:1;stroke:#00c2ff;stroke-width:0.283464;stroke-dasharray:none;stroke-opacity:1">
            <path
               style="fill:#00c2ff;fill-opacity:1;stroke:#00c2ff;stroke-width:0.283464;stroke-dasharray:none;stroke-opacity:1"
               d="m 1.828125,-3.625 v -1.203125 l -1.515625,0.125 v 0.34375 c 0.75,0 0.84375,0.078125 0.84375,0.609375 v 2.921875 c 0,0.484375 -0.125,0.484375 -0.84375,0.484375 V 0 c 0.421875,-0.015625 0.9375,-0.03125 1.234375,-0.03125 0.4375,0 0.953125,0 1.390625,0.03125 V -0.34375 H 2.703125 c -0.8125,0 -0.828125,-0.109375 -0.828125,-0.5 v -1.6875 c 0,-1.078125 0.453125,-2.046875 1.28125,-2.046875 0.078125,0 0.109375,0 0.125,0.015625 -0.03125,0 -0.25,0.140625 -0.25,0.421875 0,0.296875 0.234375,0.46875 0.46875,0.46875 0.203125,0 0.46875,-0.140625 0.46875,-0.484375 0,-0.34375 -0.34375,-0.671875 -0.8125,-0.671875 -0.796875,0 -1.1875,0.734375 -1.328125,1.203125 z m 0,0"
               id="path28" />
          </g>
          <g
             id="use17"
             transform="translate(52.391953,9.5679998)"
             style="fill:#00c2ff;fill-opacity:1;stroke:#00c2ff;stroke-width:0.283464;stroke-dasharray:none;stroke-opacity:1">
            <path
               style="fill:#00c2ff;fill-opacity:1;stroke:#00c2ff;stroke-width:0.283464;stroke-dasharray:none;stroke-opacity:1"
               d="m 1.828125,-3.625 v -1.203125 l -1.515625,0.125 v 0.34375 c 0.75,0 0.84375,0.078125 0.84375,0.609375 v 2.921875 c 0,0.484375 -0.125,0.484375 -0.84375,0.484375 V 0 c 0.421875,-0.015625 0.9375,-0.03125 1.234375,-0.03125 0.4375,0 0.953125,0 1.390625,0.03125 V -0.34375 H 2.703125 c -0.8125,0 -0.828125,-0.109375 -0.828125,-0.5 v -1.6875 c 0,-1.078125 0.453125,-2.046875 1.28125,-2.046875 0.078125,0 0.109375,0 0.125,0.015625 -0.03125,0 -0.25,0.140625 -0.25,0.421875 0,0.296875 0.234375,0.46875 0.46875,0.46875 0.203125,0 0.46875,-0.140625 0.46875,-0.484375 0,-0.34375 -0.34375,-0.671875 -0.8125,-0.671875 -0.796875,0 -1.1875,0.734375 -1.328125,1.203125 z m 0,0"
               id="path29" />
          </g>
        </g>
        <g
           style="fill:#00c2ff;fill-opacity:1;stroke:#00c2ff;stroke-width:0.283464;stroke-dasharray:none;stroke-opacity:1"
           id="g20">
          <g
             id="use18"
             transform="translate(56.654137,9.5679998)"
             style="fill:#00c2ff;fill-opacity:1;stroke:#00c2ff;stroke-width:0.283464;stroke-dasharray:none;stroke-opacity:1">
            <path
               style="fill:#00c2ff;fill-opacity:1;stroke:#00c2ff;stroke-width:0.283464;stroke-dasharray:none;stroke-opacity:1"
               d="m 5.140625,-2.328125 c 0,-1.40625 -1.09375,-2.5625 -2.421875,-2.5625 -1.359375,0 -2.40625,1.1875 -2.40625,2.5625 0,1.40625 1.125,2.453125 2.40625,2.453125 1.3125,0 2.421875,-1.078125 2.421875,-2.453125 z M 2.71875,-0.15625 c -0.46875,0 -0.9375,-0.21875 -1.234375,-0.734375 -0.28125,-0.46875 -0.28125,-1.140625 -0.28125,-1.53125 0,-0.421875 0,-1.015625 0.265625,-1.5 0.296875,-0.5 0.8125,-0.71875 1.25,-0.71875 0.484375,0 0.953125,0.234375 1.234375,0.703125 0.28125,0.46875 0.28125,1.109375 0.28125,1.515625 0,0.390625 0,0.984375 -0.25,1.46875 C 3.75,-0.46875 3.265625,-0.15625 2.71875,-0.15625 Z m 0,0"
               id="path30" />
          </g>
          <g
             id="use19"
             transform="translate(62.108685,9.5679998)"
             style="fill:#00c2ff;fill-opacity:1;stroke:#00c2ff;stroke-width:0.283464;stroke-dasharray:none;stroke-opacity:1">
            <path
               style="fill:#00c2ff;fill-opacity:1;stroke:#00c2ff;stroke-width:0.283464;stroke-dasharray:none;stroke-opacity:1"
               d="m 1.828125,-3.625 v -1.203125 l -1.515625,0.125 v 0.34375 c 0.75,0 0.84375,0.078125 0.84375,0.609375 v 2.921875 c 0,0.484375 -0.125,0.484375 -0.84375,0.484375 V 0 c 0.421875,-0.015625 0.9375,-0.03125 1.234375,-0.03125 0.4375,0 0.953125,0 1.390625,0.03125 V -0.34375 H 2.703125 c -0.8125,0 -0.828125,-0.109375 -0.828125,-0.5 v -1.6875 c 0,-1.078125 0.453125,-2.046875 1.28125,-2.046875 0.078125,0 0.109375,0 0.125,0.015625 -0.03125,0 -0.25,0.140625 -0.25,0.421875 0,0.296875 0.234375,0.46875 0.46875,0.46875 0.203125,0 0.46875,-0.140625 0.46875,-0.484375 0,-0.34375 -0.34375,-0.671875 -0.8125,-0.671875 -0.796875,0 -1.1875,0.734375 -1.328125,1.203125 z m 0,0"
               id="path31" />
          </g>
          <g
             id="use20"
             transform="translate(66.381783,9.5679998)"
             style="fill:#00c2ff;fill-opacity:1;stroke:#00c2ff;stroke-width:0.283464;stroke-dasharray:none;stroke-opacity:1">
            <path
               style="fill:#00c2ff;fill-opacity:1;stroke:#00c2ff;stroke-width:0.283464;stroke-dasharray:none;stroke-opacity:1"
               d="m 1.21875,-2.75 c 0.0625,-1.625 0.984375,-1.890625 1.359375,-1.890625 1.125,0 1.234375,1.46875 1.234375,1.890625 z M 1.203125,-2.515625 H 4.25 c 0.25,0 0.28125,0 0.28125,-0.234375 0,-1.078125 -0.59375,-2.140625 -1.953125,-2.140625 -1.265625,0 -2.265625,1.125 -2.265625,2.484375 0,1.46875 1.140625,2.53125 2.390625,2.53125 1.328125,0 1.828125,-1.21875 1.828125,-1.421875 0,-0.109375 -0.09375,-0.125 -0.140625,-0.125 -0.109375,0 -0.125,0.0625 -0.140625,0.140625 -0.390625,1.125 -1.375,1.125 -1.484375,1.125 -0.546875,0 -0.984375,-0.328125 -1.234375,-0.734375 C 1.203125,-1.40625 1.203125,-2.125 1.203125,-2.515625 Z m 0,0"
               id="path32" />
          </g>
        </g>
      </g>
    </g>
  </g>
</svg>
