<?xml version="1.0" encoding="UTF-8"?>
<svg xmlns="http://www.w3.org/2000/svg" xmlns:xlink="http://www.w3.org/1999/xlink" width="105.019" height="99.919" viewBox="0 0 105.019 99.919">
<defs>
<clipPath id="clip-0">
<path clip-rule="nonzero" d="M 73 32 L 105.019531 32 L 105.019531 68 L 73 68 Z M 73 32 "/>
</clipPath>
<clipPath id="clip-1">
<path clip-rule="nonzero" d="M 53 23 L 105.019531 23 L 105.019531 77 L 53 77 Z M 53 23 "/>
</clipPath>
<clipPath id="clip-2">
<path clip-rule="nonzero" d="M 0 0 L 96 0 L 96 99.917969 L 0 99.917969 Z M 0 0 "/>
</clipPath>
<clipPath id="clip-3">
<path clip-rule="nonzero" d="M 37 88 L 51 88 L 51 99.917969 L 37 99.917969 Z M 37 88 "/>
</clipPath>
<clipPath id="clip-4">
<path clip-rule="nonzero" d="M 37 88 L 51 88 L 51 99.917969 L 37 99.917969 Z M 37 88 "/>
</clipPath>
<clipPath id="clip-5">
<path clip-rule="nonzero" d="M 51 0 L 105.019531 0 L 105.019531 99.917969 L 51 99.917969 Z M 51 0 "/>
</clipPath>
</defs>
<g clip-path="url(#clip-0)">
<path fill="none" stroke-width="0.79701" stroke-linecap="butt" stroke-linejoin="miter" stroke="rgb(0%, 0%, 59.999084%)" stroke-opacity="1" stroke-miterlimit="10" d="M -2.552656 -0.0019375 C -2.552656 3.5215 -5.408125 6.376969 -8.927656 6.376969 C -12.451094 6.376969 -15.306562 3.5215 -15.306562 -0.0019375 C -15.306562 -3.521469 -12.451094 -6.376937 -8.927656 -6.376937 C -5.408125 -6.376937 -2.552656 -3.521469 -2.552656 -0.0019375 Z M -2.552656 -0.0019375 " transform="matrix(1, 0, 0, -1, 100.33, 49.959)"/>
</g>
<g clip-path="url(#clip-1)">
<path fill="none" stroke-width="0.79701" stroke-linecap="butt" stroke-linejoin="miter" stroke="rgb(0%, 0%, 59.999084%)" stroke-opacity="1" stroke-miterlimit="10" d="M -5.951094 -0.0019375 C -5.951094 8.220719 -12.615156 14.880875 -20.833906 14.880875 C -29.052656 14.880875 -35.716719 8.220719 -35.716719 -0.0019375 C -35.716719 -8.220687 -29.052656 -14.880844 -20.833906 -14.880844 C -12.615156 -14.880844 -5.951094 -8.220687 -5.951094 -0.0019375 Z M -5.951094 -0.0019375 " transform="matrix(1, 0, 0, -1, 100.33, 49.959)"/>
</g>
<path fill="none" stroke-width="0.79701" stroke-linecap="butt" stroke-linejoin="miter" stroke="rgb(0%, 0%, 59.999084%)" stroke-opacity="1" stroke-miterlimit="10" d="M -9.353437 -0.0019375 C -9.353437 12.916031 -19.826094 23.384781 -32.740156 23.384781 C -45.654219 23.384781 -56.126875 12.916031 -56.126875 -0.0019375 C -56.126875 -12.916 -45.654219 -23.38475 -32.740156 -23.38475 C -19.826094 -23.38475 -9.353437 -12.916 -9.353437 -0.0019375 Z M -9.353437 -0.0019375 " transform="matrix(1, 0, 0, -1, 100.33, 49.959)"/>
<path fill="none" stroke-width="0.79701" stroke-linecap="butt" stroke-linejoin="miter" stroke="rgb(0%, 0%, 59.999084%)" stroke-opacity="1" stroke-miterlimit="10" d="M -12.755781 -0.0019375 C -12.755781 17.611344 -27.033125 31.888688 -44.646406 31.888688 C -62.255781 31.888688 -76.533125 17.611344 -76.533125 -0.0019375 C -76.533125 -17.611312 -62.255781 -31.888656 -44.646406 -31.888656 C -27.033125 -31.888656 -12.755781 -17.611312 -12.755781 -0.0019375 Z M -12.755781 -0.0019375 " transform="matrix(1, 0, 0, -1, 100.33, 49.959)"/>
<g clip-path="url(#clip-2)">
<path fill="none" stroke-width="0.79701" stroke-linecap="butt" stroke-linejoin="miter" stroke="rgb(0%, 0%, 59.999084%)" stroke-opacity="1" stroke-miterlimit="10" d="M -16.158125 -0.0019375 C -16.158125 22.306656 -34.244062 40.392594 -56.552656 40.392594 C -78.86125 40.392594 -96.943281 22.306656 -96.943281 -0.0019375 C -96.943281 -22.306625 -78.86125 -40.392562 -56.552656 -40.392562 C -34.244062 -40.392562 -16.158125 -22.306625 -16.158125 -0.0019375 Z M -16.158125 -0.0019375 " transform="matrix(1, 0, 0, -1, 100.33, 49.959)"/>
</g>
<path fill="none" stroke-width="0.3985" stroke-linecap="butt" stroke-linejoin="miter" stroke="rgb(0%, 59.999084%, 0%)" stroke-opacity="1" stroke-miterlimit="10" d="M -56.552656 38.267594 L -56.552656 43.982438 " transform="matrix(1, 0, 0, -1, 100.33, 49.959)"/>
<path fill-rule="nonzero" fill="rgb(0%, 59.999084%, 0%)" fill-opacity="1" stroke-width="0.3985" stroke-linecap="butt" stroke-linejoin="miter" stroke="rgb(0%, 59.999084%, 0%)" stroke-opacity="1" stroke-miterlimit="10" d="M 1.871061 0.00135625 C 1.640593 0.0521375 0.63278 0.349013 -0.0000325 0.669325 L -0.0000325 -0.666612 C 0.63278 -0.3463 1.640593 -0.0533312 1.871061 0.00135625 Z M 1.871061 0.00135625 " transform="matrix(0, -1, -1, 0, 43.7787, 5.97653)"/>
<path fill="none" stroke-width="0.3985" stroke-linecap="butt" stroke-linejoin="miter" stroke="rgb(0%, 59.999084%, 0%)" stroke-opacity="1" stroke-miterlimit="10" d="M -56.552656 38.267594 L -56.552656 43.982438 " transform="matrix(1, 0, 0, -1, 100.33, 49.959)"/>
<path fill-rule="nonzero" fill="rgb(0%, 59.999084%, 0%)" fill-opacity="1" stroke-width="0.3985" stroke-linecap="butt" stroke-linejoin="miter" stroke="rgb(0%, 59.999084%, 0%)" stroke-opacity="1" stroke-miterlimit="10" d="M 1.871061 0.00135625 C 1.640593 0.0521375 0.63278 0.349013 -0.0000325 0.669325 L -0.0000325 -0.666612 C 0.63278 -0.3463 1.640593 -0.0533312 1.871061 0.00135625 Z M 1.871061 0.00135625 " transform="matrix(0, -1, -1, 0, 43.7787, 5.97653)"/>
<path fill="none" stroke-width="0.3985" stroke-linecap="butt" stroke-linejoin="miter" stroke="rgb(0%, 59.999084%, 0%)" stroke-opacity="1" stroke-miterlimit="10" d="M -89.693281 19.134781 L -94.6425 21.99025 " transform="matrix(1, 0, 0, -1, 100.33, 49.959)"/>
<path fill-rule="nonzero" fill="rgb(0%, 59.999084%, 0%)" fill-opacity="1" stroke-width="0.3985" stroke-linecap="butt" stroke-linejoin="miter" stroke="rgb(0%, 59.999084%, 0%)" stroke-opacity="1" stroke-miterlimit="10" d="M 1.87017 -0.00165698 C 1.64124 0.0511038 0.631144 0.347487 -0.000650499 0.668329 L -0.000993125 -0.667015 C 0.630851 -0.347319 1.642185 -0.0520951 1.87017 -0.00165698 Z M 1.87017 -0.00165698 " transform="matrix(-0.86601, -0.5, -0.5, 0.86601, 5.68907, 27.96777)"/>
<path fill="none" stroke-width="0.3985" stroke-linecap="butt" stroke-linejoin="miter" stroke="rgb(0%, 59.999084%, 0%)" stroke-opacity="1" stroke-miterlimit="10" d="M -89.693281 -19.13475 L -94.6425 -21.990219 " transform="matrix(1, 0, 0, -1, 100.33, 49.959)"/>
<path fill-rule="nonzero" fill="rgb(0%, 59.999084%, 0%)" fill-opacity="1" stroke-width="0.3985" stroke-linecap="butt" stroke-linejoin="miter" stroke="rgb(0%, 59.999084%, 0%)" stroke-opacity="1" stroke-miterlimit="10" d="M 1.870154 0.00162992 C 1.64217 0.0520681 0.630835 0.347292 -0.00100875 0.666988 L -0.000666124 -0.668356 C 0.631128 -0.347514 1.641225 -0.0511309 1.870154 0.00162992 Z M 1.870154 0.00162992 " transform="matrix(-0.86601, 0.5, 0.5, 0.86601, 5.68907, 71.95023)"/>
<path fill="none" stroke-width="0.3985" stroke-linecap="butt" stroke-linejoin="miter" stroke="rgb(0%, 59.999084%, 0%)" stroke-opacity="1" stroke-miterlimit="10" d="M -56.552656 -38.267562 L -56.552656 -43.982406 " transform="matrix(1, 0, 0, -1, 100.33, 49.959)"/>
<path fill-rule="nonzero" fill="rgb(0%, 59.999084%, 0%)" fill-opacity="1" d="M 43.777344 95.8125 C 43.832031 95.582031 44.125 94.574219 44.445312 93.941406 L 43.109375 93.941406 C 43.429688 94.574219 43.726562 95.582031 43.777344 95.8125 Z M 43.777344 95.8125 "/>
<g clip-path="url(#clip-3)">
<path fill="none" stroke-width="0.3985" stroke-linecap="butt" stroke-linejoin="miter" stroke="rgb(0%, 59.999084%, 0%)" stroke-opacity="1" stroke-miterlimit="10" d="M 1.87103 -0.00135625 C 1.640561 0.0533312 0.632749 0.3463 -0.00006375 0.666612 L -0.00006375 -0.669325 C 0.632749 -0.349013 1.640561 -0.0521375 1.87103 -0.00135625 Z M 1.87103 -0.00135625 " transform="matrix(0, 1, 1, 0, 43.7787, 93.94147)"/>
</g>
<path fill="none" stroke-width="0.3985" stroke-linecap="butt" stroke-linejoin="miter" stroke="rgb(0%, 59.999084%, 0%)" stroke-opacity="1" stroke-miterlimit="10" d="M -56.552656 -38.267562 L -56.552656 -43.982406 " transform="matrix(1, 0, 0, -1, 100.33, 49.959)"/>
<path fill-rule="nonzero" fill="rgb(0%, 59.999084%, 0%)" fill-opacity="1" d="M 43.777344 95.8125 C 43.832031 95.582031 44.125 94.574219 44.445312 93.941406 L 43.109375 93.941406 C 43.429688 94.574219 43.726562 95.582031 43.777344 95.8125 Z M 43.777344 95.8125 "/>
<g clip-path="url(#clip-4)">
<path fill="none" stroke-width="0.3985" stroke-linecap="butt" stroke-linejoin="miter" stroke="rgb(0%, 59.999084%, 0%)" stroke-opacity="1" stroke-miterlimit="10" d="M 1.87103 -0.00135625 C 1.640561 0.0533312 0.632749 0.3463 -0.00006375 0.666612 L -0.00006375 -0.669325 C 0.632749 -0.349013 1.640561 -0.0521375 1.87103 -0.00135625 Z M 1.87103 -0.00135625 " transform="matrix(0, 1, 1, 0, 43.7787, 93.94147)"/>
</g>
<path fill-rule="nonzero" fill="rgb(79.998779%, 0%, 0%)" fill-opacity="1" d="M 102.03125 49.960938 C 102.03125 49.019531 101.269531 48.257812 100.328125 48.257812 C 99.390625 48.257812 98.628906 49.019531 98.628906 49.960938 C 98.628906 50.898438 99.390625 51.660156 100.328125 51.660156 C 101.269531 51.660156 102.03125 50.898438 102.03125 49.960938 Z M 102.03125 49.960938 "/>
<g clip-path="url(#clip-5)">
<path fill="none" stroke-width="0.3985" stroke-linecap="butt" stroke-linejoin="miter" stroke="rgb(63.999939%, 9.999084%, 9.999084%)" stroke-opacity="1" stroke-dasharray="1.99255 1.99255" stroke-miterlimit="10" d="M -0.466719 0.912125 L -43.619062 44.939469 M -0.466719 -0.912094 L -43.619062 -44.939437 " transform="matrix(1, 0, 0, -1, 100.33, 49.959)"/>
</g>
<path fill="none" stroke-width="0.3985" stroke-linecap="butt" stroke-linejoin="miter" stroke="rgb(0%, 59.999084%, 0%)" stroke-opacity="1" stroke-miterlimit="10" d="M -11.419844 9.224625 L -7.341719 13.224625 " transform="matrix(1, 0, 0, -1, 100.33, 49.959)"/>
<path fill-rule="nonzero" fill="rgb(0%, 59.999084%, 0%)" fill-opacity="1" stroke-width="0.3985" stroke-linecap="butt" stroke-linejoin="miter" stroke="rgb(0%, 59.999084%, 0%)" stroke-opacity="1" stroke-miterlimit="10" d="M 1.870385 0.000759454 C 1.640595 0.0509187 0.629304 0.347308 -0.00103298 0.669654 L 0.00145683 -0.667339 C 0.630829 -0.348811 1.641658 -0.0540431 1.870385 0.000759454 Z M 1.870385 0.000759454 " transform="matrix(0.71419, -0.69987, -0.69987, -0.71419, 92.98894, 36.73535)"/>
<path fill="none" stroke-width="0.3985" stroke-linecap="butt" stroke-linejoin="miter" stroke="rgb(0%, 59.999084%, 0%)" stroke-opacity="1" stroke-miterlimit="10" d="M -11.419844 -9.224594 L -7.341719 -13.224594 " transform="matrix(1, 0, 0, -1, 100.33, 49.959)"/>
<path fill-rule="nonzero" fill="rgb(0%, 59.999084%, 0%)" fill-opacity="1" stroke-width="0.3985" stroke-linecap="butt" stroke-linejoin="miter" stroke="rgb(0%, 59.999084%, 0%)" stroke-opacity="1" stroke-miterlimit="10" d="M 1.870363 -0.000737133 C 1.641636 0.0540654 0.630807 0.348833 0.00143496 0.667362 L -0.00105486 -0.669632 C 0.629282 -0.347286 1.640573 -0.0508964 1.870363 -0.000737133 Z M 1.870363 -0.000737133 " transform="matrix(0.71419, 0.69987, 0.69987, -0.71419, 92.98894, 63.18265)"/>
<path fill="none" stroke-width="0.3985" stroke-linecap="butt" stroke-linejoin="miter" stroke="rgb(0%, 59.999084%, 0%)" stroke-opacity="1" stroke-miterlimit="10" d="M -23.087812 21.126969 L -19.005781 25.126969 " transform="matrix(1, 0, 0, -1, 100.33, 49.959)"/>
<path fill-rule="nonzero" fill="rgb(0%, 59.999084%, 0%)" fill-opacity="1" stroke-width="0.3985" stroke-linecap="butt" stroke-linejoin="miter" stroke="rgb(0%, 59.999084%, 0%)" stroke-opacity="1" stroke-miterlimit="10" d="M 1.870366 -0.000770907 C 1.64331 0.0521784 0.63202 0.348568 -0.00105196 0.668124 L 0.00143786 -0.66887 C 0.633544 -0.347551 1.641583 -0.0500492 1.870366 -0.000770907 Z M 1.870366 -0.000770907 " transform="matrix(0.71419, -0.69987, -0.69987, -0.71419, 81.32382, 24.8319)"/>
<path fill="none" stroke-width="0.3985" stroke-linecap="butt" stroke-linejoin="miter" stroke="rgb(0%, 59.999084%, 0%)" stroke-opacity="1" stroke-miterlimit="10" d="M -23.087812 -21.126937 L -19.005781 -25.126937 " transform="matrix(1, 0, 0, -1, 100.33, 49.959)"/>
<path fill-rule="nonzero" fill="rgb(0%, 59.999084%, 0%)" fill-opacity="1" stroke-width="0.3985" stroke-linecap="butt" stroke-linejoin="miter" stroke="rgb(0%, 59.999084%, 0%)" stroke-opacity="1" stroke-miterlimit="10" d="M 1.870344 0.000793228 C 1.641561 0.0500715 0.633522 0.347573 0.00141598 0.668892 L -0.00107383 -0.668102 C 0.631998 -0.348545 1.643288 -0.0521561 1.870344 0.000793228 Z M 1.870344 0.000793228 " transform="matrix(0.71419, 0.69987, 0.69987, -0.71419, 81.32382, 75.0861)"/>
<path fill="none" stroke-width="0.3985" stroke-linecap="butt" stroke-linejoin="miter" stroke="rgb(0%, 59.999084%, 0%)" stroke-opacity="1" stroke-miterlimit="10" d="M -34.751875 33.033219 L -30.669844 37.029313 " transform="matrix(1, 0, 0, -1, 100.33, 49.959)"/>
<path fill-rule="nonzero" fill="rgb(0%, 59.999084%, 0%)" fill-opacity="1" stroke-width="0.3985" stroke-linecap="butt" stroke-linejoin="miter" stroke="rgb(0%, 59.999084%, 0%)" stroke-opacity="1" stroke-miterlimit="10" d="M 1.873395 0.000209163 C 1.640815 0.0531026 0.632315 0.346758 0.00197724 0.669104 L -0.00105725 -0.667946 C 0.631049 -0.346627 1.641878 -0.0518592 1.873395 0.000209163 Z M 1.873395 0.000209163 " transform="matrix(0.71419, -0.69987, -0.69987, -0.71419, 69.65828, 12.92847)"/>
<path fill="none" stroke-width="0.3985" stroke-linecap="butt" stroke-linejoin="miter" stroke="rgb(0%, 59.999084%, 0%)" stroke-opacity="1" stroke-miterlimit="10" d="M -34.751875 -33.033187 L -30.669844 -37.029281 " transform="matrix(1, 0, 0, -1, 100.33, 49.959)"/>
<path fill-rule="nonzero" fill="rgb(0%, 59.999084%, 0%)" fill-opacity="1" stroke-width="0.3985" stroke-linecap="butt" stroke-linejoin="miter" stroke="rgb(0%, 59.999084%, 0%)" stroke-opacity="1" stroke-miterlimit="10" d="M 1.873373 -0.000186842 C 1.641856 0.0518815 0.631027 0.346649 -0.00107913 0.667968 L 0.00195536 -0.669082 C 0.632293 -0.346735 1.640793 -0.0530802 1.873373 -0.000186842 Z M 1.873373 -0.000186842 " transform="matrix(0.71419, 0.69987, 0.69987, -0.71419, 69.65828, 86.98953)"/>
</svg>
