<?xml version="1.0" encoding="UTF-8" standalone="no"?>
<svg
   version="1.0"
   width="350"
   height="180"
   id="Gram-Schmidt process"
   sodipodi:docname="Gram–Schmidt_process.svg"
   inkscape:version="1.3 (0e150ed6c4, 2023-07-21)"
   inkscape:export-filename="../Documenti/Fisica/Geometria_e_Algebra_lineare (copia)/figures/gram.svg"
   inkscape:export-xdpi="96"
   inkscape:export-ydpi="96"
   xmlns:inkscape="http://www.inkscape.org/namespaces/inkscape"
   xmlns:sodipodi="http://sodipodi.sourceforge.net/DTD/sodipodi-0.dtd"
   xmlns="http://www.w3.org/2000/svg"
   xmlns:svg="http://www.w3.org/2000/svg">
  <sodipodi:namedview
     id="namedview1"
     pagecolor="#505050"
     bordercolor="#eeeeee"
     borderopacity="1"
     inkscape:showpageshadow="0"
     inkscape:pageopacity="0"
     inkscape:pagecheckerboard="0"
     inkscape:deskcolor="#505050"
     showgrid="false"
     inkscape:zoom="2.0970767"
     inkscape:cx="46.73172"
     inkscape:cy="111.34548"
     inkscape:window-width="1920"
     inkscape:window-height="1011"
     inkscape:window-x="0"
     inkscape:window-y="0"
     inkscape:window-maximized="1"
     inkscape:current-layer="g3153" />
  <defs
     id="defs3145" />
  <g
     transform="matrix(1.340265,0,0,1.340265,-101.8945,-4.636738)"
     id="g3153">
    <path
       d="M 0,721.988 Z"
       style="fill:#000000;fill-opacity:0.999925;fill-rule:evenodd;stroke:none"
       id="path3155" />
    <path
       d="m 295.153,77.284 9.325,-7.309 -11.846,-0.252 5.494,2.369"
       style="fill:#000000;fill-opacity:0.999925;fill-rule:evenodd;stroke:none"
       id="path3157" />
    <path
       d="M 134.4,126.668 298.127,72.092"
       style="fill:#000000;fill-opacity:0.999925;stroke:#000000;stroke-width:0.797011"
       id="path3159" />
    <path
       d="m 242.714,23.99 5.072,-10.708 -10.708,5.072 5.974,-0.338"
       style="fill:#13b7ff;fill-opacity:1;fill-rule:evenodd;stroke:none"
       id="path3161" />
    <path
       d="M 134.4,126.668 243.052,18.016"
       style="fill:#13b7ff;fill-opacity:1;stroke:#13b7ff;stroke-width:0.797011;stroke-opacity:1"
       id="path3163" />
    <path
       d="m 261.137,88.623 9.325,-7.309 -11.846,-0.252 5.494,2.369"
       style="fill:#13b7ff;fill-opacity:1;fill-rule:evenodd;stroke:none"
       id="path3165" />
    <path
       d="M 134.4,126.668 214.46282,99.980394 264.111,83.431"
       style="fill:#000000;fill-opacity:0.999925;stroke:#13b7ff;stroke-width:0.797011;stroke-opacity:1"
       id="path3167"
       sodipodi:nodetypes="ccc" />
    <path
       d="m 119.032,67.962 -7.309,-9.325 -0.252,11.846 2.369,-5.494"
       style="fill:#13b7ff;fill-opacity:1;fill-rule:evenodd;stroke:none"
       id="path3169" />
    <path
       d="M 134.4,126.668 113.84,64.988"
       style="fill:#13b7ff;fill-opacity:1;stroke:#13b7ff;stroke-width:0.797011;stroke-opacity:1"
       id="path3171" />
    <path
       d="m 178.858,116.049 9.325,-7.309 -11.846,-0.252 5.494,2.369"
       style="fill:#000000;fill-opacity:0.999925;fill-rule:evenodd;stroke:none"
       id="path3173" />
    <path
       d="m 134.4,126.668 47.432,-15.81"
       style="fill:#000000;fill-opacity:0.999925;stroke:#000000;stroke-width:0.797011"
       id="path3175" />
    <path
       d="m 123.781,82.21 -7.309,-9.3251 -0.252,11.8461 2.369,-5.494"
       style="fill:#000000;fill-opacity:0.999925;fill-rule:evenodd;stroke:none"
       id="path3177" />
    <path
       d="M 134.4,126.668 118.589,79.236"
       style="fill:#000000;fill-opacity:0.999925;stroke:#000000;stroke-width:0.797011"
       id="path3179" />
    <path
       d="m 247.786,13.282 22.677,68.031"
       style="fill:#000000;fill-opacity:0.999925;stroke:#13b7ff;stroke-width:0.498132;stroke-miterlimit:4;stroke-dasharray:5.97758, 5.97758;stroke-dashoffset:0;stroke-opacity:0.486133"
       id="path3181" />
    <path
       d="M 247.786,13.282 111.723,58.636"
       style="fill:#000000;fill-opacity:0.999925;stroke:#13b7ff;stroke-width:0.498132;stroke-miterlimit:4;stroke-dasharray:5.97758, 5.97758;stroke-dashoffset:0;stroke-opacity:0.486133"
       id="path3183" />
    <path
       d="m 315.7,80.14 v 1.248 l 2.803,-0.096 v -0.704 c -0.988,0 -1.103,-0.049 -1.103,-0.671 v -5.829 l -2.914,0.128 v 0.772 c 0.988,0 1.079,0.004 1.079,0.625 v 3.045 c 0,1.307 -0.805,2.13 -1.956,2.13 -1.226,0 -1.309,-0.392 -1.309,-1.238 v -5.463 l -2.883,0.128 v 0.772 c 0.988,0 1.083,0.004 1.083,0.625 v 3.714 c 0,1.706 1.298,2.061 2.885,2.061 0.414,0 1.562,-0.004 2.295,-1.248 z"
       style="fill:#000000;fill-opacity:0.999925;fill-rule:evenodd;stroke:none"
       id="path3185" />
    <path
       d="m 322.6,76.491 c 0,-0.301 -0.02,-0.303 -0.297,-0.303 -0.714,0.694 -1.729,0.7 -2.187,0.7 v 0.4 c 0.262,0 0.983,0.007 1.584,-0.306 v 5.691 c 0,0.368 0.034,0.515 -1.082,0.515 h -0.423 v 0.4 c 0.201,-0.011 1.573,-0.045 1.985,-0.045 0.346,0 1.752,0.033 1.997,0.045 v -0.4 h -0.424 c -1.116,0 -1.153,-0.146 -1.153,-0.515 z"
       style="fill:#000000;fill-opacity:0.999925;fill-rule:evenodd;stroke:none"
       id="path3187" />
    <path
       d="m 316.466,62.294 c 0.092,-0.223 0.153,-0.406 1.134,-0.406 v -0.676 c -0.384,0.032 -0.83,0.025 -1.214,0.025 -0.402,0 -1.127,-0.039 -1.465,-0.048 v 0.7 c 0.309,0 0.765,0.067 0.765,0.2459 0,0.0161 0.014,0.0321 -0.065,0.1911 l -1.849,3.985 -2.024,-4.423 h 0.815 v -0.7 c -0.514,0.047 -1.916,0.048 -1.931,0.048 -0.45,0 -1.173,-0.039 -1.832,-0.048 v 0.7 h 1.035 l 2.79,6.065 c 0.191,0.399 0.399,0.435 0.606,0.435 0.271,0 0.43,-0.052 0.59,-0.419 z"
       style="fill:#000000;fill-opacity:0.999925;fill-rule:evenodd;stroke:none"
       id="path3189" />
    <path
       d="m 321.7,63.491 c 0,-0.301 -0.02,-0.303 -0.297,-0.303 -0.714,0.694 -1.729,0.7 -2.187,0.7 v 0.4 c 0.262,0 0.983,0.007 1.584,-0.306 v 5.691 c 0,0.368 0.034,0.515 -1.081,0.515 h -0.424 v 0.4 c 0.201,-0.011 1.573,-0.045 1.986,-0.045 0.345,0 1.751,0.033 1.996,0.045 v -0.4 h -0.423 c -1.116,0 -1.154,-0.146 -1.154,-0.515 z"
       style="fill:#000000;fill-opacity:0.999925;fill-rule:evenodd;stroke:none"
       id="path3191" />
    <path
       d="m 261.766,14.694 c 0.092,-0.2231 0.153,-0.406 1.134,-0.406 v -0.676 c -0.384,0.032 -0.83,0.024 -1.214,0.024 -0.402,0 -1.127,-0.038 -1.465,-0.047 v 0.7 c 0.309,0 0.765,0.066 0.765,0.246 0,0.016 0.014,0.032 -0.065,0.191 l -1.849,3.985 -2.024,-4.423 h 0.815 v -0.7 c -0.514,0.0469 -1.916,0.048 -1.931,0.048 -0.45,0 -1.173,-0.039 -1.832,-0.048 v 0.7 h 1.035 l 2.79,6.065 c 0.191,0.399 0.399,0.435 0.606,0.435 0.271,0 0.43,-0.052 0.59,-0.419 z"
       style="fill:#13b7ff;fill-opacity:1;fill-rule:evenodd;stroke:none"
       id="path3193" />
    <path
       d="m 268.935,20.957 h -0.379 c -0.033,0.245 -0.145,0.904 -0.29,1.015 -0.089,0.067 -0.948,0.115 -1.105,0.115 h -2.053 c 1.172,-1.065 1.562,-1.385 2.232,-1.923 0.826,-0.658 1.561,-1.35 1.561,-2.41 0,-1.35 -1.167,-2.167 -2.576,-2.167 -1.384,0 -2.324,0.966 -2.324,1.988 0,0.569 0.482,0.612 0.594,0.612 0.268,0 0.606,-0.185 0.606,-0.5781 0,-0.2009 -0.08,-0.6219 -0.673,-0.6219 0.346,-0.769 1.105,-1 1.629,-1 1.116,0 1.644,0.867 1.644,1.767 0,0.971 -0.657,1.741 -0.996,2.142 l -2.689,2.655 c -0.112,0.1 -0.115,0.123 -0.115,0.435 h 4.6 z"
       style="fill:#13b7ff;fill-opacity:1;fill-rule:evenodd;stroke:none"
       id="path3195" />
    <path
       d="m 246.7,97.3589 c 0.345,-0.6099 0.928,-1.0029 1.534,-1.0029 0.873,0 1.566,1.072 1.566,2.449 0,1.447 -0.819,2.414 -1.685,2.414 -0.478,0 -0.932,-0.227 -1.255,-0.692 -0.167,-0.251 -0.16,-0.263 -0.16,-0.502 z m 0,3.3241 c 0.059,0.191 0.559,0.837 1.463,0.837 1.423,0 2.637,-1.172 2.637,-2.714 0,-1.518 -1.146,-2.7491 -2.47,-2.7491 -0.928,0 -1.428,0.5581 -1.666,0.8361 v -0.789 l -1.729,0.132 v 0.3209 c 0.849,0 0.965,0.078 0.965,0.6471 v 5.595 c 0,0.538 -0.136,0.489 -0.965,0.489 v 0.4 c 0.406,-0.006 1.028,-0.036 1.339,-0.036 0.323,0 0.932,0.017 1.351,0.036 v -0.4 c -0.801,0 -0.925,0.049 -0.925,-0.489 v -2.008 z"
       style="fill:#000000;fill-opacity:0.999925;fill-rule:evenodd;stroke:none"
       id="path3197" />
    <path
       d="m 253.4,100.456 v -1.841 c 0,-1.184 0.487,-2.258 1.367,-2.258 0.084,0 0.108,0.01 0.131,0.022 -0.036,0.012 -0.299,0.155 -0.299,0.466 0,0.335 0.263,0.5139 0.538,0.5139 0.215,0 0.561,-0.1429 0.561,-0.526 0,-0.3829 -0.39,-0.7769 -0.932,-0.7769 -0.847,0 -1.264,0.83 -1.427,1.362 v -1.315 l -1.705,0.132 v 0.321 c 0.837,0 0.965,0.09 0.965,0.719 v 3.204 c 0,0.538 -0.136,0.509 -0.965,0.509 v 0.399 c 0.466,-0.012 1.028,-0.035 1.363,-0.035 0.478,0 1.04,0 1.518,0.035 v -0.399 h -0.251 c -0.885,0 -0.865,-0.125 -0.865,-0.533 z"
       style="fill:#000000;fill-opacity:0.999925;fill-rule:evenodd;stroke:none"
       id="path3199" />
    <path
       d="m 261.6,98.83 c 0,-1.53 -1.182,-2.845 -2.611,-2.845 -1.494,0 -2.689,1.325 -2.689,2.845 0,1.542 1.26,2.69 2.677,2.69 1.447,0 2.623,-1.172 2.623,-2.69 z m -2.611,2.39 c -0.514,0 -1.04,-0.251 -1.363,-0.8 -0.299,-0.526 -0.326,-1.255 -0.326,-1.685 0,-0.466 0.027,-1.112 0.314,-1.638 0.323,-0.55 0.885,-0.8111 1.363,-0.8111 0.526,0 1.04,0.2671 1.351,0.7871 0.31,0.514 0.272,1.207 0.272,1.662 0,0.43 0.038,1.076 -0.224,1.601 -0.263,0.538 -0.789,0.884 -1.387,0.884 z"
       style="fill:#000000;fill-opacity:0.999925;fill-rule:evenodd;stroke:none"
       id="path3201" />
    <path
       d="m 265.3,96.104 -1.807,0.132 v 0.3209 c 0.921,0 1.007,0.0901 1.007,0.7191 v 4.734 c 0,0.538 -0.105,1.509 -0.851,1.509 -0.06,0 -0.335,0.056 -0.646,-0.098 0.179,-0.048 0.397,-0.215 0.397,-0.538 0,-0.311 -0.207,-0.594 -0.528,-0.594 -0.335,0 -0.572,0.258 -0.572,0.594 0,0.622 0.68,0.937 1.373,0.937 0.897,0 1.627,-0.757 1.627,-1.834 z m 0.011,-2.08 c 0,-0.347 -0.287,-0.636 -0.634,-0.636 -0.347,0 -0.677,0.288 -0.677,0.636 0,0.347 0.307,0.664 0.677,0.664 0.347,0 0.634,-0.301 0.634,-0.664 z"
       style="fill:#000000;fill-opacity:0.999925;fill-rule:evenodd;stroke:none"
       id="path3203" />
    <path
       d="m 269.698,100.455 v 0.433 c 0.494,0 0.502,0.07 0.502,0.396 v 1.548 c 0,0.695 -0.509,1.056 -1.113,1.056 -0.72,0 -0.687,-0.195 -0.687,-0.621 v -2.879 l -1.663,0.067 v 0.433 c 0.493,0 0.564,0.069 0.564,0.396 v 1.891 c 0,0.97 0.926,1.112 1.644,1.112 0.264,0 0.857,-0.049 1.314,-0.643 v 0.643 l 1.624,-0.049 v -0.518 c -0.494,0 -0.582,0 -0.582,-0.326 v -3.005 z"
       style="fill:#000000;fill-opacity:0.999925;fill-rule:evenodd;stroke:none"
       id="path3205" />
    <path
       d="m 274.7,101.586 c 0,-0.179 -0.02,-0.198 -0.236,-0.198 -0.424,0.401 -1.088,0.4 -1.207,0.4 h -0.101 v 0.3 h 0.101 c 0.149,0 0.569,-0.022 0.944,-0.203 v 2.989 c 0,0.185 -0.071,0.214 -0.704,0.214 h -0.299 v 0.299 c 0.329,-0.024 0.861,-0.024 1.207,-0.024 0.347,0 0.879,0 1.207,0.024 v -0.299 h -0.299 c -0.634,0 -0.613,-0.056 -0.613,-0.214 z"
       style="fill:#000000;fill-opacity:0.999925;fill-rule:evenodd;stroke:none"
       id="path3207" />
    <path
       d="m 283.549,96.893 c 0.069,-0.167 0.115,-0.205 0.851,-0.205 V 96.08 c -0.288,0.024 -0.622,0.044 -0.91,0.044 -0.302,0 -0.845,-0.021 -1.099,-0.036 v 0.6 c 0.231,0 0.574,0.023 0.574,0.0849 0,0.0121 0.011,0.0241 -0.049,0.1431 l -1.387,2.989 -1.518,-3.218 h 0.612 v -0.6 c -0.385,0.019 -1.437,0.036 -1.448,0.036 -0.337,0 -0.88,-0.021 -1.374,-0.036 v 0.6 h 0.776 l 2.092,4.449 c 0.143,0.299 0.299,0.251 0.454,0.251 0.203,0 0.323,-0.03 0.442,-0.239 z"
       style="fill:#000000;fill-opacity:0.999925;fill-rule:evenodd;stroke:none"
       id="path3209" />
    <path
       d="m 288.926,101.565 h -0.285 c -0.025,0.184 -0.109,0.678 -0.218,0.762 -0.067,0.05 -0.711,0.062 -0.828,0.062 h -1.54 c 0.879,-0.785 1.172,-1.021 1.674,-1.417 0.619,-0.494 1.171,-1.013 1.171,-1.808 0,-1.013 -0.875,-1.675 -1.932,-1.675 -1.038,0 -1.768,0.749 -1.768,1.541 0,0.427 0.382,0.459 0.471,0.459 0.201,0 0.429,-0.139 0.429,-0.434 0,-0.151 -0.057,-0.466 -0.478,-0.466 0.258,-0.577 0.827,-0.799 1.222,-0.799 0.836,0 1.257,0.674 1.257,1.375 0,0.727 -0.508,1.305 -0.772,1.606 l -2.017,1.992 c -0.083,0.075 -0.11,0.092 -0.11,0.326 h 3.475 z"
       style="fill:#000000;fill-opacity:0.999925;fill-rule:evenodd;stroke:none"
       id="path3211" />
    <path
       d="m 95.2998,63.74 v 1.248 l 2.803,-0.096 V 64.188 C 97.115,64.188 97,64.139 97,63.517 v -5.829 l -2.9138,0.128 v 0.772 c 0.9878,0 1.0788,0.004 1.0788,0.625 v 3.045 c 0,1.307 -0.8049,2.13 -1.9558,2.13 -1.2268,0 -1.3098,-0.392 -1.3098,-1.238 v -5.463 l -2.8828,0.128 v 0.772 c 0.9878,0 1.0828,0.004 1.0828,0.625 v 3.714 c 0,1.706 1.2988,2.061 2.886,2.061 0.4138,0 1.5617,-0.004 2.2949,-1.248 z"
       style="fill:#000000;fill-opacity:0.999925;fill-rule:evenodd;stroke:none"
       id="path3213" />
    <path
       d="m 104.135,65.157 h -0.379 c -0.033,0.245 -0.145,0.904 -0.29,1.015 -0.089,0.067 -0.948,0.115 -1.105,0.115 h -2.053 c 1.172,-1.065 1.562,-1.385 2.232,-1.923 0.826,-0.658 1.561,-1.35 1.561,-2.41 0,-1.35 -1.167,-2.167 -2.576,-2.167 -1.384,0 -2.3241,0.966 -2.3241,1.988 0,0.569 0.482,0.612 0.594,0.612 0.2681,0 0.6061,-0.185 0.6061,-0.578 0,-0.201 -0.08,-0.622 -0.673,-0.622 0.346,-0.769 1.105,-1 1.629,-1 1.116,0 1.644,0.867 1.644,1.767 0,0.971 -0.657,1.7409 -0.996,2.1419 l -2.6891,2.6561 c -0.1118,0.1 -0.115,0.122 -0.115,0.434 h 4.6001 z"
       style="fill:#000000;fill-opacity:0.999925;fill-rule:evenodd;stroke:none"
       id="path3215" />
    <path
       d="m 187.764,122.388 c 0.351,0 0.536,0.025 0.536,-0.405 0,-0.494 -0.098,-1.658 -0.918,-2.454 -0.59,-0.574 -1.435,-0.883 -2.534,-0.883 -2.55,0 -3.947,1.652 -3.947,3.657 0,2.136 1.598,3.686 4.17,3.686 2.519,0 3.23,-1.692 3.23,-1.964 0,-0.287 -0.323,-0.287 -0.408,-0.287 -0.271,0 -0.303,0.08 -0.398,0.335 -0.335,0.765 -1.243,1.317 -2.279,1.317 -2.247,0 -2.314,-2.168 -2.314,-3 z m -4.864,-0.5 c 0.036,-0.622 0.054,-1.292 0.433,-1.818 0.414,-0.638 1.052,-0.825 1.514,-0.825 1.865,0 1.897,2.086 1.913,2.643 z"
       style="fill:#000000;fill-opacity:0.999925;fill-rule:evenodd;stroke:none"
       id="path3217" />
    <path
       d="m 192.5,121.091 c 0,-0.301 -0.02,-0.303 -0.297,-0.303 -0.714,0.694 -1.729,0.7 -2.187,0.7 v 0.4 c 0.262,0 0.983,0.007 1.584,-0.306 v 5.691 c 0,0.368 0.034,0.515 -1.081,0.515 h -0.424 v 0.4 c 0.201,-0.011 1.573,-0.045 1.986,-0.045 0.346,0 1.752,0.033 1.996,0.045 v -0.4 h -0.423 c -1.116,0 -1.154,-0.146 -1.154,-0.515 z"
       style="fill:#000000;fill-opacity:0.999925;fill-rule:evenodd;stroke:none"
       id="path3219" />
    <path
       d="m 103.264,79.888 c 0.351,0 0.536,0.025 0.536,-0.405 0,-0.494 -0.098,-1.658 -0.918,-2.454 -0.59,-0.574 -1.435,-0.883 -2.534,-0.883 -2.5499,0 -3.9469,1.652 -3.9469,3.657 0,2.136 1.5979,3.686 4.1699,3.686 2.519,0 3.23,-1.692 3.23,-1.964 0,-0.287 -0.323,-0.287 -0.408,-0.287 -0.271,0 -0.303,0.08 -0.398,0.335 -0.335,0.765 -1.243,1.317 -2.279,1.317 -2.2475,0 -2.3137,-2.168 -2.3137,-3 z m -4.8641,-0.5 c 0.0359,-0.622 0.054,-1.2921 0.4329,-1.8181 0.4138,-0.638 1.0517,-0.8249 1.5142,-0.8249 1.865,0 1.897,2.086 1.913,2.643 z"
       style="fill:#000000;fill-opacity:0.999925;fill-rule:evenodd;stroke:none"
       id="path3221" />
    <path
       d="m 109.935,83.657 h -0.379 c -0.033,0.245 -0.145,0.904 -0.29,1.015 -0.089,0.067 -0.948,0.115 -1.105,0.115 h -2.053 c 1.172,-1.065 1.562,-1.385 2.232,-1.923 0.826,-0.658 1.561,-1.35 1.561,-2.41 0,-1.35 -1.167,-2.167 -2.576,-2.167 -1.384,0 -2.324,0.966 -2.324,1.988 0,0.569 0.482,0.612 0.594,0.612 0.268,0 0.606,-0.185 0.606,-0.578 0,-0.201 -0.08,-0.622 -0.673,-0.622 0.346,-0.769 1.105,-1 1.629,-1 1.116,0 1.644,0.867 1.644,1.767 0,0.971 -0.657,1.7409 -0.996,2.1419 l -2.689,2.6561 c -0.112,0.1 -0.115,0.122 -0.115,0.434 h 4.6 z"
       style="fill:#000000;fill-opacity:0.999925;fill-rule:evenodd;stroke:none"
       id="path3223" />
  </g>
</svg>
