<?xml version="1.0" encoding="UTF-8" standalone="no"?>
<!-- Created with Inkscape (http://www.inkscape.org/) -->

<svg
   width="570"
   height="133"
   viewBox="0 0 150.81345 35.189805"
   version="1.1"
   id="svg1"
   xml:space="preserve"
   inkscape:export-filename="../img/polarizzazione.pdf"
   inkscape:export-xdpi="96"
   inkscape:export-ydpi="96"
   sodipodi:docname="polarizzazione.svg"
   inkscape:version="1.3.2 (091e20ef0f, 2023-11-25)"
   xmlns:inkscape="http://www.inkscape.org/namespaces/inkscape"
   xmlns:sodipodi="http://sodipodi.sourceforge.net/DTD/sodipodi-0.dtd"
   xmlns:xlink="http://www.w3.org/1999/xlink"
   xmlns="http://www.w3.org/2000/svg"
   xmlns:svg="http://www.w3.org/2000/svg"><sodipodi:namedview
     id="namedview1"
     pagecolor="#ffffff"
     bordercolor="#000000"
     borderopacity="0.25"
     inkscape:showpageshadow="2"
     inkscape:pageopacity="0.0"
     inkscape:pagecheckerboard="0"
     inkscape:deskcolor="#d1d1d1"
     inkscape:document-units="mm"
     inkscape:zoom="1.3674024"
     inkscape:cx="359.8063"
     inkscape:cy="-8.4101065"
     inkscape:window-width="1920"
     inkscape:window-height="1052"
     inkscape:window-x="0"
     inkscape:window-y="0"
     inkscape:window-maximized="1"
     inkscape:current-layer="svg1" /><defs
     id="defs1"><linearGradient
       id="linearGradient4"
       inkscape:collect="always"><stop
         style="stop-color:#727272;stop-opacity:1;"
         offset="0"
         id="stop4" /><stop
         style="stop-color:#727272;stop-opacity:0;"
         offset="1"
         id="stop5" /></linearGradient><marker
       style="overflow:visible"
       id="ArrowTriangleStylized-0-6-8-7-39-7"
       refX="0"
       refY="0"
       orient="auto-start-reverse"
       inkscape:stockid="Stylized triangle arrow"
       markerWidth="1"
       markerHeight="1"
       viewBox="0 0 1 1"
       inkscape:isstock="true"
       inkscape:collect="always"
       preserveAspectRatio="xMidYMid"><path
         transform="scale(0.5)"
         style="fill:context-stroke;fill-rule:evenodd;stroke:context-stroke;stroke-width:1pt"
         d="m 6,0 c -3,1 -7,3 -9,5 0,0 0,-4 2,-5 -2,-1 -2,-5 -2,-5 2,2 6,4 9,5 z"
         id="path4-6-2-9-1-1-5" /></marker><linearGradient
       inkscape:collect="always"
       xlink:href="#linearGradient4"
       id="linearGradient5"
       x1="105.52059"
       y1="28.000351"
       x2="106.72416"
       y2="28.000351"
       gradientUnits="userSpaceOnUse" /><linearGradient
       inkscape:collect="always"
       xlink:href="#linearGradient4"
       id="linearGradient6"
       x1="108.70051"
       y1="27.994383"
       x2="109.98514"
       y2="27.994383"
       gradientUnits="userSpaceOnUse" /><marker
       style="overflow:visible"
       id="ArrowTriangleStylized-0-6-8-7-39-7-9-9"
       refX="0"
       refY="0"
       orient="auto-start-reverse"
       inkscape:stockid="Stylized triangle arrow"
       markerWidth="1"
       markerHeight="1"
       viewBox="0 0 1 1"
       inkscape:isstock="true"
       inkscape:collect="always"
       preserveAspectRatio="xMidYMid"><path
         transform="scale(0.5)"
         style="fill:context-stroke;fill-rule:evenodd;stroke:context-stroke;stroke-width:1pt"
         d="m 6,0 c -3,1 -7,3 -9,5 0,0 0,-4 2,-5 -2,-1 -2,-5 -2,-5 2,2 6,4 9,5 z"
         id="path4-6-2-9-1-1-5-0-6" /></marker><marker
       style="overflow:visible"
       id="ArrowTriangleStylized-0-6-8-7-39-7-9-9-1"
       refX="0"
       refY="0"
       orient="auto-start-reverse"
       inkscape:stockid="Stylized triangle arrow"
       markerWidth="1"
       markerHeight="1"
       viewBox="0 0 1 1"
       inkscape:isstock="true"
       inkscape:collect="always"
       preserveAspectRatio="xMidYMid"><path
         transform="scale(0.5)"
         style="fill:context-stroke;fill-rule:evenodd;stroke:context-stroke;stroke-width:1pt"
         d="m 6,0 c -3,1 -7,3 -9,5 0,0 0,-4 2,-5 -2,-1 -2,-5 -2,-5 2,2 6,4 9,5 z"
         id="path4-6-2-9-1-1-5-0-6-1" /></marker><marker
       style="overflow:visible"
       id="ArrowTriangleStylized-0-6-8-7-3"
       refX="0"
       refY="0"
       orient="auto-start-reverse"
       inkscape:stockid="Stylized triangle arrow"
       markerWidth="1"
       markerHeight="1"
       viewBox="0 0 1 1"
       inkscape:isstock="true"
       inkscape:collect="always"
       preserveAspectRatio="xMidYMid"><path
         transform="scale(0.5)"
         style="fill:context-stroke;fill-rule:evenodd;stroke:context-stroke;stroke-width:1pt"
         d="m 6,0 c -3,1 -7,3 -9,5 0,0 0,-4 2,-5 -2,-1 -2,-5 -2,-5 2,2 6,4 9,5 z"
         id="path4-6-2-9-1-3" /></marker><marker
       style="overflow:visible"
       id="ArrowTriangleStylized-0-6-8-7-3-2"
       refX="0"
       refY="0"
       orient="auto-start-reverse"
       inkscape:stockid="Stylized triangle arrow"
       markerWidth="1"
       markerHeight="1"
       viewBox="0 0 1 1"
       inkscape:isstock="true"
       inkscape:collect="always"
       preserveAspectRatio="xMidYMid"><path
         transform="scale(0.5)"
         style="fill:context-stroke;fill-rule:evenodd;stroke:context-stroke;stroke-width:1pt"
         d="m 6,0 c -3,1 -7,3 -9,5 0,0 0,-4 2,-5 -2,-1 -2,-5 -2,-5 2,2 6,4 9,5 z"
         id="path4-6-2-9-1-3-7" /></marker></defs><g
     inkscape:label="Livello 1"
     inkscape:groupmode="layer"
     id="layer1"><path
       style="fill:#000000;fill-opacity:0.988185;stroke:#de0000;stroke-width:0.309378;stroke-dasharray:none;stroke-opacity:0.988767;marker-end:url(#ArrowTriangleStylized-0-6-8-7-39-7)"
       d="M 87.825956,6.4725768 87.731666,27.829287"
       id="path6-5-2-4-3-9-5"
       sodipodi:nodetypes="cc" /><path
       style="fill:#000000;fill-opacity:0.988185;stroke:#de0000;stroke-width:0.309378;stroke-dasharray:none;stroke-opacity:0.988767;marker-end:url(#ArrowTriangleStylized-0-6-8-7-39-7-9-9)"
       d="M 95.836672,6.5967698 95.742382,27.95348"
       id="path6-5-2-4-3-9-5-8-8"
       sodipodi:nodetypes="cc" /><path
       style="fill:#000000;fill-opacity:0.988185;stroke:#de0000;stroke-width:0.309378;stroke-dasharray:none;stroke-opacity:0.988767;marker-end:url(#ArrowTriangleStylized-0-6-8-7-39-7-9-9-1)"
       d="m 104.00055,6.6081458 -0.0943,21.3567102"
       id="path6-5-2-4-3-9-5-8-8-9"
       sodipodi:nodetypes="cc" /><ellipse
       style="fill:#ffffff;fill-opacity:1;stroke:#8ec2c8;stroke-width:0.450949;stroke-dasharray:none;stroke-opacity:0.99251121"
       id="path1"
       cx="-21.368437"
       cy="82.231163"
       rx="3.746295"
       ry="2.2831802"
       transform="rotate(-90)" /><text
       xml:space="preserve"
       style="font-size:3.17502px;fill:none;fill-opacity:0.988185;stroke:#de0000;stroke-width:0.250002;stroke-dasharray:none;stroke-dashoffset:0;stroke-opacity:0.988767"
       x="64.010735"
       y="4.1439748"
       id="text8"><tspan
         sodipodi:role="line"
         id="tspan8"
         style="stroke-width:0.250002"
         x="64.010735"
         y="4.1439748" /></text></g><text
     xml:space="preserve"
     style="font-size:0.670695px;fill:#000000;fill-opacity:0.988185;stroke:#000000;stroke-width:0.0316865;stroke-dasharray:none;stroke-dashoffset:0;stroke-opacity:0.988767"
     x="94.7323"
     y="33.36565"
     id="text4-2"><tspan
       sodipodi:role="line"
       id="tspan4-0"
       style="fill:#000000;fill-opacity:0.988185;stroke:#000000;stroke-width:0.0316865;stroke-dasharray:none;stroke-dashoffset:0;stroke-opacity:0.988767"
       x="94.7323"
       y="33.36565">$\vec{E}$</tspan></text><path
     d="m 82.059856,20.195895 v -1.364349 h 0.415127 v 1.364349 z"
     id="text7-6-3-2-4-7"
     style="font-size:1.74281px;fill-opacity:0.99607843;stroke:#8ec2c8;stroke-width:0.207361;stroke-opacity:0.99251121;fill:#8ec2c8"
     aria-label="-" /><path
     d="m 81.181956,22.797564 h 0.929304 v -0.929301 h 0.283627 v 0.929301 h 0.929299 v 0.280296 h -0.929299 v 0.929301 H 82.11126 V 23.07786 h -0.929304 z"
     id="text7-4-5-0"
     style="font-size:1.74281px;fill-opacity:0.99607843;stroke:#8ec2c8;stroke-width:0.136676;stroke-opacity:0.99251121;fill:#8ec2c8"
     aria-label="+" /><ellipse
     style="fill:#ffffff;fill-opacity:1;stroke:#8ec2c8;stroke-width:0.450949;stroke-dasharray:none;stroke-opacity:0.99251121"
     id="path1-5"
     cx="-27.803129"
     cy="85.884796"
     rx="3.746295"
     ry="2.2831802"
     transform="rotate(-94.247688)" /><path
     d="m 87.450563,20.208786 -0.101055,-1.360602 0.413986,-0.03075 0.101055,1.360602 z"
     id="text7-6-3-2-4-7-3"
     style="font-size:1.74281px;fill-opacity:0.99607843;stroke:#8ec2c8;stroke-width:0.207361;stroke-opacity:0.99251121;fill:#8ec2c8"
     aria-label="-" /><path
     d="m 86.767774,22.868332 0.926752,-0.06883 -0.06884,-0.926748 0.282848,-0.02101 0.06884,0.926749 0.926746,-0.06884 0.02076,0.279526 -0.926745,0.06883 0.06884,0.926748 -0.282849,0.02101 -0.06883,-0.926749 -0.92675,0.06883 z"
     id="text7-4-5-0-5"
     style="font-size:1.74281px;fill-opacity:0.99607843;stroke:#8ec2c8;stroke-width:0.136676;stroke-opacity:0.99251121;fill:#8ec2c8"
     aria-label="+" /><ellipse
     style="fill:#ffffff;fill-opacity:1;stroke:#8ec2c8;stroke-width:0.450949;stroke-dasharray:none;stroke-opacity:0.99251121"
     id="path1-1"
     cx="-12.315033"
     cy="94.608795"
     rx="3.746295"
     ry="2.2831802"
     transform="rotate(-84.456228)" /><path
     d="m 92.919375,20.213623 0.131805,-1.357969 0.413184,0.0401 -0.131804,1.357969 z"
     id="text7-6-3-2-4-7-2"
     style="font-size:1.74281px;fill-opacity:0.99607843;stroke:#8ec2c8;stroke-width:0.207361;stroke-opacity:0.99251121;fill:#8ec2c8"
     aria-label="-" /><path
     d="m 91.794243,22.718311 0.924957,0.08978 0.08978,-0.924955 0.282301,0.0274 -0.08978,0.924954 0.924951,0.08978 -0.02708,0.278984 -0.924952,-0.08978 -0.08978,0.924956 -0.282302,-0.0274 0.08978,-0.924955 -0.924958,-0.08978 z"
     id="text7-4-5-0-7"
     style="font-size:1.74281px;fill-opacity:0.99607843;stroke:#8ec2c8;stroke-width:0.136676;stroke-opacity:0.99251121;fill:#8ec2c8"
     aria-label="+" /><ellipse
     style="fill:#ffffff;fill-opacity:1;stroke:#8ec2c8;stroke-width:0.450949;stroke-dasharray:none;stroke-opacity:0.99251121"
     id="path1-5-0"
     cx="-29.655533"
     cy="96.420456"
     rx="3.746295"
     ry="2.2831802"
     transform="rotate(-94.851769)" /><path
     d="m 98.31335,20.240355 -0.115394,-1.359463 0.413645,-0.03511 0.115394,1.359463 z"
     id="text7-6-3-2-4-7-3-9"
     style="font-size:1.74281px;fill-opacity:0.99607843;stroke:#8ec2c8;stroke-width:0.207361;stroke-opacity:0.99251121;fill:#8ec2c8"
     aria-label="-" /><path
     d="m 97.658642,22.906951 0.92597,-0.0786 -0.07858,-0.925971 0.282611,-0.02399 0.07858,0.925972 0.92597,-0.0786 0.0237,0.279292 -0.92597,0.0786 0.07858,0.925972 -0.282611,0.02399 -0.07858,-0.925971 -0.925967,0.0786 z"
     id="text7-4-5-0-5-3"
     style="font-size:1.74281px;fill-opacity:0.99607843;stroke:#8ec2c8;stroke-width:0.136676;stroke-opacity:0.99251121;fill:#8ec2c8"
     aria-label="+" /><ellipse
     style="fill:#ffffff;fill-opacity:1;stroke:#8ec2c8;stroke-width:0.450949;stroke-dasharray:none;stroke-opacity:0.99251121"
     id="path1-2"
     cx="-24.287548"
     cy="79.58744"
     rx="3.746295"
     ry="2.2831802"
     transform="rotate(-98.081234)" /><path
     d="m 81.876944,11.721385 -0.191796,-1.350801 0.411005,-0.05835 0.191795,1.350801 z"
     id="text7-6-3-2-4-7-6"
     style="font-size:1.74281px;fill-opacity:0.99607843;stroke:#8ec2c8;stroke-width:0.207361;stroke-opacity:0.99251121;fill:#8ec2c8"
     aria-label="-" /><path
     d="m 81.373497,14.420632 0.920075,-0.130639 -0.130638,-0.920072 0.280811,-0.03987 0.130638,0.920073 0.920071,-0.130638 0.03941,0.277513 -0.92007,0.130637 0.130638,0.920075 -0.280811,0.03987 -0.130639,-0.920072 -0.920076,0.130639 z"
     id="text7-4-5-0-1"
     style="font-size:1.74281px;fill-opacity:0.99607843;stroke:#8ec2c8;stroke-width:0.136676;stroke-opacity:0.99251121;fill:#8ec2c8"
     aria-label="+" /><ellipse
     style="fill:#ffffff;fill-opacity:1;stroke:#8ec2c8;stroke-width:0.450949;stroke-dasharray:none;stroke-opacity:0.99251121"
     id="path1-5-8"
     cx="-8.4232788"
     cy="88.224518"
     rx="3.746295"
     ry="2.2831802"
     transform="rotate(-87.113621)" /><path
     d="m 87.576421,11.675506 0.0687,-1.362619 0.4146,0.02091 -0.0687,1.36262 z"
     id="text7-6-3-2-4-7-3-7"
     style="font-size:1.74281px;fill-opacity:0.99607843;stroke:#8ec2c8;stroke-width:0.207361;stroke-opacity:0.99251121;fill:#8ec2c8"
     aria-label="-" /><path
     d="m 86.568626,14.229667 0.928125,0.04679 0.04679,-0.928122 0.283268,0.01429 -0.04679,0.928121 0.92812,0.04679 -0.01411,0.279941 -0.928119,-0.04679 -0.04679,0.928122 -0.283268,-0.01428 0.04679,-0.928123 -0.928124,-0.04679 z"
     id="text7-4-5-0-5-9"
     style="font-size:1.74281px;fill-opacity:0.99607843;stroke:#8ec2c8;stroke-width:0.136676;stroke-opacity:0.99251121;fill:#8ec2c8"
     aria-label="+" /><ellipse
     style="fill:#ffffff;fill-opacity:1;stroke:#8ec2c8;stroke-width:0.450949;stroke-dasharray:none;stroke-opacity:0.99251121"
     id="path1-1-2"
     cx="-12.886988"
     cy="93.086319"
     rx="3.746295"
     ry="2.2831802"
     transform="rotate(-90)" /><path
     d="m 92.915045,11.714449 v -1.36435 h 0.415127 v 1.36435 z"
     id="text7-6-3-2-4-7-2-0"
     style="font-size:1.74281px;fill-opacity:0.99607843;stroke:#8ec2c8;stroke-width:0.207361;stroke-opacity:0.99251121;fill:#8ec2c8"
     aria-label="-" /><path
     d="m 92.037145,14.316117 h 0.929304 v -0.929301 h 0.283627 v 0.929301 h 0.929299 v 0.280296 h -0.929299 v 0.929301 h -0.283627 v -0.929301 h -0.929304 z"
     id="text7-4-5-0-7-2"
     style="font-size:1.74281px;fill-opacity:0.99607843;stroke:#8ec2c8;stroke-width:0.136676;stroke-opacity:0.99251121;fill:#8ec2c8"
     aria-label="+" /><ellipse
     style="fill:#ffffff;fill-opacity:1;stroke:#8ec2c8;stroke-width:0.450949;stroke-dasharray:none;stroke-opacity:0.99251121"
     id="path1-5-0-3"
     cx="0.10781378"
     cy="99.401863"
     rx="3.746295"
     ry="2.2831802"
     transform="rotate(-82.490516)" /><path
     d="m 98.546844,11.699106 0.178304,-1.352649 0.411564,0.05425 -0.178313,1.35265 z"
     id="text7-6-3-2-4-7-3-9-7"
     style="font-size:1.74281px;fill-opacity:0.99607843;stroke:#8ec2c8;stroke-width:0.207361;stroke-opacity:0.99251121;fill:#8ec2c8"
     aria-label="-" /><path
     d="m 97.336454,14.163727 0.921341,0.121451 0.12145,-0.921331 0.281192,0.03707 -0.12145,0.921331 0.921323,0.121449 -0.03668,0.277893 -0.921314,-0.121449 -0.121451,0.921331 -0.281201,-0.03707 0.121451,-0.921332 -0.921334,-0.121451 z"
     id="text7-4-5-0-5-3-5"
     style="font-size:1.74281px;fill-opacity:0.99607843;stroke:#8ec2c8;stroke-width:0.136676;stroke-opacity:0.99251121;fill:#8ec2c8"
     aria-label="+" /><ellipse
     style="fill:#ffffff;fill-opacity:1;stroke:#8ec2c8;stroke-width:0.450949;stroke-dasharray:none;stroke-opacity:0.99251121"
     id="path1-8"
     cx="-21.403173"
     cy="104.0047"
     rx="3.746295"
     ry="2.2831802"
     transform="rotate(-90)" /><path
     d="m 103.83343,20.230631 v -1.36435 h 0.41512 v 1.36435 z"
     id="text7-6-3-2-4-7-9"
     style="font-size:1.74281px;fill-opacity:0.99607843;stroke:#8ec2c8;stroke-width:0.207361;stroke-opacity:0.99251121;fill:#8ec2c8"
     aria-label="-" /><path
     d="m 102.95552,22.832299 h 0.92931 v -0.929301 h 0.28363 v 0.929301 h 0.92929 v 0.280295 h -0.92929 v 0.929302 h -0.28363 v -0.929302 h -0.92931 z"
     id="text7-4-5-0-73"
     style="font-size:1.74281px;fill-opacity:0.99607843;stroke:#8ec2c8;stroke-width:0.136676;stroke-opacity:0.99251121;fill:#8ec2c8"
     aria-label="+" /><ellipse
     style="fill:#ffffff;fill-opacity:1;stroke:#8ec2c8;stroke-width:0.450949;stroke-dasharray:none;stroke-opacity:0.99251121"
     id="path1-5-6"
     cx="-4.8364162"
     cy="111.44878"
     rx="3.746295"
     ry="2.2831802"
     transform="rotate(-81.424814)" /><path
     d="m 109.48725,20.215186 0.20344,-1.349097 0.41049,0.0619 -0.20344,1.349097 z"
     id="text7-6-3-2-4-7-3-1"
     style="font-size:1.74281px;fill-opacity:0.99607843;stroke:#8ec2c8;stroke-width:0.207361;stroke-opacity:0.99251121;fill:#8ec2c8"
     aria-label="-" /><path
     d="m 108.23124,22.65687 0.91892,0.138565 0.13857,-0.918912 0.28045,0.04229 -0.13857,0.918912 0.91892,0.138565 -0.0418,0.277164 -0.91891,-0.138567 -0.13856,0.918913 -0.28047,-0.04229 0.13857,-0.918913 -0.91891,-0.138566 z"
     id="text7-4-5-0-5-2"
     style="font-size:1.74281px;fill-opacity:0.99607843;stroke:#8ec2c8;stroke-width:0.136676;stroke-opacity:0.99251121;fill:#8ec2c8"
     aria-label="+" /><ellipse
     style="fill:#ffffff;fill-opacity:1;stroke:#8ec2c8;stroke-width:0.450949;stroke-dasharray:none;stroke-opacity:0.99251121"
     id="path1-2-8"
     cx="-12.892954"
     cy="103.98492"
     rx="3.746295"
     ry="2.2831802"
     transform="rotate(-90)" /><path
     d="m 103.81365,11.720395 v -1.36435 h 0.41512 v 1.36435 z"
     id="text7-6-3-2-4-7-6-4"
     style="font-size:1.74281px;fill-opacity:0.99607843;stroke:#8ec2c8;stroke-width:0.207361;stroke-opacity:0.99251121;fill:#8ec2c8"
     aria-label="-" /><path
     d="m 102.93575,14.322064 h 0.9293 v -0.929302 h 0.28363 v 0.929302 h 0.9293 v 0.280296 h -0.9293 v 0.929302 h -0.28363 V 14.60236 h -0.9293 z"
     id="text7-4-5-0-1-5"
     style="font-size:1.74281px;fill-opacity:0.99607843;stroke:#8ec2c8;stroke-width:0.136676;stroke-opacity:0.99251121;fill:#8ec2c8"
     aria-label="+" /><ellipse
     style="fill:#ffffff;fill-opacity:1;stroke:#8ec2c8;stroke-width:0.450949;stroke-dasharray:none;stroke-opacity:0.99251121"
     id="path1-5-8-0"
     cx="-18.854479"
     cy="108.59366"
     rx="3.746295"
     ry="2.2831802"
     transform="rotate(-93.133677)" /><path
     d="m 109.22689,11.728493 -0.0746,-1.362311 0.41451,-0.0227 0.0746,1.362311 z"
     id="text7-6-3-2-4-7-3-7-3"
     style="font-size:1.74281px;fill-opacity:0.99607843;stroke:#8ec2c8;stroke-width:0.207361;stroke-opacity:0.99251121;fill:#8ec2c8"
     aria-label="-" /><path
     d="m 108.49251,14.374262 0.92792,-0.05081 -0.0508,-0.927912 0.2832,-0.0155 0.0508,0.927912 0.9279,-0.0508 0.0153,0.279878 -0.9279,0.0508 0.0508,0.927911 -0.2832,0.0155 -0.0508,-0.927911 -0.92792,0.05081 z"
     id="text7-4-5-0-5-9-6"
     style="font-size:1.74281px;fill-opacity:0.99607843;stroke:#8ec2c8;stroke-width:0.136676;stroke-opacity:0.99251121;fill:#8ec2c8"
     aria-label="+" /><ellipse
     style="fill:#000000;fill-opacity:0.00829468;stroke:#8ec2c8;stroke-width:0.450949;stroke-dasharray:none;stroke-opacity:0.99251121"
     id="path1-17"
     cx="1.6423342"
     cy="45.434151"
     rx="3.746295"
     ry="2.2831802"
     transform="rotate(-60)" /><path
     d="m 40.606227,20.193667 0.682176,-1.181563 0.359509,0.207563 -0.682174,1.181563 z"
     id="text7-6-3-2-4-7-27"
     style="font-size:1.74281px;fill-opacity:0.99607843;stroke:#8ec2c8;stroke-width:0.207361;stroke-opacity:0.99251121;fill:#8ec2c8"
     aria-label="-" /><path
     d="m 38.54511,22.007827 0.8048,0.464652 0.464651,-0.804799 0.245629,0.141818 -0.464651,0.804799 0.804796,0.464649 -0.140148,0.242743 -0.804796,-0.464649 -0.46465,0.804798 -0.24563,-0.141819 0.464651,-0.804798 -0.8048,-0.464652 z"
     id="text7-4-5-0-2"
     style="font-size:1.74281px;fill-opacity:0.99607843;stroke:#8ec2c8;stroke-width:0.136676;stroke-opacity:0.99251121;fill:#8ec2c8"
     aria-label="+" /><ellipse
     style="fill:#000000;fill-opacity:0.00829468;stroke:#8ec2c8;stroke-width:0.450949;stroke-dasharray:none;stroke-opacity:0.99251121"
     id="path1-5-2"
     cx="-8.7523613"
     cy="49.600754"
     rx="3.746295"
     ry="2.2831802"
     transform="rotate(-75)" /><path
     d="m 45.783402,20.114826 0.35312,-1.317861 0.400982,0.107443 -0.353121,1.317862 z"
     id="text7-6-3-2-4-7-3-6"
     style="font-size:1.74281px;fill-opacity:0.99607843;stroke:#8ec2c8;stroke-width:0.207361;stroke-opacity:0.99251121;fill:#8ec2c8"
     aria-label="-" /><path
     d="m 44.262053,22.400626 0.897639,0.240522 0.240521,-0.897636 0.273963,0.07341 -0.24052,0.897636 0.897632,0.240521 -0.07255,0.270744 -0.897635,-0.240519 -0.24052,0.897636 -0.273963,-0.07341 0.24052,-0.897636 -0.897638,-0.240521 z"
     id="text7-4-5-0-5-1"
     style="font-size:1.74281px;fill-opacity:0.99607843;stroke:#8ec2c8;stroke-width:0.136676;stroke-opacity:0.99251121;fill:#8ec2c8"
     aria-label="+" /><ellipse
     style="fill:#000000;fill-opacity:0.00829468;stroke:#8ec2c8;stroke-width:0.450949;stroke-dasharray:none;stroke-opacity:0.99251121"
     id="path1-1-0"
     cx="-51.171055"
     cy="21.014992"
     rx="3.746295"
     ry="2.2831802"
     transform="rotate(-135)" /><path
     d="m 50.09302,20.615547 -0.964741,-0.964741 0.293538,-0.293538 0.964742,0.96474 z"
     id="text7-6-3-2-4-7-2-6"
     style="font-size:1.74281px;fill-opacity:0.99607843;stroke:#8ec2c8;stroke-width:0.207361;stroke-opacity:0.99251121;fill:#8ec2c8"
     aria-label="-" /><path
     d="m 51.311908,23.075975 0.657117,-0.657117 -0.657114,-0.657116 0.200555,-0.200555 0.657116,0.657116 0.657112,-0.657114 0.198198,0.198199 -0.657113,0.657113 0.657116,0.657115 -0.200555,0.200556 -0.657116,-0.657116 -0.657118,0.657116 z"
     id="text7-4-5-0-7-1"
     style="font-size:1.74281px;fill-opacity:0.99607843;stroke:#8ec2c8;stroke-width:0.136676;stroke-opacity:0.99251121;fill:#8ec2c8"
     aria-label="+" /><ellipse
     style="fill:#000000;fill-opacity:0.00829468;stroke:#8ec2c8;stroke-width:0.450949;stroke-dasharray:none;stroke-opacity:0.99251121"
     id="path1-5-0-5"
     cx="-58.774178"
     cy="13.953742"
     rx="3.746295"
     ry="2.2831802"
     transform="rotate(-145.97709)" /><path
     d="m 55.452671,20.806418 -1.130792,-0.763388 0.232273,-0.344062 1.130792,0.763388 z"
     id="text7-6-3-2-4-7-3-9-9"
     style="font-size:1.74281px;fill-opacity:0.99607843;stroke:#8ec2c8;stroke-width:0.207361;stroke-opacity:0.99251121;fill:#8ec2c8"
     aria-label="-" /><path
     d="m 57.117762,22.989731 0.519968,-0.770219 -0.770214,-0.519968 0.158696,-0.235075 0.770214,0.519968 0.519968,-0.770216 0.23231,0.156833 -0.519959,0.770215 0.770214,0.519966 -0.158696,0.235076 -0.770214,-0.519968 -0.519969,0.770221 z"
     id="text7-4-5-0-5-3-4"
     style="font-size:1.74281px;fill-opacity:0.99607843;stroke:#8ec2c8;stroke-width:0.136676;stroke-opacity:0.99251121;fill:#8ec2c8"
     aria-label="+" /><ellipse
     style="fill:#000000;fill-opacity:0.00829468;stroke:#8ec2c8;stroke-width:0.450949;stroke-dasharray:none;stroke-opacity:0.99251121"
     id="path1-2-9"
     cx="-22.740122"
     cy="35.471603"
     rx="3.746295"
     ry="2.2831802"
     transform="rotate(-105)" /><path
     d="m 39.679577,11.696273 -0.35312,-1.31786 0.400983,-0.107443 0.353118,1.317861 z"
     id="text7-6-3-2-4-7-6-0"
     style="font-size:1.74281px;fill-opacity:0.99607843;stroke:#8ec2c8;stroke-width:0.207361;stroke-opacity:0.99251121;fill:#8ec2c8"
     aria-label="-" /><path
     d="m 39.504952,14.436508 0.897639,-0.240521 -0.24052,-0.897637 0.273963,-0.07341 0.24052,0.897637 0.897633,-0.240521 0.07255,0.270745 -0.897633,0.24052 0.24052,0.897636 -0.273963,0.07341 -0.24052,-0.897636 -0.89764,0.240522 z"
     id="text7-4-5-0-1-9"
     style="font-size:1.74281px;fill-opacity:0.99607843;stroke:#8ec2c8;stroke-width:0.136676;stroke-opacity:0.99251121;fill:#8ec2c8"
     aria-label="+" /><ellipse
     style="fill:#000000;fill-opacity:0.00829468;stroke:#8ec2c8;stroke-width:0.450949;stroke-dasharray:none;stroke-opacity:0.99251121"
     id="path1-5-8-1"
     cx="-0.53723812"
     cy="47.37904"
     rx="3.746295"
     ry="2.2831802"
     transform="rotate(-75)" /><path
     d="m 45.763625,11.604593 0.353118,-1.317862 0.400983,0.107444 -0.35312,1.31786 z"
     id="text7-6-3-2-4-7-3-7-7"
     style="font-size:1.74281px;fill-opacity:0.99607843;stroke:#8ec2c8;stroke-width:0.207361;stroke-opacity:0.99251121;fill:#8ec2c8"
     aria-label="-" /><path
     d="m 44.242277,13.890392 0.897638,0.240521 0.240521,-0.897636 0.273963,0.07341 -0.240521,0.897636 0.897634,0.24052 -0.07255,0.270745 -0.897634,-0.240519 -0.240521,0.897635 -0.273963,-0.07341 0.240521,-0.897636 -0.897638,-0.240521 z"
     id="text7-4-5-0-5-9-7"
     style="font-size:1.74281px;fill-opacity:0.99607843;stroke:#8ec2c8;stroke-width:0.136676;stroke-opacity:0.99251121;fill:#8ec2c8"
     aria-label="+" /><ellipse
     style="fill:#000000;fill-opacity:0.00829468;stroke:#8ec2c8;stroke-width:0.450949;stroke-dasharray:none;stroke-opacity:0.99251121"
     id="path1-1-2-1"
     cx="25.582575"
     cy="-45.968544"
     rx="3.746295"
     ry="2.2831802"
     transform="rotate(75)" /><path
     d="m 51.492384,13.90162 0.353122,1.317862 -0.400982,0.107443 -0.353119,-1.317861 z"
     id="text7-6-3-2-4-7-2-0-1"
     style="font-size:1.74281px;fill-opacity:0.99607843;stroke:#8ec2c8;stroke-width:0.207361;stroke-opacity:0.99251121;fill:#8ec2c8"
     aria-label="-" /><path
     d="m 51.667011,11.161387 -0.897639,0.24052 0.240521,0.897636 -0.273963,0.07341 -0.240521,-0.897636 -0.897633,0.240519 -0.07255,-0.270744 0.897633,-0.240521 -0.240521,-0.897636 0.273963,-0.07341 0.240521,0.897636 0.897639,-0.240522 z"
     id="text7-4-5-0-7-2-5"
     style="font-size:1.74281px;fill-opacity:0.99607843;stroke:#8ec2c8;stroke-width:0.136676;stroke-opacity:0.99251121;fill:#8ec2c8"
     aria-label="+" /><ellipse
     style="fill:#000000;fill-opacity:0.00829468;stroke:#8ec2c8;stroke-width:0.450949;stroke-dasharray:none;stroke-opacity:0.99251121"
     id="path1-5-0-3-9"
     cx="42.525753"
     cy="39.344341"
     rx="3.746295"
     ry="2.2831802"
     transform="rotate(-30)" /><path
     d="m 57.430385,12.075711 1.181562,-0.682175 0.207564,0.359512 -1.181562,0.682176 z"
     id="text7-6-3-2-4-7-3-9-7-7"
     style="font-size:1.74281px;fill-opacity:0.99607843;stroke:#8ec2c8;stroke-width:0.207361;stroke-opacity:0.99251121;fill:#8ec2c8"
     aria-label="-" /><path
     d="m 54.738327,12.616263 0.46465,0.804797 0.804799,-0.46465 0.141818,0.245636 -0.804798,0.46465 0.464646,0.804792 -0.242745,0.140149 -0.464646,-0.804792 -0.804799,0.464651 -0.141818,-0.245636 0.804799,-0.464651 -0.464651,-0.804797 z"
     id="text7-4-5-0-5-3-5-7"
     style="font-size:1.74281px;fill-opacity:0.99607843;stroke:#8ec2c8;stroke-width:0.136676;stroke-opacity:0.99251121;fill:#8ec2c8"
     aria-label="+" /><ellipse
     style="fill:#000000;fill-opacity:0.00829468;stroke:#8ec2c8;stroke-width:0.450949;stroke-dasharray:none;stroke-opacity:0.99251121"
     id="path1-8-6"
     cx="18.763014"
     cy="62.766972"
     rx="3.746295"
     ry="2.2831802"
     transform="rotate(-54.355945)" /><path
     d="m 62.485973,20.276814 0.795072,-1.108744 0.337348,0.24191 -0.795072,1.108743 z"
     id="text7-6-3-2-4-7-9-7"
     style="font-size:1.74281px;fill-opacity:0.99607843;stroke:#8ec2c8;stroke-width:0.207361;stroke-opacity:0.99251121;fill:#8ec2c8"
     aria-label="-" /><path
     d="m 60.25642,21.879466 0.755208,0.541555 0.541548,-0.755199 0.230491,0.165283 -0.541549,0.7552 0.755193,0.541542 -0.163341,0.227784 -0.755193,-0.541543 -0.541549,0.755199 -0.23049,-0.165283 0.541548,-0.7552 -0.755207,-0.541554 z"
     id="text7-4-5-0-73-3"
     style="font-size:1.74281px;fill-opacity:0.99607843;stroke:#8ec2c8;stroke-width:0.136676;stroke-opacity:0.99251121;fill:#8ec2c8"
     aria-label="+" /><ellipse
     style="fill:#000000;fill-opacity:0.00829468;stroke:#8ec2c8;stroke-width:0.450949;stroke-dasharray:none;stroke-opacity:0.99251121"
     id="path1-5-6-6"
     cx="-21.326487"
     cy="67.418945"
     rx="3.746295"
     ry="2.2831802"
     transform="rotate(-90)" /><path
     d="m 67.247667,20.153938 v -1.364349 h 0.41512 v 1.364349 z"
     id="text7-6-3-2-4-7-3-1-5"
     style="font-size:1.74281px;fill-opacity:0.99607843;stroke:#8ec2c8;stroke-width:0.207361;stroke-opacity:0.99251121;fill:#8ec2c8"
     aria-label="-" /><path
     d="m 66.369767,22.755607 h 0.929302 v -0.929301 h 0.283628 v 0.929301 h 0.929293 v 0.280296 h -0.929293 v 0.929301 h -0.283628 v -0.929301 h -0.929302 z"
     id="text7-4-5-0-5-2-6"
     style="font-size:1.74281px;fill-opacity:0.99607843;stroke:#8ec2c8;stroke-width:0.136676;stroke-opacity:0.99251121;fill:#8ec2c8"
     aria-label="+" /><ellipse
     style="fill:#000000;fill-opacity:0.00829468;stroke:#8ec2c8;stroke-width:0.450949;stroke-dasharray:none;stroke-opacity:0.99251121"
     id="path1-2-8-3"
     cx="-12.819302"
     cy="61.922085"
     rx="3.746295"
     ry="2.2831802"
     transform="rotate(-90)" /><path
     d="m 61.750796,11.64672 v -1.364349 h 0.41513 v 1.364349 z"
     id="text7-6-3-2-4-7-6-4-9"
     style="font-size:1.74281px;fill-opacity:0.99607843;stroke:#8ec2c8;stroke-width:0.207361;stroke-opacity:0.99251121;fill:#8ec2c8"
     aria-label="-" /><path
     d="m 60.872897,14.248388 h 0.929302 v -0.929301 h 0.283627 v 0.929301 h 0.929303 v 0.280297 h -0.929303 v 0.929301 h -0.283627 v -0.929301 h -0.929302 z"
     id="text7-4-5-0-1-5-4"
     style="font-size:1.74281px;fill-opacity:0.99607843;stroke:#8ec2c8;stroke-width:0.136676;stroke-opacity:0.99251121;fill:#8ec2c8"
     aria-label="+" /><ellipse
     style="fill:#000000;fill-opacity:0.00829468;stroke:#8ec2c8;stroke-width:0.450949;stroke-dasharray:none;stroke-opacity:0.99251121"
     id="path1-5-8-0-8"
     cx="22.600351"
     cy="64.777534"
     rx="3.746295"
     ry="2.2831802"
     transform="rotate(-60)" /><path
     d="m 67.837124,11.715158 0.682173,-1.181563 0.359509,0.207564 -0.682174,1.181563 z"
     id="text7-6-3-2-4-7-3-7-3-1"
     style="font-size:1.74281px;fill-opacity:0.99607843;stroke:#8ec2c8;stroke-width:0.207361;stroke-opacity:0.99251121;fill:#8ec2c8"
     aria-label="-" /><path
     d="m 65.776008,13.529317 0.8048,0.464652 0.464647,-0.804797 0.245626,0.141818 -0.464646,0.804798 0.804799,0.464649 -0.140152,0.242744 -0.804791,-0.46465 -0.464655,0.8048 -0.245627,-0.141818 0.464647,-0.8048 -0.8048,-0.464652 z"
     id="text7-4-5-0-5-9-6-2"
     style="font-size:1.74281px;fill-opacity:0.99607843;stroke:#8ec2c8;stroke-width:0.136676;stroke-opacity:0.99251121;fill:#8ec2c8"
     aria-label="+" /><path
     style="fill:#000000;fill-opacity:0.988185;stroke:#2800b6;stroke-width:0.331513;stroke-dasharray:none;stroke-opacity:0.988767;marker-end:url(#ArrowTriangleStylized-0-6-8-7-3)"
     d="m 41.034819,16.032234 -1.41905,-5.338038"
     id="path6-5-2-4-3-6"
     sodipodi:nodetypes="cc"
     inkscape:label="path6-5-2-4-3-6" /><text
     xml:space="preserve"
     style="font-size:0.670695px;fill:#000000;fill-opacity:0.988185;stroke:#000000;stroke-width:0.0316865;stroke-dasharray:none;stroke-dashoffset:0;stroke-opacity:0.988767"
     x="40.084362"
     y="8.8745441"
     id="text4-2-6"><tspan
       sodipodi:role="line"
       id="tspan4-0-2"
       style="fill:#000000;fill-opacity:0.988185;stroke:#000000;stroke-width:0.0316865;stroke-dasharray:none;stroke-dashoffset:0;stroke-opacity:0.988767"
       x="40.084362"
       y="8.8745441">$\vec{p}_0$</tspan></text><path
     style="fill:#000000;fill-opacity:0.988185;stroke:#2800b6;stroke-width:0.331513;stroke-dasharray:none;stroke-opacity:0.988767;marker-end:url(#ArrowTriangleStylized-0-6-8-7-3-2)"
     d="M 82.116818,9.3883733 82.105928,14.9118"
     id="path6-5-2-4-3-6-9"
     sodipodi:nodetypes="cc"
     inkscape:label="path6-5-2-4-3-6" /><text
     xml:space="preserve"
     style="font-size:0.670695px;fill:#000000;fill-opacity:0.988185;stroke:#000000;stroke-width:0.0316865;stroke-dasharray:none;stroke-dashoffset:0;stroke-opacity:0.988767"
     x="82.32589"
     y="8.0895481"
     id="text4-2-6-3"><tspan
       sodipodi:role="line"
       id="tspan4-0-2-6"
       style="fill:#000000;fill-opacity:0.988185;stroke:#000000;stroke-width:0.0316865;stroke-dasharray:none;stroke-dashoffset:0;stroke-opacity:0.988767"
       x="82.32589"
       y="8.0895481">$\vec{p}_m$</tspan></text></svg>
